<?xml version="1.0" encoding="utf-8"?>
<!-- Generator: Adobe Illustrator 27.1.1, SVG Export Plug-In . SVG Version: 6.00 Build 0)  -->
<svg version="1.1" id="Layer_1" xmlns="http://www.w3.org/2000/svg" xmlns:xlink="http://www.w3.org/1999/xlink" x="0px" y="0px"
	 viewBox="0 0 45.8 45.8" style="enable-background:new 0 0 45.8 45.8;" xml:space="preserve">
<style type="text/css">
	.st0{fill:none;stroke:#55738A;stroke-width:1.5;stroke-miterlimit:10;}
</style>
<g id="Group_74" transform="translate(0 -2)">
	<g>
		<defs>
			<rect id="SVGID_1_" y="2" width="45.8" height="45.8"/>
		</defs>
		<clipPath id="SVGID_00000154407380086978932240000014891469560273691565_">
			<use xlink:href="#SVGID_1_"  style="overflow:visible;"/>
		</clipPath>
	</g>
</g>
<g id="ozuNBh.tif">
</g>
<g>
	<path class="st0" d="M22.4,33.1c-5.1,0-7.1,0.1-12.2,0.1c-1.3,0-8.6-0.4-8.6-6.2C1.7,21,9,21.2,9,21.1C4.8,14.8,9.6,9,15.5,8.4
		c9.1-1,10,6.5,10,6.6c0.2,0.4,3.5-3.9,9.2-1.1c4.2,2.1,2.4,7.6,2.5,7.6c0.7,0,1.4-0.1,2,0c3.9,0.5,6.4,5,4.8,8.5
		c-0.6,1.2-1.5,2-2.7,2.4c-1.1,0.4-2.2,0.6-3.4,0.6C32.7,33.1,27.6,33.1,22.4,33.1z"/>
</g>
</svg>
