<?xml version="1.0" standalone="no"?>
<!DOCTYPE svg PUBLIC "-//W3C//DTD SVG 1.1//EN" "http://www.w3.org/Graphics/SVG/1.1/DTD/svg11.dtd" >
<svg xmlns="http://www.w3.org/2000/svg" xmlns:xlink="http://www.w3.org/1999/xlink" version="1.1">
<metadata>
Created by FontForge 20200427 at Mon Dec 19 23:54:22 2011
 By www
</metadata>
<defs>
<font id="AdonisW00-Bold" horiz-adv-x="577" >
  <font-face 
    font-family="AdonisW00-Bold"
    font-weight="700"
    font-stretch="normal"
    units-per-em="1000"
    panose-1="2 8 7 3 5 4 5 6 4 4"
    ascent="746"
    descent="-254"
    x-height="485"
    cap-height="708"
    bbox="-50 -282 1051 913"
    underline-thickness="19"
    underline-position="-144"
    unicode-range="U+0020-F6DC"
  />
<missing-glyph horiz-adv-x="233" 
 />
    <glyph glyph-name=".notdef" horiz-adv-x="233" 
 />
    <glyph glyph-name="glyph1" horiz-adv-x="0" 
 />
    <glyph glyph-name="glyph2" horiz-adv-x="0" 
 />
    <glyph glyph-name="space" unicode=" " horiz-adv-x="233" 
 />
    <glyph glyph-name="space" unicode="&#xa0;" horiz-adv-x="233" 
 />
    <glyph glyph-name="exclam" unicode="!" horiz-adv-x="258" 
d="M203 58q0 -29 -19.5 -48.5t-48.5 -20.5t-48.5 18t-20.5 48t18 49.5t48 21.5q29 0 49.5 -19.5t21.5 -48.5zM205 661q0 -17 -1.5 -27.5t-3.5 -29.5l-49 -399h-35l-49 399q-6 42 -6 60q0 44 20 64t52 20q31 0 51.5 -20.5t20.5 -66.5z" />
    <glyph glyph-name="quotedbl" unicode="&#x22;" horiz-adv-x="365" 
d="M150 678q0 -7 -2.5 -18.5t-5.5 -28.5l-26 -133h-47l-27 134q-2 11 -3.5 24.5t-1.5 21.5q0 60 55 60q58 0 58 -60zM312 678q0 -6 -2 -18t-5 -29l-26 -133h-49l-25 133q-3 16 -4 28t-1 19q0 60 55 60q57 0 57 -60z" />
    <glyph glyph-name="numbersign" unicode="#" horiz-adv-x="644" 
d="M267 439l-37 -225h134l34 225h-131zM570 439h-105l-36 -225h106l-10 -58h-105l-29 -166h-64l26 166h-131l-29 -166h-65l28 166h-107l9 58h108l36 225h-109l14 59h107l28 166h66l-29 -166h132l27 166h66l-28 -166h108z" />
    <glyph glyph-name="dollar" unicode="$" 
d="M410 154q0 31 -10.5 52.5t-25.5 36.5t-33 24.5t-33 16.5v-238q49 3 75.5 34.5t26.5 73.5zM242 464v203q-42 -10 -58 -38t-16 -59q0 -8 0.5 -17.5t4 -21t12.5 -24t26 -24.5q7 -5 14.5 -9.5t16.5 -9.5zM534 192q0 -86 -57.5 -142.5t-168.5 -67.5v-66h-66v65q-54 2 -94 13.5
t-66.5 29t-40 40t-13.5 46.5q0 18 3.5 37t11 34.5t18 25t25.5 9.5q18 0 22.5 -12.5t12.5 -37.5q17 -60 46.5 -90.5t74.5 -30.5v271q-15 9 -33 18t-41 21q-26 13 -49.5 30.5t-41.5 40t-29 50t-11 59.5q0 46 16.5 80t44 57t65 36t79.5 18v65h66v-64q27 -1 60.5 -6t65.5 -16
q39 -14 52.5 -38.5t10.5 -61.5q-2 -25 -6.5 -41t-10.5 -25t-13.5 -12.5t-14.5 -3.5q-15 0 -25.5 19.5t-24.5 44.5t-35.5 48.5t-58.5 31.5v-238q54 -28 96 -51t71 -49.5t44 -58.5t15 -78z" />
    <glyph glyph-name="percent" unicode="%" horiz-adv-x="690" 
d="M575 128q0 29 -2.5 56t-9.5 47.5t-18.5 33t-29.5 12.5q-20 0 -31.5 -9t-17.5 -24t-7.5 -35t-1.5 -41q0 -30 2.5 -57t9 -47.5t18 -33t28.5 -12.5q19 0 30.5 9t18 24.5t9 35.5t2.5 41zM236 531q0 29 -3 56t-9.5 47.5t-18.5 33t-30 12.5q-20 0 -31.5 -9t-17.5 -24t-7.5 -35
t-1.5 -42q0 -29 2.5 -56t9.5 -47.5t18 -32.5t28 -12q19 0 31 9t18.5 24.5t9 35t2.5 40.5zM672 152q0 -41 -12.5 -74.5t-33.5 -56.5t-49 -35.5t-60 -12.5q-46 0 -76.5 15.5t-48.5 40t-25.5 55t-7.5 59.5q0 85 43 131.5t111 46.5q44 0 74.5 -14.5t49 -38t27 -54t8.5 -62.5z
M552 703q0 -10 -2.5 -16t-4.5 -11l-350 -683q-3 -4 -10.5 -15t-26.5 -11q-10 0 -16.5 8.5t-6.5 15.5q0 8 2.5 14.5t5.5 11.5l350 683q3 5 10 15.5t27 10.5q10 0 16 -8t6 -15zM332 555q0 -41 -12 -73.5t-33 -55.5t-49.5 -35.5t-60.5 -12.5q-46 0 -76.5 15.5t-48.5 39.5
t-25.5 54t-7.5 60q0 85 43 131.5t111 46.5q44 0 74.5 -14.5t49 -38.5t27 -54.5t8.5 -62.5z" />
    <glyph glyph-name="ampersand" unicode="&#x26;" horiz-adv-x="751" 
d="M212 351q-35 -16 -56 -53.5t-21 -89.5q0 -31 8.5 -60t26 -51t44.5 -35t64 -13q22 0 45 5.5t43.5 13.5t35 17t20.5 17zM390 567q0 45 -24 73.5t-77 28.5q-18 0 -34 -4.5t-29 -14t-20.5 -26t-7.5 -40.5q0 -26 13 -47t29 -42l38 -49q24 9 44.5 23.5t35.5 31.5t23.5 34.5
t8.5 31.5zM671 33q0 -14 -15 -28t-49 -14q-42 0 -78.5 17t-71.5 59q-21 -21 -47.5 -37t-56 -27t-61 -16.5t-62.5 -5.5q-51 0 -89.5 15t-64.5 41t-39 61t-13 75q0 66 36 121.5t112 100.5q-18 22 -32.5 40.5t-24.5 37.5t-15.5 39t-5.5 46q0 32 14.5 61.5t40.5 52.5t62 37
t78 14q38 0 70.5 -8.5t56 -25t37 -42.5t13.5 -60q0 -51 -40 -100t-109 -85l176 -206q6 11 10 25t4 31q0 10 -2.5 22t-18.5 12q-15 0 -20 7t-5 16q0 17 17 25t33 8h68q21 0 36.5 -8t15.5 -25q0 -9 -4.5 -16t-22.5 -7q-13 0 -17 -12t-9 -24q-12 -30 -23 -56t-22 -42
q34 -44 59 -64t39 -27q13 -6 26.5 -11.5t13.5 -16.5z" />
    <glyph glyph-name="quotesingle" unicode="'" horiz-adv-x="195" 
d="M150 678q0 -7 -2.5 -18.5t-5.5 -28.5l-26 -133h-47l-27 134q-2 11 -3.5 24.5t-1.5 21.5q0 60 55 60q58 0 58 -60z" />
    <glyph glyph-name="parenleft" unicode="(" horiz-adv-x="368" 
d="M328 -201q0 -8 -5 -11.5t-13 -3.5t-15 5t-15 10q-48 37 -92.5 88.5t-78 113t-54 129.5t-20.5 137q0 80 20.5 149.5t54 127.5t78 105.5t92.5 84.5q8 6 15 11t15 5t13 -3t5 -13q0 -11 -7.5 -19.5t-15.5 -16.5q-32 -35 -60 -80.5t-49 -100.5t-33 -118t-12 -132
q0 -68 12 -131t33 -118.5t49 -102t60 -80.5q7 -8 15 -16.5t8 -19.5z" />
    <glyph glyph-name="parenright" unicode=")" horiz-adv-x="368" 
d="M40 -201q0 11 7.5 19.5t15.5 16.5q31 34 59 80.5t49 102t33 118.5t12 131q0 69 -12 132t-33 118t-49 100.5t-59 80.5q-8 8 -15.5 16.5t-7.5 19.5q0 10 5 13t12 3q9 0 16 -5t15 -11q48 -37 92 -84.5t78 -105.5t54 -127.5t20 -149.5q0 -69 -20 -137t-54 -129.5t-78 -113
t-92 -88.5q-8 -5 -15 -10t-16 -5q-7 0 -12 3.5t-5 11.5z" />
    <glyph glyph-name="asterisk" unicode="*" horiz-adv-x="444" 
d="M392 438q0 -6 -2.5 -13t-6.5 -15q-15 -26 -35 -26q-11 0 -32 9q-8 6 -21.5 18.5t-26.5 26.5q-15 16 -31 34l-6 -3q8 -23 14 -44q5 -18 9.5 -36t4.5 -28q0 -30 -12 -40t-35 -10t-34.5 10t-11.5 40q0 10 4 28t9 36q6 21 14 44l-5 3q-17 -18 -32 -34q-13 -14 -26 -26.5
t-21 -18.5q-21 -9 -32 -9q-20 0 -35 26q-10 17 -10 28q0 20 29 37q8 5 26.5 10.5t36.5 10.5q21 5 45 11v4q-24 6 -45 11q-18 5 -36.5 10.5t-26.5 10.5q-29 17 -29 37q0 11 10 28q15 26 35 26q11 0 32 -9q8 -6 21 -18.5t26 -26.5q15 -16 32 -34l5 4q-8 23 -14 44
q-5 18 -9 35.5t-4 28.5q0 29 11.5 39t34.5 10t35 -10t12 -39q0 -11 -4.5 -28.5t-9.5 -35.5q-6 -21 -14 -44l6 -4q16 18 31 34q13 14 26.5 26.5t21.5 18.5q21 9 32 9q20 0 35 -26q4 -8 6.5 -14.5t2.5 -13.5q0 -20 -28 -37q-9 -5 -27 -10.5t-36 -10.5q-21 -5 -45 -11v-4
q24 -6 45 -11q18 -5 36 -10.5t27 -10.5q28 -17 28 -37z" />
    <glyph glyph-name="plus" unicode="+" horiz-adv-x="525" 
d="M285 223v-175h-69v175h-175v68h175v176h69v-176h175v-68h-175z" />
    <glyph glyph-name="comma" unicode="," horiz-adv-x="199" 
d="M179 14q0 -38 -18 -72.5t-42.5 -61.5t-50 -43t-40.5 -16q-12 0 -15.5 5t-3.5 12q0 8 2.5 12t7.5 7q10 7 22 14.5t21.5 17.5t16 23.5t6.5 31.5q0 17 -9 27t-20 20t-19.5 22t-8.5 33q0 24 16 45t54 21q33 0 57 -23t24 -75z" />
    <glyph glyph-name="hyphen" unicode="-" horiz-adv-x="421" 
d="M54 210v79h293v-79h-293z" />
    <glyph glyph-name="hyphen" unicode="&#x2010;" horiz-adv-x="421" 
d="M54 210v79h293v-79h-293z" />
    <glyph glyph-name="hyphen" unicode="&#xad;" horiz-adv-x="421" 
d="M54 210v79h293v-79h-293z" />
    <glyph glyph-name="period" unicode="." horiz-adv-x="270" 
d="M205 56q0 -29 -20.5 -48t-49.5 -19t-48.5 19t-19.5 48t19.5 49.5t48.5 20.5t49.5 -20.5t20.5 -49.5z" />
    <glyph glyph-name="slash" unicode="/" horiz-adv-x="427" 
d="M51 -210l-61 27l364 926l64 -28z" />
    <glyph glyph-name="zero" unicode="0" 
d="M402 356q0 97 -7.5 158.5t-21.5 96t-34.5 47.5t-46.5 13t-46.5 -13t-34.5 -47.5t-21.5 -96t-7.5 -158.5t8.5 -159.5t23 -98.5t34.5 -50t44 -14q25 0 45.5 14.5t34.5 51t22 99t8 157.5zM536 356q0 -101 -24.5 -172.5t-61 -117t-79.5 -67t-79 -21.5q-47 0 -90.5 19.5
t-77.5 64t-54.5 116.5t-20.5 178q0 99 20.5 169.5t54.5 115t77.5 65.5t90.5 21t91 -16.5t78 -58.5t54.5 -114t20.5 -182z" />
    <glyph glyph-name="one" unicode="1" 
d="M434 33q0 -18 -17 -25.5t-34 -7.5h-139q-17 0 -34.5 7.5t-17.5 25.5q0 11 4.5 18t21.5 7t23 8t6 29v432q0 19 -12 28q-8 7 -28 4.5t-44 -11.5q-11 -5 -17 -3.5t-9 5t-3.5 9t-0.5 10.5q0 8 13 21.5t33.5 29.5t44.5 32t47 29q15 8 40 17.5t42 9.5t22 -15.5t5 -36.5v-561
q0 -16 6.5 -26.5t22.5 -10.5q17 0 21 -7t4 -18z" />
    <glyph glyph-name="two" unicode="2" 
d="M493 545q0 -33 -10 -61.5t-25 -52.5t-33.5 -44.5t-36.5 -36.5q-33 -30 -64 -56.5t-58.5 -50t-49.5 -45t-35 -42.5q-14 -20 -15.5 -30t-1.5 -15t6.5 -7t15 -2t18 0.5t15.5 0.5h113q40 0 61.5 9.5t41.5 29.5q14 14 21 17.5t14 3.5q12 0 14.5 -9t2.5 -18q0 -6 -3.5 -21.5
t-8.5 -42.5q-5 -25 -10.5 -39.5t-15 -21.5t-24 -9t-37.5 -2h-246q-30 0 -51.5 10t-21.5 39q0 35 27.5 80.5t67.5 93.5q25 30 44 48.5t37 36.5t37 42t46 65q13 20 19.5 52t6.5 61q0 75 -26.5 105t-68.5 30q-11 0 -26.5 -4.5t-29.5 -15.5t-24 -29t-10 -45q0 -22 6 -33t6 -26
q0 -14 -12 -30t-37 -16q-27 0 -45 18t-18 63q0 36 16 69t45 58t69 40t89 15q42 0 79 -10.5t65 -33t44.5 -56.5t16.5 -82z" />
    <glyph glyph-name="three" unicode="3" 
d="M510 194q0 -42 -17.5 -80.5t-50 -68.5t-80 -47.5t-107.5 -17.5q-48 0 -87 11t-66.5 30.5t-42.5 47t-15 60.5q0 38 13.5 56.5t45.5 18.5q16 0 26 -5.5t15 -13t7 -16t2 -14.5q3 -63 27 -88.5t75 -25.5q117 0 117 153q0 26 -6.5 51.5t-21.5 45.5t-38 32.5t-56 12.5
q-27 0 -40 -3.5t-29 -3.5q-11 0 -17 5t-6 23q0 19 6.5 27.5t16 11.5t21.5 2t24 -1h24q62 0 84 39.5t22 110.5q0 60 -27 89t-72 29q-32 0 -51 -9t-29 -22t-13 -26.5t-3 -23.5q0 -8 1 -13.5t2.5 -10.5t2.5 -10.5t1 -14.5q0 -19 -11.5 -31t-40.5 -12q-9 0 -18.5 3t-18 11.5
t-14 22.5t-5.5 37q0 31 15 60.5t43 51.5t66.5 35.5t86.5 13.5q33 0 71.5 -6.5t71.5 -25t55 -52t22 -87.5q0 -45 -16.5 -77.5t-40.5 -54.5t-51 -34t-48 -18v-4q43 -3 75.5 -19t54.5 -40t33.5 -54t11.5 -61z" />
    <glyph glyph-name="four" unicode="4" 
d="M330 515q0 12 0.5 23.5t0.5 21.5t-2.5 16t-8.5 6t-14.5 -6t-17 -14.5t-15.5 -17t-11 -14.5q-5 -6 -13.5 -18t-20 -28t-23.5 -36t-22 -41q-20 -39 -29.5 -67.5t-9.5 -42.5q0 -9 11 -9h19h156v227zM553 265q0 -26 -15 -42t-30 -16h-45v-112q2 -16 6 -26.5t12 -10.5
q18 0 22.5 -7t4.5 -18q0 -18 -17.5 -25.5t-34.5 -7.5h-120q-17 0 -34 7.5t-17 25.5q0 11 4 18t21 7q8 0 14 8t6 29v112h-230q-24 0 -33.5 11t-9.5 28q0 16 6 37.5t16 45t23 49t27 51.5q28 51 61 97.5t61 78.5q45 52 90.5 87t87.5 35q13 0 20 -4t10 -11t3.5 -17t0.5 -21v-385
h52q14 0 26 -1.5t12 -22.5z" />
    <glyph glyph-name="five" unicode="5" 
d="M522 222q0 -48 -18.5 -91.5t-52 -77t-79.5 -53.5t-101 -20q-54 0 -92 11.5t-62.5 31.5t-35.5 46t-11 56q0 29 15 52t44 23q16 0 26.5 -5t16 -12t7.5 -15.5t2 -14.5q0 -15 -0.5 -34t6.5 -36t24.5 -28.5t52.5 -11.5q59 0 89.5 45.5t30.5 123.5q0 46 -9.5 75.5t-25.5 47
t-38 24t-46 6.5q-18 0 -42 -7t-44 -17q-8 -5 -18.5 -10t-21.5 -5q-12 0 -21 7t-9 23q0 17 0.5 25t2.5 24l42 275q7 24 19.5 26t28.5 2h263q15 0 23 -2.5t11.5 -7t3.5 -9.5v-11q0 -11 -3.5 -25.5t-12 -28.5t-22 -23.5t-34.5 -9.5h-220l-30 -184q20 8 54 16.5t71 8.5
q48 0 87.5 -12t68 -37.5t44.5 -65t16 -95.5z" />
    <glyph glyph-name="six" unicode="6" 
d="M392 203q0 14 -2 45t-12 62t-31 54.5t-58 23.5q-29 0 -49 -9.5t-33 -23.5t-20 -29t-10 -26q-2 -74 9 -123.5t29 -79t40.5 -42t42.5 -12.5q25 0 43 16t29 40t16.5 52t5.5 52zM521 241q0 -69 -23 -118t-57.5 -81t-75 -47t-75.5 -15q-69 0 -114.5 26.5t-72.5 68.5
t-38.5 93.5t-11.5 101.5q0 82 16.5 148.5t44.5 117t64 87t75 60t78.5 34.5t72.5 11q43 0 43 -26q0 -15 -11.5 -23t-41.5 -13q-49 -9 -88 -36t-66 -64.5t-41.5 -81.5t-14.5 -87q12 13 25.5 24t30.5 19t38.5 13t51.5 5q39 0 74 -13.5t61 -40.5t41 -68t15 -95z" />
    <glyph glyph-name="seven" unicode="7" 
d="M529 687q0 -30 -10 -59t-23 -60l-217 -528q-6 -14 -17 -27t-26 -13h-49q-9 0 -21 1.5t-12 15.5q0 9 3 16.5t6 14.5l249 499q13 23 13 36q0 8 -11 8h-34h-118q-30 0 -50.5 -3.5t-35.5 -14.5q-18 -12 -27 -21.5t-21 -9.5q-14 0 -16 10.5t-2 20.5q0 6 2.5 20t6 29.5t8.5 31
t11 25.5q12 21 27 25t41 4h245q9 0 22.5 0.5t26 -0.5t21 -6t8.5 -15z" />
    <glyph glyph-name="eight" unicode="8" 
d="M412 204q0 25 -5 49.5t-17 43t-32.5 30t-51.5 11.5q-32 0 -53 -11t-33 -30t-17 -43t-5 -50q0 -28 3 -57.5t14.5 -53.5t33 -39t57.5 -15q37 0 58 15t31.5 39t13.5 53.5t3 57.5zM399 542q0 65 -21.5 97t-72.5 32q-46 0 -70.5 -34t-24.5 -95q0 -30 5.5 -56t17 -44.5
t29.5 -29.5t43 -11q50 0 72 39t22 102zM554 189q0 -48 -19.5 -86.5t-53 -64.5t-79 -40t-96.5 -14q-53 0 -98.5 12.5t-79.5 38t-53.5 64t-19.5 90.5q0 62 37.5 114t117.5 75q-21 9 -44.5 21.5t-44 32t-33.5 47.5t-13 68q0 44 18.5 78t50 56.5t73 34t88.5 11.5
q50 0 92.5 -11.5t73 -34t47.5 -56.5t17 -78q0 -39 -14.5 -68t-35.5 -49t-44.5 -33t-41.5 -19q44 -12 73.5 -32t47.5 -45.5t26 -54t8 -57.5z" />
    <glyph glyph-name="nine" unicode="9" 
d="M411 407q0 71 -6.5 120t-20 79.5t-34.5 44t-50 13.5q-31 0 -51 -16t-32 -40t-16.5 -52t-4.5 -52q0 -14 2 -45t12.5 -62t31 -54.5t58.5 -23.5q29 0 49 9.5t33 23.5t19.5 29t9.5 26zM535 435q0 -82 -17 -147.5t-45 -116.5t-64 -87.5t-75 -60t-77.5 -34.5t-71.5 -11
q-20 0 -31.5 6.5t-11.5 20.5q0 18 11 24.5t41 11.5q49 8 87 37.5t64.5 68.5t41.5 82.5t18 79.5q-23 -23 -57.5 -41.5t-88.5 -18.5q-40 0 -74.5 15t-60.5 43.5t-41 70.5t-15 97q0 61 20 108t54 79t77 48.5t90 16.5q67 0 111 -27t69.5 -69.5t35.5 -94.5t10 -101z" />
    <glyph glyph-name="colon" unicode=":" horiz-adv-x="270" 
d="M205 58q0 -29 -20.5 -48.5t-49.5 -19.5t-48.5 19.5t-19.5 48.5t19.5 49.5t48.5 20.5t49.5 -20.5t20.5 -49.5zM205 416q0 -29 -20.5 -48.5t-49.5 -19.5t-48.5 19.5t-19.5 48.5t19.5 49t48.5 20t49.5 -20t20.5 -49z" />
    <glyph glyph-name="semicolon" unicode=";" horiz-adv-x="207" 
d="M179 14q0 -38 -18 -72.5t-42.5 -61.5t-50 -43t-40.5 -16q-12 0 -15.5 5t-3.5 12q0 8 2.5 12t7.5 7q10 7 22 14.5t21.5 17.5t16 23.5t6.5 31.5q0 17 -9 27t-20 20t-19.5 22t-8.5 33q0 24 16 45t54 21q33 0 57 -23t24 -75zM175 416q0 -29 -20 -48.5t-48 -19.5
q-29 0 -49.5 19.5t-20.5 48.5t20.5 49t49.5 20q28 0 48 -20t20 -49z" />
    <glyph glyph-name="semicolon" unicode="&#x37e;" horiz-adv-x="207" 
d="M179 14q0 -38 -18 -72.5t-42.5 -61.5t-50 -43t-40.5 -16q-12 0 -15.5 5t-3.5 12q0 8 2.5 12t7.5 7q10 7 22 14.5t21.5 17.5t16 23.5t6.5 31.5q0 17 -9 27t-20 20t-19.5 22t-8.5 33q0 24 16 45t54 21q33 0 57 -23t24 -75zM175 416q0 -29 -20 -48.5t-48 -19.5
q-29 0 -49.5 19.5t-20.5 48.5t20.5 49t49.5 20q28 0 48 -20t20 -49z" />
    <glyph glyph-name="less" unicode="&#x3c;" horiz-adv-x="631" 
d="M511 43l-489 329l489 328l41 -66l-389 -263l389 -261z" />
    <glyph glyph-name="equal" unicode="=" horiz-adv-x="710" 
d="M76 246v80h544v-80h-544zM76 415v80h544v-80h-544z" />
    <glyph glyph-name="greater" unicode="&#x3e;" horiz-adv-x="631" 
d="M89 42l-39 68l388 261l-388 263l40 67l491 -330z" />
    <glyph glyph-name="question" unicode="?" horiz-adv-x="496" 
d="M266 51q0 -29 -20 -48t-49 -19t-49 19t-20 48t20 49.5t49 20.5t49 -20.5t20 -49.5zM442 580q0 -41 -10.5 -69.5t-26.5 -49.5t-35 -37.5t-36 -33.5q-9 -7 -21.5 -17.5t-25.5 -25t-25 -34t-19 -44.5q-6 -21 -7.5 -39t-3.5 -31.5t-7.5 -21t-19.5 -7.5t-21.5 6.5t-10.5 16.5
t-3.5 20.5t0.5 18.5q4 35 15 60.5t28 54.5q15 24 33 46t33.5 47.5t26 56.5t10.5 73q0 18 -3.5 36.5t-13.5 33t-27 24t-45 9.5q-21 0 -36 -7t-24.5 -17.5t-15 -21.5t-6.5 -20q-2 -17 -3.5 -34t-6 -30.5t-15.5 -22.5t-32 -9q-23 0 -37.5 16.5t-14.5 42.5q0 31 15 59t44 50
t73 35t102 13q45 0 77.5 -12.5t53.5 -33t31 -47t10 -54.5z" />
    <glyph glyph-name="at" unicode="@" horiz-adv-x="884" 
d="M544 370q0 37 -16 47.5t-38 10.5q-27 0 -51 -22.5t-41 -57.5t-27 -78t-10 -84q0 -78 43 -78q18 0 35 8.5t32 24t26.5 37.5t17.5 48l21 84q3 11 5.5 26t2.5 34zM866 358q0 -82 -29 -143t-71.5 -101.5t-90.5 -60.5t-86 -20q-45 0 -64 23.5t-21 62.5q-10 -14 -25 -28.5
t-34 -26.5t-41.5 -19.5t-46.5 -7.5q-51 0 -79 39t-28 103q0 66 23.5 120.5t59.5 93.5t79 61t83 22q30 0 54.5 -8.5t36.5 -31.5q26 27 40.5 30t23.5 3q10 0 14 -5t5 -12t-1 -14.5t-4 -13.5l-62 -288q-2 -10 -2 -25t7 -19.5t18 -4.5q28 0 57 18t53 52t39 82.5t15 109.5
q0 70 -20.5 128t-59 100t-94 65.5t-125.5 23.5q-96 0 -166 -34.5t-116.5 -92.5t-69 -133.5t-22.5 -157.5q0 -83 23 -157t68 -129.5t111.5 -88.5t153.5 -33q92 0 165 39.5t124 112.5q4 6 10 12.5t11 6.5q9 0 15 -3t6 -12q0 -8 -2.5 -12t-4.5 -9q-10 -21 -37 -52.5
t-70.5 -60.5t-102.5 -50t-133 -21q-89 0 -166 31.5t-133.5 90.5t-89 143.5t-32.5 191.5q0 103 38.5 188.5t101.5 146.5t144.5 94.5t167.5 33.5q92 0 163.5 -29t120 -77.5t73.5 -112.5t25 -134z" />
    <glyph glyph-name="A" unicode="A" horiz-adv-x="643" 
d="M318 597l-91 -275h165zM647 33q-2 -19 -17.5 -26t-36.5 -7h-133q-18 0 -34.5 7t-16.5 26q0 11 6 18t21 7q7 0 16 12.5t5 28.5l-48 161h-204l-54 -161q-3 -11 -3 -18q0 -15 6.5 -19t15.5 -4q14 0 20 -7t6 -18q0 -20 -16 -26.5t-37 -6.5h-89q-17 0 -32.5 7t-15.5 26
q0 11 4 18t21 7q11 0 22.5 14.5t19.5 34.5l192 505q0 16 -5.5 26t-12.5 10q-17 0 -22 7.5t-4 17.5q1 18 18 26.5t37 8.5h93q15 0 25.5 -5t18.5 -16t14.5 -28.5t14.5 -43.5l150 -510q5 -17 12.5 -32t15.5 -15q17 0 22 -7t5 -18z" />
    <glyph glyph-name="B" unicode="B" horiz-adv-x="657" 
d="M477 205q0 38 -12 64t-33 41.5t-50 22t-63 6.5h-77v-248q0 -14 6.5 -18.5t17.5 -4.5h88q59 0 91 35.5t32 101.5zM453 530q0 41 -13 63.5t-32.5 33.5t-42.5 13t-42 2q-42 0 -55 -3q-8 -1 -17 -7.5t-9 -27.5v-204h85q37 0 61.5 10.5t38.5 28t20 41t6 50.5zM627 207
q0 -63 -26 -103t-64.5 -63.5t-81 -32t-75.5 -8.5h-265q-17 0 -34.5 7.5t-17.5 25.5q0 11 5 18t22 7q7 0 13 8t6 29v516q0 23 -6 30.5t-13 7.5q-17 0 -22 7.5t-5 17.5q0 18 17 26t35 8h106q17 0 50 1t79 1q42 0 85.5 -3.5t79 -19.5t58.5 -47.5t23 -86.5q0 -43 -17 -74.5
t-40.5 -52.5t-49 -33t-42.5 -16v-4q33 -3 65 -16t57.5 -34.5t41.5 -50.5t16 -65z" />
    <glyph glyph-name="C" unicode="C" horiz-adv-x="635" 
d="M619 143q0 -20 -22.5 -49.5t-61.5 -58.5q-44 -32 -89 -42t-87 -10q-54 0 -108 18.5t-97 62t-70 115t-27 177.5q0 85 25 154t69 117t105 74t132 26q39 0 78.5 -9t76.5 -29q32 -18 49.5 -43.5t17.5 -61.5q0 -55 -16 -76.5t-35 -21.5q-12 0 -19.5 7.5t-13.5 19t-11.5 25.5
t-12.5 26q-17 30 -31.5 49.5t-30 30.5t-33.5 15t-42 4q-33 0 -63 -16t-53.5 -50.5t-37 -89t-13.5 -131.5q0 -79 13 -137.5t35 -95.5q15 -26 33 -41.5t36.5 -23.5t37 -10.5t34.5 -2.5q28 0 52 8t43.5 20t34.5 26.5t26 26.5q17 19 25 25.5t19 6.5q21 0 26.5 -12t5.5 -23z" />
    <glyph glyph-name="D" unicode="D" horiz-adv-x="738" 
d="M555 376q0 52 -9.5 100.5t-34.5 86.5t-69 61t-113 23q-28 0 -45 -1.5t-26.5 -6t-12.5 -12.5t-3 -21v-474q0 -23 4 -35.5t15 -18.5t30 -7t49 -1q49 0 88.5 17t67.5 53.5t43.5 94.5t15.5 141zM698 376q0 -79 -20 -137.5t-51.5 -100.5t-72 -68.5t-81 -42t-78.5 -21.5t-65 -6
h-215q-17 0 -34.5 7.5t-17.5 25.5q0 11 5 18t22 7q7 0 13 10t6 27v516q0 17 -6 27.5t-13 10.5q-17 0 -22 7.5t-5 17.5q0 18 17.5 26t34.5 8h220q29 0 67 -2.5t78.5 -12.5t79.5 -30.5t69.5 -57.5t49.5 -93t19 -136z" />
    <glyph glyph-name="E" unicode="E" horiz-adv-x="579" 
d="M563 156q0 -17 -6.5 -40.5t-15.5 -50.5q-7 -20 -12 -33t-11.5 -21t-16 -11.5t-24.5 -3.5q-16 0 -41.5 2t-68.5 2h-252q-17 0 -34.5 7.5t-17.5 25.5q0 11 5 18t22 7q7 0 13 10t6 27v516q0 23 -6 30.5t-13 7.5q-17 0 -22 7.5t-5 17.5q0 18 17.5 26t34.5 8h304q20 0 36.5 1
t31.5 1q47 0 47 -40v-31.5t-4 -46.5q-3 -24 -7.5 -38.5t-10 -22t-11 -10t-10.5 -2.5q-10 0 -16 9.5t-10.5 23t-9.5 29.5t-14 30q-8 13 -20.5 19t-28.5 8.5t-35 2.5h-40h-51q-17 0 -20.5 -9t-3.5 -21v-215l148 9q9 0 22 1.5t18 1.5q16 0 22.5 -6.5t6.5 -27.5t-13.5 -35
t-30.5 -14q-19 0 -45.5 3t-52.5 5q-11 1 -24 1.5t-24 1.5q-13 1 -27 1v-247q0 -15 10.5 -19t30.5 -4h69t49 5q16 4 28.5 10t25 16t25.5 25t29 39q11 16 17.5 20.5t14.5 4.5q10 0 14.5 -3t6 -8t1.5 -10.5v-9.5z" />
    <glyph glyph-name="F" unicode="F" horiz-adv-x="518" 
d="M514 670v-31t-4 -47q-3 -24 -7.5 -38.5t-10 -22t-11 -10t-10.5 -2.5q-10 0 -16 9.5t-10.5 23t-9 29.5t-13.5 30q-8 13 -21 19.5t-29 8.5t-34.5 2h-39.5h-32q-17 0 -20.5 -8t-3.5 -22v-215l148 10q9 0 22 1.5t18 1.5q16 0 22.5 -6t6.5 -28q0 -21 -13.5 -35t-30.5 -14
q-19 0 -45.5 3t-52.5 5q-11 1 -24 1.5t-24 1.5q-13 1 -27 1v-243q0 -16 5 -26.5t13 -10.5q18 0 22.5 -7t4.5 -18q0 -18 -17.5 -25.5t-34.5 -7.5h-120q-17 0 -34.5 7.5t-17.5 25.5q0 11 5 18t22 7q7 0 13 8t6 29v516q0 23 -6 30.5t-13 7.5q-17 0 -22 7.5t-5 17.5
q0 20 17.5 27t34.5 7h284q20 0 37 1t32 1q46 0 46 -40z" />
    <glyph glyph-name="G" unicode="G" horiz-adv-x="685" 
d="M668 289q0 -12 -5.5 -18t-22.5 -9q-8 -2 -13.5 -10t-5.5 -26v-59q0 -17 6 -26t6 -23q0 -12 -5.5 -20.5t-16.5 -17.5q-12 -11 -34 -27.5t-54 -32t-73 -26.5t-92 -11q-44 0 -96 18t-98 61t-76.5 114.5t-30.5 179.5q0 85 25 154t69 117t105 74t132 26q39 0 83.5 -9t80.5 -29
q32 -18 49.5 -43.5t17.5 -61.5q0 -55 -16 -76.5t-34 -21.5q-12 0 -20 7.5t-14 19t-11.5 25.5t-12.5 26q-17 30 -33 49.5t-33 30.5t-36.5 15t-43.5 4q-35 0 -65.5 -16t-53 -50.5t-35.5 -89t-13 -131.5q0 -93 19 -154.5t48 -98t64 -51t68 -14.5q48 0 73.5 13t25.5 37v118
q0 12 -5.5 23t-20.5 13q-17 2 -20.5 10.5t-3.5 16.5q0 18 16 24.5t35 6.5h116q18 0 36.5 -6.5t18.5 -24.5z" />
    <glyph glyph-name="H" unicode="H" horiz-adv-x="725" 
d="M680 33q0 -18 -17.5 -25.5t-33.5 -7.5h-120q-17 0 -34.5 7.5t-17.5 25.5q0 11 4.5 18t21.5 7q8 0 13.5 8t5.5 29v245h-260v-245q0 -21 5 -29t13 -8q18 0 22.5 -7t4.5 -18q0 -18 -17.5 -25.5t-34.5 -7.5h-120q-17 0 -34.5 7.5t-17.5 25.5q0 11 5 18t22 7q7 0 13 10t6 27
v516q0 23 -6 30.5t-13 7.5q-17 0 -22 7.5t-5 17.5q0 18 17.5 26t34.5 8h120q17 0 34.5 -8t17.5 -26q0 -10 -4.5 -17.5t-22.5 -7.5q-8 0 -13 -7.5t-5 -30.5v-210h260v210q0 23 -5.5 30.5t-13.5 7.5q-17 0 -21.5 7.5t-4.5 17.5q0 18 17.5 26t34.5 8h120q16 0 33.5 -8t17.5 -26
q0 -10 -4.5 -17.5t-22.5 -7.5q-7 0 -12.5 -7.5t-5.5 -30.5v-516q0 -16 5.5 -26.5t12.5 -10.5q18 0 22.5 -7t4.5 -18z" />
    <glyph glyph-name="I" unicode="I" horiz-adv-x="334" 
d="M287 33q0 -18 -17.5 -25.5t-34.5 -7.5h-120q-17 0 -34.5 7.5t-17.5 25.5q0 11 5 18t22 7q7 0 13 10t6 27v516q0 23 -6 30.5t-13 7.5q-17 0 -22 7.5t-5 17.5q0 18 17.5 26t34.5 8h120q17 0 34.5 -8t17.5 -26q0 -10 -4.5 -17.5t-22.5 -7.5q-8 0 -13 -7.5t-5 -30.5v-516
q0 -21 5 -29t13 -8q18 0 22.5 -7t4.5 -18z" />
    <glyph glyph-name="J" unicode="J" horiz-adv-x="350" 
d="M307 674q0 -10 -4.5 -17.5t-21.5 -7.5q-8 0 -13.5 -7.5t-5.5 -30.5v-354q0 -40 -9 -86t-23.5 -91t-33.5 -86t-39 -69q-14 -20 -31.5 -39t-36.5 -33.5t-39 -23.5t-38 -9q-4 0 -12.5 1t-17.5 6t-16 16.5t-7 32.5q0 37 15.5 52.5t37.5 15.5q14 0 25 -2t29 -2q24 0 38 14.5
t22 37.5t10.5 50t2.5 53q0 57 -5 113t-5 104v299q0 23 -5.5 30.5t-13.5 7.5q-17 0 -21.5 7.5t-4.5 17.5q0 18 17 26t34 8h120q17 0 34.5 -8t17.5 -26z" />
    <glyph glyph-name="K" unicode="K" horiz-adv-x="661" 
d="M643 44q0 -24 -22.5 -38.5t-59.5 -14.5q-20 0 -34 4.5t-24.5 11t-17 14t-10.5 12.5q-11 15 -27.5 40t-35 53.5t-36.5 56t-31 47.5q-20 30 -34.5 50.5t-24.5 33t-17 19.5t-13 10l-14 -5v-243q0 -21 5 -29t13 -8q18 0 22.5 -7t4.5 -18q0 -18 -17.5 -25.5t-34.5 -7.5h-120
q-17 0 -34.5 7.5t-17.5 25.5q0 11 5 18t22 7q7 0 13 10t6 27v516q0 23 -6 30.5t-13 7.5q-17 0 -22 7.5t-5 17.5q0 18 17.5 26t34.5 8h120q17 0 34.5 -8t17.5 -26q0 -10 -4.5 -17.5t-22.5 -7.5q-8 0 -13 -7.5t-5 -30.5v-223q18 11 54 36t72.5 57.5t64 70t27.5 72.5
q0 14 -4 20t-8.5 9.5t-8 7t-3.5 13.5q0 18 17.5 26t35.5 8h72q22 0 36.5 -8t14.5 -26q0 -10 -5 -19t-13 -19t-19.5 -22.5t-24.5 -28.5q-36 -45 -77.5 -86.5t-102.5 -89.5q15 -17 37 -48.5t51 -72.5q29 -43 62.5 -90.5t61.5 -82.5q12 -14 23 -23.5t19.5 -17t13.5 -14.5t5 -16
z" />
    <glyph glyph-name="L" unicode="L" horiz-adv-x="574" 
d="M564 156q0 -17 -6.5 -40.5t-15.5 -50.5q-7 -20 -12 -33t-11.5 -21t-16 -11.5t-24.5 -3.5q-16 0 -41.5 2t-68.5 2h-253q-18 0 -35.5 7.5t-17.5 25.5q0 11 5 18t22 7q8 0 14 8t6 29v516q0 23 -6 30.5t-13 7.5q-17 0 -22 7.5t-5 17.5q0 18 17.5 26t34.5 8h120q17 0 34.5 -8
t17.5 -26q0 -10 -4.5 -17.5t-22.5 -7.5q-8 0 -13 -7.5t-5 -30.5v-523q0 -14 11 -17.5t31 -3.5h69t49 5q16 4 28.5 10t25 16t25.5 25t29 39q11 16 17.5 20.5t14.5 4.5q10 0 14.5 -3t6 -8t1.5 -10.5v-9.5z" />
    <glyph glyph-name="M" unicode="M" horiz-adv-x="933" 
d="M890 33q0 -18 -17.5 -25.5t-34.5 -7.5h-120q-17 0 -34 7.5t-17 25.5q0 11 4 18t21 7q8 0 13.5 10t5.5 27v463l-218 -513q-3 -9 -7.5 -18.5t-10 -17.5t-12.5 -13.5t-16 -5.5q-20 -1 -29 13.5t-17 33.5l-228 522l6 -458q0 -25 7 -34t14 -9q18 0 21 -7t3 -18q0 -19 -17 -26
t-37 -7h-68q-17 0 -33 7t-16 26q0 11 6 18t24 7q16 0 16 43l6 509q0 21 -6 29t-13 8q-18 0 -22.5 7.5t-4.5 17.5q0 19 17.5 27.5t37.5 8.5h114q13 0 21.5 -3t13.5 -8.5t8 -13t6 -16.5l204 -492l210 500q1 3 4.5 9t9.5 11t16.5 9t25.5 4h87q21 0 38 -8.5t17 -26.5
q0 -10 -5.5 -17.5t-22.5 -7.5q-8 0 -12 -11t-4 -27v-515q0 -21 5 -29t13 -8q18 0 22.5 -7t4.5 -18z" />
    <glyph glyph-name="N" unicode="N" horiz-adv-x="734" 
d="M689 674q0 -10 -6 -17.5t-23 -7.5t-17 -43l-12 -565q0 -21 -7.5 -35t-26.5 -14q-22 0 -35.5 16.5t-24.5 32.5l-368 515l9 -455q1 -25 7.5 -34t13.5 -9q18 0 21 -7t3 -18q0 -19 -17 -26t-37 -7h-68q-17 0 -33 7t-16 26q0 11 6 18t24 7q16 0 16 43l7 509q0 17 -6.5 27
t-13.5 10q-17 0 -22 7.5t-5 17.5q0 19 17.5 27.5t37.5 8.5h91q23 0 33 -12t13 -17l318 -448l-5 375q-1 26 -7.5 34.5t-12.5 8.5q-19 0 -22 7.5t-3 17.5q0 20 17.5 27t37.5 7h67q17 0 33 -7t16 -27z" />
    <glyph glyph-name="O" unicode="O" horiz-adv-x="721" 
d="M540 302q0 183 -41 271.5t-138 88.5q-42 0 -72.5 -19.5t-50 -53.5t-28.5 -80t-9 -100q0 -185 47 -273t130 -88q43 0 73.5 19t50 53t29 80.5t9.5 101.5zM681 370q0 -90 -23 -162t-65 -122t-101 -76.5t-131 -26.5q-62 0 -117 23.5t-96 69t-64.5 114t-23.5 158.5
q0 95 23.5 166t65.5 118.5t100.5 71t128.5 23.5q62 0 117 -20t96.5 -63t65.5 -110.5t24 -163.5z" />
    <glyph glyph-name="P" unicode="P" horiz-adv-x="634" 
d="M467 507q0 33 -5.5 59t-22 44t-47 27.5t-81.5 9.5q-34 0 -51.5 -5t-17.5 -29v-233q0 -8 7.5 -13.5t20 -9.5t28 -5.5t30.5 -1.5q72 0 105.5 41.5t33.5 115.5zM608 516q0 -35 -13 -74.5t-43 -73.5t-80.5 -56t-125.5 -22q-25 0 -43.5 2.5t-32.5 6.5q-16 4 -28 9v-213
q0 -21 5 -29t13 -8q18 0 22.5 -7t4.5 -18q0 -18 -17.5 -25.5t-34.5 -7.5h-120q-17 0 -34.5 7.5t-17.5 25.5q0 11 5 18t22 7q7 0 13 10t6 27v516q0 23 -6 30.5t-13 7.5q-17 0 -22 7.5t-5 17.5q0 18 17.5 26t34.5 8h239q25 0 53.5 -1t57 -7t54 -17.5t45.5 -33t32 -54t12 -79.5
z" />
    <glyph glyph-name="Q" unicode="Q" horiz-adv-x="710" 
d="M528 302q0 86 -9 153t-29.5 113t-54 70t-82.5 24q-42 0 -71.5 -20.5t-48 -55.5t-27 -81t-8.5 -96q0 -84 10 -151t31 -113.5t53.5 -71.5t77.5 -25q9 0 14 0.5t13 3.5q-16 17 -25.5 26.5t-9.5 19.5q0 12 9 18t30 6q13 0 22.5 -1.5t17 -4.5t15 -8t16.5 -12q12 10 22.5 32
t18 50.5t11.5 60.5t4 63zM669 370q0 -119 -37 -201.5t-100 -132.5q14 -15 28.5 -30t18.5 -20q21 -22 37 -33.5t27 -18.5t16.5 -11.5t5.5 -12.5q0 -19 -21 -29t-53 -10q-24 0 -43 9t-34 22t-26.5 28.5t-20.5 29.5l-24 34q-42 -11 -90 -11q-62 0 -116 23.5t-94 69t-63 114
t-23 158.5q0 91 22 161.5t62.5 119t98.5 73.5t130 25q62 0 116.5 -23t95 -68.5t64 -112t23.5 -153.5z" />
    <glyph glyph-name="R" unicode="R" horiz-adv-x="653" 
d="M467 507q0 36 -6 62t-23 43.5t-47.5 26t-79.5 8.5q-34 0 -51.5 -5t-17.5 -29v-216q0 -12 7.5 -19t20 -10.5t28 -4t31.5 -0.5q63 0 100.5 36t37.5 108zM645 39q0 -12 -7 -20.5t-18 -14.5t-25 -9t-28 -3q-27 0 -45.5 6t-34 20t-31.5 37t-38 58l-122 193l-54 6v-217
q0 -21 5 -29t13 -8q18 0 22.5 -7t4.5 -18q0 -18 -17.5 -25.5t-34.5 -7.5h-120q-17 0 -34.5 7.5t-17.5 25.5q0 11 5 18t22 7q7 0 13 10t6 27v516q0 23 -6 30.5t-13 7.5q-17 0 -22 7.5t-5 17.5q0 18 17.5 26t34.5 8h239q39 0 83.5 -3t82.5 -20t63 -54t25 -105q0 -48 -16.5 -84
t-43 -60.5t-58.5 -39.5t-62 -21l134 -190q17 -24 32 -36.5t26.5 -21t18 -15.5t6.5 -19z" />
    <glyph glyph-name="S" unicode="S" horiz-adv-x="612" 
d="M572 195q0 -44 -20 -83.5t-57.5 -68.5t-90 -46t-116.5 -17q-59 0 -103.5 11t-74.5 29t-45 41.5t-15 48.5q0 49 15 77.5t44 28.5q11 0 18 -8t11.5 -19t7 -23t4.5 -19q15 -45 49.5 -74.5t94.5 -29.5q43 0 71.5 11t45.5 28.5t23.5 37.5t6.5 38q0 24 -6.5 40.5t-17 28.5
t-23.5 20l-26 16q-27 15 -75 40t-102 52q-27 14 -51 32t-42 40.5t-28.5 49.5t-10.5 58q0 56 22 93t57.5 59t80.5 31t91 9q28 0 70 -6t82 -20q38 -13 50.5 -36.5t12.5 -63.5q0 -41 -13.5 -63.5t-33.5 -22.5q-12 0 -20 11.5t-15.5 28t-17 36.5t-25.5 36.5t-40.5 28t-61.5 11.5
q-31 0 -51.5 -8.5t-33 -22t-18 -31.5t-5.5 -36q0 -8 0.5 -17.5t5 -20.5t13.5 -23.5t26 -24.5q26 -20 62.5 -38t75 -36t75 -38t63.5 -42q33 -28 47 -58.5t14 -75.5z" />
    <glyph glyph-name="T" unicode="T" horiz-adv-x="616" 
d="M587 654q0 -65 -11 -100t-33 -35q-10 0 -15.5 9t-9.5 22.5t-7.5 29t-9.5 27.5q-5 10 -12 16.5t-17.5 10.5t-26.5 5.5t-38 1.5h-28v-546q0 -21 5.5 -29t12.5 -8q18 0 22.5 -7t4.5 -18q0 -18 -17.5 -25.5t-34.5 -7.5h-120q-17 0 -34 7.5t-17 25.5q0 11 4.5 18t21.5 7
q8 0 13.5 10t5.5 27v546h-28q-45 0 -64.5 -7t-29.5 -27q-6 -12 -9.5 -27.5t-7.5 -29t-9.5 -22.5t-15.5 -9q-23 0 -33.5 35t-10.5 100q0 20 3.5 31.5t9 17t12.5 7t14 1.5q14 0 31.5 -1.5t38.5 -1.5h331q21 0 38.5 1.5t31.5 1.5q7 0 14 -1.5t12.5 -7t9 -17t3.5 -31.5z" />
    <glyph glyph-name="U" unicode="U" horiz-adv-x="707" 
d="M670 674q0 -10 -4.5 -17.5t-22.5 -7.5q-8 0 -13.5 -14t-5.5 -30v-386q0 -62 -22.5 -107t-58 -74.5t-80 -43.5t-88.5 -14q-51 0 -99 11t-85 40.5t-59.5 81.5t-22.5 134v364q0 23 -6 30.5t-13 7.5q-17 0 -22 7.5t-5 17.5q0 18 17.5 26t34.5 8h120q17 0 34.5 -8t17.5 -26
q0 -10 -4.5 -17.5t-22.5 -7.5q-8 0 -13 -7.5t-5 -30.5v-321q0 -57 5 -102.5t20.5 -77.5t44.5 -49t77 -17q55 0 86.5 25.5t47 59.5t19 68t3.5 51v357q0 19 -6 31.5t-14 12.5q-17 0 -21 7.5t-4 17.5q0 18 16.5 25.5t33.5 7.5h67q22 0 37.5 -7.5t15.5 -25.5z" />
    <glyph glyph-name="V" unicode="V" horiz-adv-x="659" 
d="M643 674q0 -10 -5 -17.5t-22 -7.5q-11 0 -19 -9t-19 -38l-204 -552q-13 -35 -25.5 -53.5t-38.5 -18.5q-19 0 -29 15.5t-20 45.5l-189 563q-9 29 -18.5 38t-17.5 9q-14 0 -18.5 7.5t-4.5 17.5q0 18 18 26t35 8h144q16 0 33.5 -8t17.5 -26q0 -10 -4.5 -17.5t-21.5 -7.5
q-6 0 -13.5 -4t-7.5 -16q0 -14 11 -47l127 -412l141 415q11 32 11 44t-5.5 15.5t-12.5 3.5q-11 0 -17.5 7.5t-6.5 18.5q0 18 18 26t35 8h76q22 0 37 -8t15 -26z" />
    <glyph glyph-name="W" unicode="W" horiz-adv-x="927" 
d="M916 674q0 -11 -5 -18t-21 -7q-9 0 -18.5 -10.5t-17.5 -36.5l-152 -551q-6 -22 -11.5 -35.5t-12 -21.5t-14 -11t-17.5 -3q-19 0 -28 17.5t-17 43.5l-146 458l-154 -448q-25 -71 -59 -71q-20 0 -28 17t-14 43l-126 554q-6 27 -15 41t-16 14q-17 0 -21.5 7.5t-4.5 17.5
q0 18 17.5 26t34.5 8h141q17 0 34.5 -8t17.5 -26q0 -10 -4.5 -17.5t-21.5 -7.5q-5 0 -14.5 -4.5t-9.5 -16.5q0 -10 2.5 -25t5.5 -30l69 -337l160 419q11 30 20 41.5t31 11.5q11 0 18.5 -2t13 -7.5t10 -16t9.5 -27.5l134 -419l92 373q1 5 2.5 10.5t1.5 13.5q0 10 -4.5 13
t-9.5 3q-16 0 -20.5 7t-4.5 18q0 18 15.5 26t34.5 8h76q20 0 33.5 -8t13.5 -26z" />
    <glyph glyph-name="X" unicode="X" horiz-adv-x="627" 
d="M610 33q0 -18 -18 -25.5t-35 -7.5h-156q-16 0 -31.5 7.5t-15.5 25.5q0 11 4.5 18t21.5 7q5 0 8.5 3t3.5 13q0 12 -7 24l-93 182l-97 -167q-8 -13 -13 -21.5t-5 -17.5q0 -7 3.5 -13t9.5 -6q20 0 20 -22q0 -17 -15 -25t-36 -8h-86q-9 0 -18.5 1t-18 5t-14 10t-5.5 17t8 18
t22 7q9 0 21.5 13.5t27.5 35.5l160 234l-156 269q-11 20 -21 29.5t-22 9.5q-18 0 -22.5 7.5t-4.5 17.5q0 18 17.5 26t34.5 8h166q17 0 34 -8t17 -26q0 -10 -4.5 -17.5t-21.5 -7.5q-6 0 -13.5 -4t-7.5 -16q0 -6 1.5 -13t3.5 -11l80 -155l96 160q4 6 8 12.5t4 15.5
q0 11 -13 11q-17 0 -21 7t-4 18q0 18 16.5 26t33.5 8h86q22 0 37.5 -8t15.5 -26q0 -8 -5.5 -16.5t-21.5 -8.5q-11 0 -19.5 -10.5t-25.5 -33.5l-152 -215l157 -268q18 -32 29 -48t25 -16q17 0 22 -7t5 -18z" />
    <glyph glyph-name="Y" unicode="Y" horiz-adv-x="598" 
d="M594 674q0 -11 -5 -18t-22 -7q-8 0 -19.5 -15.5t-19.5 -32.5l-158 -331v-175q0 -19 5.5 -28t13.5 -9q17 0 21.5 -7t4.5 -18q0 -19 -17 -26t-34 -7h-122q-17 0 -34.5 7t-17.5 26q0 11 4 18t21 7q8 0 14.5 9.5t6.5 27.5v168l-149 339q-9 20 -18 33.5t-20 13.5
q-15 0 -20.5 7.5t-5.5 17.5q0 18 16 26t35 8h128q21 0 36 -8t15 -26q0 -10 -4.5 -17.5t-18.5 -7.5q-7 0 -7 -11q0 -6 2 -12.5t5 -15.5l104 -280l116 280q4 11 4 22q0 17 -14 17q-13 0 -19.5 7t-6.5 18q0 18 17.5 26t34.5 8h76q21 0 36.5 -8t15.5 -26z" />
    <glyph glyph-name="Z" unicode="Z" horiz-adv-x="565" 
d="M540 156q0 -17 -6.5 -40.5t-16.5 -50.5q-7 -20 -12 -33t-11.5 -21t-15.5 -11.5t-24 -3.5q-17 0 -42 2t-69 2h-239q-9 0 -19 0.5t-18.5 4t-13.5 11.5t-5 22q0 23 7 36t18 33l315 534h-81q-16 0 -34.5 1t-37.5 -0.5t-37 -8.5t-31 -22q-12 -13 -18 -31t-11 -34t-11 -27.5
t-17 -11.5q-13 0 -20.5 13.5t-11 32.5t-4.5 39.5t-1 34.5q0 16 -0.5 31.5t2 27.5t8.5 19t19 7q12 0 19 -0.5t13.5 -1.5t13.5 -1.5t19 -0.5h305q24 0 40 -3.5t16 -24.5q0 -29 -6.5 -43.5t-17.5 -31.5l-316 -537q25 0 54 -0.5t55.5 -0.5t48 1t32.5 4q17 4 30 10t25 16t24.5 25
t28.5 39q11 16 17 20.5t14 4.5q20 0 21.5 -11t1.5 -20z" />
    <glyph glyph-name="bracketleft" unicode="[" horiz-adv-x="350" 
d="M84 -195v922h216v-61h-99v-800h99v-61h-216z" />
    <glyph glyph-name="backslash" unicode="\" horiz-adv-x="427" 
d="M355 -210l-366 925l63 28l366 -926z" />
    <glyph glyph-name="bracketright" unicode="]" horiz-adv-x="350" 
d="M35 -195v61h99v800h-99v61h216v-922h-216z" />
    <glyph glyph-name="asciicircum" unicode="^" horiz-adv-x="496" 
d="M369 449l-133 182q-10 -13 -21 -28q-10 -13 -22 -29.5t-24 -33.5q-29 -40 -66 -91h-70l203 282l204 -282h-71z" />
    <glyph glyph-name="underscore" unicode="_" horiz-adv-x="544" 
d="M-9 -194v57h536v-57h-536z" />
    <glyph glyph-name="grave" unicode="`" horiz-adv-x="295" 
d="M169 523l-112 117q-15 17 -15 42q0 20 12.5 35.5t44.5 15.5q17 0 30 -10t21 -35l59 -165h-40z" />
    <glyph glyph-name="a" unicode="a" horiz-adv-x="479" 
d="M285 251l-30 -14q-54 -25 -77 -49.5t-23 -66.5q0 -23 13.5 -39.5t36.5 -16.5q15 0 29.5 9t26 22.5t18 30t6.5 32.5v92zM450 32q0 -17 -17.5 -29t-46.5 -12q-10 0 -25 0.5t-30 7t-28 22t-18 44.5q-6 -9 -18 -22.5t-29.5 -26t-41 -21t-53.5 -8.5q-19 0 -39 5t-36.5 17.5
t-27 35t-10.5 57.5q0 28 7.5 49.5t24 39t42.5 32t63 28.5q17 7 37.5 15t38.5 17t30 19t12 22v45q0 39 -10.5 53.5t-28.5 14.5q-28 0 -51 -10q-20 -11 -34 -26.5t-26 -42.5q-10 -23 -16.5 -36t-22.5 -13q-12 0 -18.5 7t-10.5 19t-5 27t-1 30q0 26 7.5 42.5t26.5 26.5
q14 8 40 13t60 11q26 5 49 8t48 3q21 0 42 -4.5t37.5 -17.5t27 -35t10.5 -58v-291q0 -15 4 -26t11 -13q10 -2 18 -5.5t8 -13.5z" />
    <glyph glyph-name="b" unicode="b" horiz-adv-x="549" 
d="M388 238q0 37 -4 72t-14.5 62t-30 43t-49.5 16q-27 0 -45 -12t-28.5 -30t-14.5 -39t-4 -39v-149q0 -57 24.5 -85t59.5 -28q53 0 79.5 49t26.5 140zM519 257q0 -54 -13.5 -102.5t-40.5 -85.5t-67.5 -58.5t-93.5 -21.5q-38 0 -69.5 12t-52.5 42q-15 -26 -37.5 -38.5
t-42.5 -12.5q-14 0 -23 6.5t-9 31.5q0 10 2 25t2 43v524q0 15 -4 24.5t-12 9.5q-17 0 -21 7.5t-4 16.5q0 20 17 29t34 9h86q17 0 22.5 -19.5t5.5 -39.5v-212q27 26 61 38.5t74 12.5q93 0 139.5 -64t46.5 -177z" />
    <glyph glyph-name="c" unicode="c" horiz-adv-x="464" 
d="M444 105q0 -17 -12.5 -37t-37 -37.5t-60 -29.5t-81.5 -12q-54 0 -94.5 18.5t-67.5 52t-41 80t-14 103.5q0 70 21.5 119t55.5 79t75.5 43.5t80.5 13.5q28 0 63.5 -4t63.5 -18q20 -9 27 -20.5t7 -30.5q0 -11 -3 -26t-9 -28.5t-15.5 -23.5t-21.5 -10q-15 0 -23 17t-18 38
t-26 38t-47 17q-48 0 -73.5 -51t-25.5 -148q0 -41 7 -77t21 -62.5t36.5 -41.5t53.5 -15q26 0 49.5 14.5t40.5 38.5q7 11 15.5 19t22.5 8q13 0 21.5 -8t8.5 -19z" />
    <glyph glyph-name="d" unicode="d" horiz-adv-x="550" 
d="M361 355q0 11 -4.5 25.5t-15 28t-28 22.5t-43.5 9q-54 0 -77.5 -48.5t-23.5 -156.5q0 -50 7 -84t20 -54t30 -28.5t38 -8.5q25 0 43.5 9.5t30.5 24.5t17.5 32.5t5.5 34.5v194zM521 34q0 -16 -15.5 -25t-33.5 -9h-47q-23 0 -38.5 14.5t-17.5 45.5q-6 -10 -19 -22t-31 -23
t-40.5 -18.5t-48.5 -7.5q-48 0 -84.5 18t-60.5 50t-36 76t-12 95q0 73 17 124.5t46 84t67 47t80 14.5q38 0 67.5 -9t44.5 -25v158q0 15 -4.5 24.5t-11.5 9.5q-16 0 -21 7.5t-5 16.5q0 20 17.5 29t34.5 9h88q18 0 23 -17.5t5 -41.5v-568q0 -35 11 -35q16 0 20.5 -6.5
t4.5 -15.5z" />
    <glyph glyph-name="e" unicode="e" horiz-adv-x="477" 
d="M328 330q0 22 -4.5 42t-14 35t-24 24t-35.5 9q-30 0 -47.5 -15.5t-26 -36.5t-11 -43.5t-2.5 -36.5q0 -8 3 -9.5t7 -1.5h124q11 0 21 6.5t10 26.5zM452 298q0 -27 -10.5 -40.5t-43.5 -13.5h-235q0 -91 29 -141.5t86 -50.5q29 0 54.5 13.5t42.5 39.5q7 11 16 20t23 9
q15 0 22 -9t7 -20q0 -23 -25.5 -50.5t-73.5 -48.5q-21 -10 -43 -13.5t-55 -3.5q-57 0 -97.5 20.5t-66 55t-37 79.5t-11.5 94q0 76 20 126t52 80t71.5 42t77.5 12q41 0 77 -11.5t62.5 -35.5t42 -62t15.5 -91z" />
    <glyph glyph-name="f" unicode="f" horiz-adv-x="352" 
d="M369 701q0 -29 -8 -50.5t-36 -21.5q-13 0 -21 7t-15.5 16t-16 16t-22.5 7q-19 0 -31 -16t-12 -66q0 -19 0.5 -31.5t1 -21.5t1 -17.5t0.5 -20.5v-18h88q20 0 23.5 -4t3.5 -14q0 -14 -12.5 -30.5t-40.5 -16.5h-62v-332q0 -31 15 -31q17 0 21 -6.5t4 -15.5q0 -34 -48 -34
h-108q-48 0 -48 34q0 9 3.5 15.5t20.5 6.5t17 31v332h-51q-5 0 -12.5 1.5t-7.5 12.5q0 20 10.5 35.5t40.5 15.5h20v27q0 39 5.5 67t14 47t19 32t21.5 22q5 4 19 14.5t35 21t49 18.5t60 8q5 0 15 -1.5t19.5 -5.5t17 -12t7.5 -21z" />
    <glyph glyph-name="g" unicode="g" horiz-adv-x="533" 
d="M397 -112q0 26 -10 40t-27.5 20t-40 7.5t-46.5 1.5q-35 1 -57.5 1.5t-37 1t-24 2.5t-19.5 6q-9 -8 -18 -25.5t-9 -45.5q0 -45 34 -68.5t108 -23.5q19 0 44.5 3.5t48 12.5t38.5 25t16 42zM350 307q0 64 -20 103t-72 39q-25 0 -41.5 -12.5t-27 -32t-15 -44.5t-4.5 -49
t5 -47.5t15.5 -42t28 -30t42.5 -11.5q51 0 70 32t19 95zM533 480q0 -14 -7.5 -21.5t-21 -13t-32 -9.5t-41.5 -10q6 -5 13.5 -15t14.5 -24.5t12 -33.5t5 -42q0 -39 -17.5 -72t-47 -57t-68.5 -38t-82 -14h-18q-11 0 -25.5 -1t-27 -5t-21 -11.5t-8.5 -20.5q0 -12 13 -19t34 -10
t47.5 -3.5t53.5 -0.5q42 0 80 -3t67.5 -16t47 -39t17.5 -72q0 -43 -23.5 -76t-61.5 -56t-86.5 -35t-99.5 -12q-35 0 -74.5 5t-73 20t-55.5 42t-22 71q0 61 73 98q-13 8 -22 23t-9 41t10.5 43.5t25.5 29t31.5 18.5t28.5 11q-20 8 -41 20.5t-38.5 31.5t-29 45.5t-11.5 63.5
q0 46 18 80.5t48 57.5t69.5 35t82.5 12q39 0 75 -9.5t61 -27.5q26 23 48.5 42t50.5 19q16 0 26.5 -8t10.5 -34z" />
    <glyph glyph-name="h" unicode="h" horiz-adv-x="544" 
d="M512 34q0 -34 -48 -34h-108q-23 0 -35.5 9t-12.5 25q0 9 3.5 15.5t20.5 6.5t17 31v206v40.5t-5.5 39.5t-18.5 30t-39 12q-35 0 -61.5 -31.5t-26.5 -88.5v-208q0 -14 3.5 -22.5t10.5 -8.5q17 0 21.5 -6.5t4.5 -15.5q0 -34 -49 -34h-107q-49 0 -49 34q0 9 3.5 15.5
t20.5 6.5q10 0 13.5 6t3.5 25v535q0 34 -15 34q-17 0 -21.5 7.5t-4.5 16.5q0 20 17 29t33 9h87q17 0 22.5 -17.5t5.5 -41.5v-237q15 19 32.5 33.5t35.5 23.5t34.5 13.5t29.5 4.5q80 0 111 -40.5t31 -122.5v-247q0 -14 3.5 -22.5t11.5 -8.5q17 0 21 -6.5t4 -15.5z" />
    <glyph glyph-name="i" unicode="i" horiz-adv-x="273" 
d="M238 34q0 -34 -48 -34h-108q-49 0 -49 34q0 9 4 15.5t21 6.5q16 0 16 31v303q0 16 -3 25.5t-11 9.5q-17 0 -21 6.5t-4 17.5q0 18 16 27t33 9h87q22 0 24.5 -18.5t2.5 -50.5v-329q0 -14 3.5 -22.5t10.5 -8.5q17 0 21.5 -6.5t4.5 -15.5zM202 634q1 -29 -19 -49t-49 -21
q-28 -2 -48.5 18t-21.5 49q-1 15 4 28t14 22.5t21.5 15.5t26.5 6q31 0 50.5 -20t21.5 -49z" />
    <glyph glyph-name="j" unicode="j" horiz-adv-x="278" 
d="M208 169q0 -116 -22.5 -198.5t-71.5 -151.5q-35 -51 -67.5 -76t-55.5 -25q-7 0 -14 1.5t-13 6.5t-10 15t-4 27q0 22 10 42t34 20q15 0 22.5 -2t19.5 -2q10 0 20 3.5t18 17t13 40.5t5 73q0 29 -1.5 51t-3 42t-2.5 41t-1 48v244q0 25 -4 32t-10 7q-18 0 -22 6.5t-4 17.5
q0 18 16 27t32 9h87q21 0 25 -19t4 -51v-246zM209 634q1 -29 -19 -49t-49 -21q-28 -2 -48.5 18t-22.5 49q0 15 5 28t14 22.5t21.5 15.5t26.5 6q31 0 50.5 -20t21.5 -49z" />
    <glyph glyph-name="k" unicode="k" horiz-adv-x="512" 
d="M499 46q0 -22 -19.5 -38t-53.5 -16q-18 0 -32 5t-28 17t-29.5 32t-35.5 50l-89 129h-14v-129q0 -23 4 -28.5t11 -5.5q14 0 20 -7.5t6 -16.5q0 -19 -14.5 -28.5t-35.5 -9.5h-107q-17 0 -33.5 9.5t-16.5 28.5q0 9 4 16.5t21 7.5q8 0 12.5 5.5t4.5 28.5v531q0 29 -16 29
q-17 0 -21 7.5t-4 16.5q0 20 16.5 29t32.5 9h88q18 0 23 -16.5t5 -40.5v-387h8q20 5 42.5 19.5t42 32.5t32 38t12.5 36q0 14 -5.5 20.5t-11.5 11t-11.5 9.5t-5.5 16q0 10 5 16t12.5 8.5t16 3t16.5 0.5h80q17 0 28.5 -7t11.5 -21q0 -8 -7 -19t-17.5 -23.5t-23 -26
t-24.5 -25.5q-25 -26 -47 -47.5t-38 -35.5q17 -23 43 -61t61 -82q18 -22 33 -36t25.5 -23.5t16.5 -16.5t6 -15z" />
    <glyph glyph-name="l" unicode="l" horiz-adv-x="271" 
d="M241 38q0 -18 -15.5 -28t-35.5 -10h-107q-17 0 -33.5 10t-16.5 28q0 9 4 16.5t21 7.5q8 0 12 9.5t4 24.5v526q0 21 -4 27.5t-12 6.5q-17 0 -21.5 7.5t-4.5 16.5q0 20 16.5 29t33.5 9h87q17 0 23 -17.5t6 -41.5v-563q0 -14 4.5 -24t11.5 -10q17 0 22 -7.5t5 -16.5z" />
    <glyph glyph-name="m" unicode="m" horiz-adv-x="794" 
d="M762 34q0 -34 -49 -34h-107q-49 0 -49 34q0 9 4 15.5t21 6.5q16 0 16 31v215v29t-5 32t-18.5 25.5t-40.5 10.5q-33 0 -53.5 -30t-20.5 -81v-201q0 -31 14 -31q17 0 21.5 -6.5t4.5 -15.5q0 -34 -49 -34h-107q-49 0 -49 34q0 9 4 15.5t21 6.5q16 0 16 31v215q0 12 0.5 29
t-5 32t-18.5 25.5t-40 10.5q-34 0 -54.5 -31.5t-20.5 -82.5v-198q0 -31 14 -31q17 0 21.5 -6.5t4.5 -15.5q0 -34 -49 -34h-107q-49 0 -49 34q0 9 3.5 15.5t20.5 6.5t17 31v303q0 16 -4 25.5t-12 9.5q-17 0 -21 6.5t-4 17.5q0 18 16.5 27t33.5 9h87q20 0 24 -22.5t5 -55.5
q29 48 63.5 69t77.5 21t74 -26.5t36 -71.5q20 29 38.5 48t37 30t37.5 15.5t40 4.5q31 0 53.5 -12t37 -31.5t21.5 -43.5t7 -48v-275q0 -14 3.5 -22.5t10.5 -8.5q17 0 21.5 -6.5t4.5 -15.5z" />
    <glyph glyph-name="n" unicode="n" horiz-adv-x="543" 
d="M512 34q0 -34 -48 -34h-108q-23 0 -35.5 9t-12.5 25q0 9 3.5 15.5t20.5 6.5t17 31v206q0 21 -1 43t-7 39.5t-18.5 28.5t-36.5 11q-35 0 -61.5 -31.5t-26.5 -88.5v-208q0 -14 3.5 -22.5t10.5 -8.5q17 0 21.5 -6.5t4.5 -15.5q0 -34 -49 -34h-107q-49 0 -49 34q0 9 3.5 15.5
t20.5 6.5q10 0 13.5 6t3.5 25v302q0 16 -4 25.5t-12 9.5q-17 0 -21.5 6.5t-4.5 17.5q0 19 17 28t33 9h88q11 0 17 -10t8 -22q3 -14 3 -31q15 19 32.5 33.5t35.5 23.5t34.5 13.5t29.5 4.5q80 0 111 -40.5t31 -122.5v-247q0 -14 3.5 -22.5t11.5 -8.5q17 0 21 -6.5t4 -15.5z
" />
    <glyph glyph-name="o" unicode="o" horiz-adv-x="511" 
d="M353 212q0 46 -4.5 88.5t-16 74.5t-30 51.5t-46.5 20.5q-32 0 -51 -14t-29 -38.5t-13 -56t-3 -65.5q0 -46 4.5 -88t16 -74.5t30 -51.5t45.5 -19q30 0 49 14.5t29.5 38.5t14.5 55t4 64zM486 250q0 -61 -18 -109.5t-48.5 -82t-72 -51.5t-88.5 -18q-68 0 -112.5 22.5
t-70.5 58t-37 79.5t-11 88q0 61 16.5 109.5t46.5 82.5t71.5 51.5t91.5 17.5q64 0 108.5 -21.5t72 -56t39.5 -79.5t12 -91z" />
    <glyph glyph-name="p" unicode="p" horiz-adv-x="555" 
d="M395 238q0 37 -5 71t-17 60.5t-32.5 42t-52.5 15.5q-38 0 -64 -29t-26 -93v-135q0 -32 8 -55t21 -38t29 -22t32 -7q61 0 84 49.5t23 140.5zM527 257q0 -59 -16 -108.5t-44 -85t-67 -55t-85 -19.5q-35 0 -66 9.5t-51 33.5v-207q0 -31 14 -31q17 0 21.5 -6.5t4.5 -15.5
q0 -34 -49 -34h-107q-49 0 -49 34q0 9 3.5 15.5t20.5 6.5t17 31v565q0 15 -3.5 24.5t-11.5 9.5q-16 0 -21 7t-5 18q0 17 17 26.5t33 9.5h77q17 0 25 -11t8 -46q23 34 57.5 52t82.5 18q44 0 79.5 -17.5t61 -49t39.5 -76t14 -98.5z" />
    <glyph glyph-name="q" unicode="q" horiz-adv-x="559" 
d="M359 337q0 22 -4 42t-13.5 35.5t-24.5 24.5t-37 9q-24 0 -45 -10.5t-36 -35.5t-24 -67t-9 -105q0 -52 8.5 -86.5t23 -55.5t33.5 -29.5t39 -8.5q44 0 66.5 23t22.5 73v191zM523 -210q0 -18 -16.5 -28.5t-32.5 -10.5h-106q-24 0 -36.5 10.5t-12.5 28.5q0 9 3.5 16.5
t20.5 7.5q16 0 16 34v189q-6 -6 -16.5 -14t-25.5 -15.5t-34 -13t-43 -5.5q-45 0 -82.5 15.5t-64 46.5t-41.5 77.5t-15 109.5t17 111.5t46 81.5t69 50t86 17q57 0 87.5 -15.5t47.5 -31.5q24 25 38 33t34 8q17 0 19 -24.5t2 -76.5v-543q0 -15 4 -24.5t11 -9.5q16 0 20.5 -7.5
t4.5 -16.5z" />
    <glyph glyph-name="r" unicode="r" horiz-adv-x="406" 
d="M397 442q0 -6 -1 -18t-5 -24t-12.5 -21.5t-23.5 -9.5q-12 0 -20.5 6t-16.5 13.5t-17.5 14t-24.5 6.5q-10 0 -23.5 -5t-25.5 -16.5t-20.5 -31t-8.5 -48.5v-212q0 -15 3.5 -24.5t10.5 -9.5q17 0 21.5 -7.5t4.5 -16.5q0 -18 -16.5 -28t-32.5 -10h-107q-49 0 -49 38
q0 9 3.5 16.5t20.5 7.5t17 34v294q0 16 -4 25.5t-12 9.5q-17 0 -21 6.5t-4 17.5q0 18 16.5 27t32.5 9h87q21 0 26 -21t4 -46q31 35 62 57.5t67 22.5q32 0 50.5 -12t18.5 -44z" />
    <glyph glyph-name="s" unicode="s" horiz-adv-x="450" 
d="M423 143q0 -43 -19 -72.5t-48.5 -47.5t-64.5 -26t-67 -8q-44 0 -91 6.5t-81 32.5q-18 14 -20 36.5t-2 43.5q0 8 1.5 17t5 17t10.5 13t18 5t19 -8t15 -20t15 -26t19 -26q24 -26 46 -33t55 -7q23 0 38 7.5t23.5 19t12 23.5t3.5 21q0 18 -9.5 30.5t-25.5 22.5t-35.5 17
t-40.5 15q-41 15 -72 29.5t-51.5 33t-31 42.5t-10.5 58q0 35 14 61t38 43.5t56.5 26t69.5 8.5q29 0 61 -2.5t59 -10t44.5 -21.5t17.5 -38q0 -89 -37 -89q-11 0 -19 9t-15.5 21.5t-15.5 26t-18 22.5q-14 14 -31.5 23.5t-46.5 9.5q-26 0 -48.5 -14t-22.5 -47q0 -21 12 -34.5
t30.5 -23.5t39.5 -16.5t39 -12.5q86 -29 123.5 -66t37.5 -92z" />
    <glyph glyph-name="t" unicode="t" horiz-adv-x="342" 
d="M329 459q1 -20 -12 -34.5t-30 -14.5h-62v-263q0 -17 1 -33.5t5.5 -29t15 -20.5t29.5 -8q17 0 22.5 -7t5.5 -17q0 -15 -11 -24t-27 -13t-34 -5t-33 -1q-19 0 -36.5 4t-31 16t-22 34.5t-8.5 59.5v307h-58q-10 0 -19.5 4t-9.5 25q0 12 2.5 17.5t6.5 10.5q6 7 13.5 9.5
l16.5 5.5t18.5 8t19.5 17q13 14 20 26.5t15 34.5q3 9 6.5 22.5t9.5 26t15 22t23 9.5q30 0 37.5 -8t7.5 -31v-131h79q24 0 25 -19z" />
    <glyph glyph-name="u" unicode="u" horiz-adv-x="546" 
d="M515 39q0 -20 -16.5 -29.5t-33.5 -9.5h-81q-10 0 -16 6.5t-9 16.5t-4 22.5t-1 23.5q-17 -23 -35.5 -38t-37 -23t-36.5 -11t-34 -3q-41 0 -67 12t-42 33.5t-22 51t-6 64.5v234q0 16 -3.5 26t-11.5 10q-17 0 -21 6.5t-4 16.5q0 19 16.5 28t32.5 9h87q9 0 14.5 -5.5t8.5 -14
t4 -19t1 -19.5v-231q0 -14 -0.5 -35.5t4 -41.5t17.5 -35t41 -15q12 0 27.5 6t29.5 18t23.5 31t9.5 46v219q0 16 -3 26t-10 10q-18 0 -22.5 6.5t-4.5 16.5q0 19 17 28t34 9h87q17 0 21.5 -18.5t4.5 -36.5v-334q0 -34 16 -34q17 0 21 -7.5t4 -15.5z" />
    <glyph glyph-name="v" unicode="v" horiz-adv-x="500" 
d="M496 453q0 -20 -26 -24q-8 -2 -15 -12t-19 -39l-143 -335q-12 -29 -24 -41.5t-27 -12.5q-23 0 -33 14.5t-22 46.5l-117 314q-11 26 -19.5 45.5t-17.5 19.5q-16 0 -20 6.5t-4 15.5q0 21 16.5 27.5t31.5 6.5h107q20 0 35 -7t15 -27q0 -11 -5.5 -14.5t-13.5 -6.5l-10 -4
t-5 -12q0 -7 2.5 -15.5t8.5 -26.5l85 -236l87 251q3 9 5 17.5t2 13.5q0 11 -7 11q-13 0 -19 6.5t-6 15.5q0 20 14.5 27t27.5 7h76q5 0 12 -1t13 -4t10.5 -9.5t4.5 -17.5z" />
    <glyph glyph-name="w" unicode="w" horiz-adv-x="724" 
d="M717 457q0 -8 -5.5 -16t-20.5 -8q-8 0 -13.5 -12t-13.5 -35l-106 -338q-10 -32 -22.5 -45.5t-29.5 -13.5q-11 0 -18.5 2.5t-13.5 10t-11.5 20.5t-11.5 33l-83 284l-116 -291q-13 -33 -27.5 -46t-30.5 -13q-24 0 -35 20t-17 46l-73 309q-10 38 -17.5 51.5t-19.5 13.5
q-16 0 -20 6.5t-4 15.5q0 20 16.5 27t31.5 7h111q20 0 35 -7t15 -27q0 -14 -8 -17t-19 -5q-3 -1 -4.5 -5t-1.5 -8q0 -8 1.5 -16.5t5.5 -28.5l46 -210l101 258q15 39 28.5 55t39.5 16q23 0 34 -17t18 -40l82 -272l55 232l3.5 14t1.5 12q0 14 -10 14q-14 0 -19 8t-5 16
q0 16 14 22t33 6h45q7 0 17 -0.5t19.5 -3t16 -8.5t6.5 -16z" />
    <glyph glyph-name="x" unicode="x" horiz-adv-x="486" 
d="M474 31q0 -17 -12 -24t-32 -7h-121q-8 0 -17.5 1t-17.5 4.5t-13.5 10t-5.5 18.5q0 8 4.5 12t10.5 7t10.5 6t4.5 11q0 11 -1.5 16.5t-11.5 21.5l-48 82l-61 -86q-8 -11 -10.5 -18.5t-2.5 -15.5q0 -5 4.5 -8.5t10 -6.5t10 -8t4.5 -13q0 -19 -12.5 -26.5t-29.5 -7.5h-83
q-22 0 -33 7t-11 24q0 13 10.5 20l22.5 15q8 5 25.5 19t36.5 37l88 112l-99 152q-13 20 -21 27t-25 12q-25 6 -25 26t16 27t31 7h122q10 0 19 -1t16.5 -4t11.5 -10t4 -19q0 -7 -4 -11t-9 -6t-9.5 -4t-5.5 -5q-3 -11 3.5 -24.5t13.5 -27.5l33 -61l54 79q9 13 9 27q0 5 -4 8.5
t-9 6.5t-9 8t-4 13q0 18 14 24.5t34 6.5h75q13 0 28 -6t15 -28q-1 -9 -7 -15t-24 -11q-27 -9 -50 -40l-93 -119l109 -166q13 -19 22.5 -29.5t23.5 -14.5t19.5 -9.5t5.5 -15.5z" />
    <glyph glyph-name="y" unicode="y" horiz-adv-x="505" 
d="M505 451q0 -9 -5 -15.5t-22 -6.5q-12 0 -28 -43l-129 -376q-22 -65 -41.5 -115t-40 -84.5t-43.5 -52.5t-52 -18q-18 0 -30 6.5t-19.5 16.5t-10.5 23t-3 26q0 29 12.5 39.5t24.5 10.5t23 -3.5t30 -3.5q29 0 42 23.5t13 63.5q0 8 -4 23t-9 30.5t-10.5 30t-8.5 21.5
l-127 317q-11 27 -19.5 46t-18.5 19q-15 0 -19.5 6.5t-4.5 15.5q0 20 15.5 27t32.5 7h118q21 0 36 -6t15 -28q0 -15 -9.5 -18.5t-17.5 -3.5q-9 0 -9 -18q0 -22 17 -65l92 -255l82 301q2 5 3 11.5t1 14.5q0 11 -8 11q-16 0 -21 6.5t-5 15.5q0 23 14.5 28.5t34.5 5.5h59
q15 0 32.5 -7.5t17.5 -26.5z" />
    <glyph glyph-name="z" unicode="z" horiz-adv-x="431" 
d="M410 125q0 -11 -3 -32t-8 -40q-4 -17 -8.5 -27.5t-12 -16t-18.5 -7.5t-28 -2h-276q-4 0 -9.5 1t-11 4t-9 9t-3.5 16t1.5 24t7.5 24l236 352h-97q-30 0 -45 -16.5t-23 -37t-15 -37t-21 -16.5q-10 0 -15.5 11.5t-8 27.5t-3 33t-0.5 28q0 37 8.5 51.5t22.5 14.5q16 0 25 -2
t30 -2h242q12 0 21.5 -5.5t9.5 -21.5q0 -12 -2.5 -28t-23.5 -47l-220 -328h71q33 0 53 4t33 11.5t20.5 18t16.5 22.5q4 6 8.5 14.5t9 16t10 12.5t12.5 5q16 0 19.5 -11t3.5 -23z" />
    <glyph glyph-name="braceleft" unicode="{" horiz-adv-x="361" 
d="M325 -182q0 -11 -5.5 -14.5t-12.5 -3.5q-37 0 -69 12t-55.5 36t-36.5 59t-12 82l3 122q2 59 -16.5 92t-68.5 33q-8 0 -13.5 4.5t-5.5 24.5t4 24.5t15 4.5q49 0 68 33t17 92l-3 123q-1 46 13.5 81.5t38.5 59t56 35.5t65 12q7 0 12.5 -3.5t5.5 -14.5q0 -16 -5.5 -20
t-12.5 -6q-10 -3 -22 -7t-22.5 -14t-17 -29.5t-6.5 -53.5l2 -165q1 -47 -29 -87.5t-87 -60.5v-8q57 -20 87 -61t29 -87l-2 -164q0 -35 6.5 -54.5t17 -29.5t22.5 -14t22 -7q7 -2 12.5 -6.5t5.5 -19.5z" />
    <glyph glyph-name="bar" unicode="|" horiz-adv-x="167" 
d="M53 -216v1000h66v-1000h-66z" />
    <glyph glyph-name="braceright" unicode="}" horiz-adv-x="352" 
d="M37 -182q0 15 5.5 19.5t12.5 6.5q10 3 22 7t22.5 14t17 29.5t6.5 54.5l-2 164q-1 46 29 87t87 61v8q-57 20 -87 60.5t-29 87.5l2 165q0 34 -6.5 53.5t-17 29.5t-22.5 14t-22 7q-7 2 -12.5 6t-5.5 20q0 11 5.5 14.5t12.5 3.5q33 0 64.5 -12t56 -35.5t39 -59t13.5 -81.5
l-3 -123q-2 -59 17 -92t68 -33q11 0 15 -4.5t4 -24.5t-5.5 -24.5t-13.5 -4.5q-50 0 -68.5 -33t-16.5 -92l3 -122q1 -47 -12.5 -82t-36.5 -59t-55 -36t-69 -12q-7 0 -12.5 3.5t-5.5 14.5z" />
    <glyph glyph-name="asciitilde" unicode="~" horiz-adv-x="595" 
d="M537 626q0 -12 -13 -28q-16 -20 -32 -37.5t-33.5 -31.5t-37.5 -22t-42 -8q-29 0 -52.5 8.5t-54.5 22.5q-24 11 -44 19t-46 8q-47 0 -87 -40q-6 -5 -10 -10.5t-17 -5.5q-7 0 -14 5.5t-7 15.5q0 6 4 13t10 15q30 40 64.5 69.5t79.5 29.5q29 0 52.5 -8.5t54.5 -22.5
q26 -11 45 -19.5t45 -8.5q24 0 45.5 10t42.5 30q5 5 9 11t17 6q7 0 14 -5t7 -16z" />
    <glyph glyph-name="sterling" unicode="&#xa3;" horiz-adv-x="596" 
d="M198 72q-11 6 -18 10t-13 7t-12.5 4t-15.5 1q-44 0 -44 -38q0 -12 4.5 -19t11 -10.5t13 -5t11.5 -1.5q15 0 35 11t28 41zM66 380h91q-2 5 -6 18.5t-8 31t-7 37t-3 37.5q0 35 10 72t34.5 68t66 50.5t103.5 19.5q8 0 33 -2t51.5 -12t47 -31t20.5 -58q0 -26 -15.5 -45
t-46.5 -19q-35 0 -50 18.5t-15 40.5q0 17 9 31l6 10t3 10q0 14 -11 16.5t-19 2.5q-23 0 -38.5 -10.5t-25.5 -28t-14.5 -40t-4.5 -47.5q0 -23 1.5 -41.5t5 -37t8.5 -40t12 -51.5h147v-45h-138q3 -16 6 -39.5t3 -46.5q0 -12 -1.5 -28.5t-5 -34.5t-10.5 -36.5t-18 -34.5
q24 -8 42.5 -15t50.5 -21q27 -11 47.5 -16.5t46.5 -5.5q19 0 36 9t37 35l23 -21q-15 -22 -30 -41t-32 -33t-37 -22t-45 -8q-32 0 -61 7.5t-51 18.5q-23 11 -43 23t-31 20q-18 -32 -49.5 -45.5t-60.5 -13.5q-43 0 -66.5 22.5t-23.5 57.5q0 37 26 60t74 23q16 0 37 -4t40 -9
q0 21 -2 40t-7 41.5t-13 50.5t-20 67h-109v45z" />
    <glyph glyph-name="currency" unicode="&#xa4;" horiz-adv-x="592" 
d="M463 308q0 36 -13.5 68t-36.5 55.5t-54 37.5t-67 14q-35 0 -66 -14t-54 -37.5t-36.5 -55.5t-13.5 -68t13.5 -68t36.5 -56t54 -38t66 -14q36 0 67 14t54 38t36.5 56t13.5 68zM515 39l-81 83q-35 -26 -72.5 -38t-69.5 -12t-69.5 12t-72.5 38l-80 -83l-44 47l81 80
q-27 35 -38.5 72.5t-11.5 69.5t11.5 69.5t38.5 72.5l-81 80l44 47l80 -84q35 27 72.5 38.5t69.5 11.5t69.5 -11.5t72.5 -38.5l81 83l47 -46l-84 -80q26 -35 38 -72.5t12 -69.5t-12 -69.5t-38 -72.5l84 -80z" />
    <glyph glyph-name="brokenbar" unicode="&#xa6;" horiz-adv-x="210" 
d="M70 -239v407h77v-407h-77zM70 349v406h77v-406h-77z" />
    <glyph glyph-name="section" unicode="&#xa7;" horiz-adv-x="516" 
d="M389 221q0 15 -5.5 27t-15.5 24t-24 24.5t-32 28.5l-124 111q-23 -10 -39 -31.5t-16 -43.5q0 -15 4 -26.5t12 -22.5t20 -22.5t29 -27.5l132 -126q26 11 42.5 35t16.5 50zM475 266q0 -57 -31.5 -100t-74.5 -72q9 -13 17 -25t14 -25.5t10 -30t4 -38.5q0 -35 -13.5 -65
t-36 -51.5t-52.5 -33.5t-63 -12q-34 0 -63.5 7.5t-51 24t-34 42t-12.5 61.5q0 32 16 49t39 17q22 0 38.5 -14t16.5 -43q0 -13 -1 -21.5t-1 -25.5q0 -24 18 -36.5t35 -12.5q32 0 56 17t24 60q0 25 -17 45t-47 49l-145 138q-35 32 -54.5 65.5t-19.5 74.5q0 30 8.5 55t23 45.5
t33.5 36t39 27.5q-9 13 -17.5 25.5t-14.5 26t-10 30t-4 37.5q0 36 13.5 65.5t36 51.5t52.5 34t64 12q33 0 62.5 -7.5t51 -24t34 -41.5t12.5 -61q0 -32 -16 -50t-39 -18q-22 0 -38 14t-16 43q0 14 1 22t1 27q0 23 -18.5 36t-34.5 13q-33 0 -56.5 -17.5t-23.5 -60.5
q0 -26 16 -46t47 -48l127 -110q23 -20 41 -38.5t30 -37t18 -39.5t6 -46z" />
    <glyph glyph-name="dieresis" unicode="&#xa8;" horiz-adv-x="294" 
d="M131 634q0 -26 -17.5 -44.5t-43.5 -18.5q-25 0 -42.5 18.5t-17.5 44.5q-1 26 16.5 44.5t43.5 18.5q26 1 44 -17.5t17 -45.5zM274 634q-1 -26 -17.5 -44.5t-43.5 -18.5q-25 0 -42 18.5t-18 44.5q0 26 17 44.5t43 18.5q27 1 45 -17.5t16 -45.5z" />
    <glyph glyph-name="copyright" unicode="&#xa9;" horiz-adv-x="841" 
d="M600 231q0 -16 -16.5 -35t-35.5 -33q-28 -20 -54.5 -27.5t-61.5 -7.5q-33 0 -68 12.5t-63.5 40.5t-46.5 74t-18 112q0 45 14 87t41 74.5t65.5 51.5t86.5 19q26 0 51 -5t48 -18q20 -11 30.5 -27t10.5 -39q0 -27 -10.5 -44.5t-24.5 -17.5q-13 0 -21 17.5t-16 33.5
q-13 28 -32.5 43.5t-48.5 15.5q-48 0 -77 -44.5t-29 -135.5q0 -55 14 -93t33.5 -61t41 -33.5t37.5 -10.5q33 0 53.5 11t34 24.5t23 25t19.5 11.5q13 0 16.5 -6.5t3.5 -14.5zM772 358q0 72 -25 135t-71 110t-109.5 74t-139.5 27q-73 0 -136.5 -25.5t-110 -71t-73 -109.5
t-26.5 -140q0 -77 26.5 -140.5t73 -109t110 -71t136.5 -25.5q76 0 139.5 25t109.5 70.5t71 109t25 141.5zM814 358q0 -81 -27 -151.5t-77.5 -123t-122 -83t-160.5 -30.5q-85 0 -156.5 28t-123 79t-80 122.5t-28.5 158.5t29.5 158.5t81 122.5t122.5 79t155 28q88 0 159.5 -30
t122 -82.5t78 -123t27.5 -152.5z" />
    <glyph glyph-name="guillemotleft" unicode="&#xab;" horiz-adv-x="441" 
d="M260 58l-26 -26l-237 208l236 217l26 -24l-136 -193zM441 58l-26 -26l-237 208l236 217l26 -24l-136 -193z" />
    <glyph glyph-name="logicalnot" unicode="&#xac;" horiz-adv-x="722" 
d="M604 190v135h-525v67h591v-202h-66z" />
    <glyph glyph-name="registered" unicode="&#xae;" horiz-adv-x="841" 
d="M504 457q0 20 -2.5 37t-12 29t-29.5 19t-54 7q-14 0 -29 -3t-15 -19v-131q0 -14 17.5 -21t34.5 -7q90 0 90 89zM616 166q3 -11 -13.5 -20.5t-35.5 -9.5q-11 0 -21.5 2.5t-22.5 10.5t-25 23t-28 40l-71 117q-8 2 -15 5q-6 2 -12.5 4t-9.5 4v-137q0 -10 4.5 -17t8.5 -7
q11 0 13.5 -4.5t2.5 -10.5q0 -11 -9.5 -18t-23.5 -7h-76q-11 0 -22 7t-11 18q0 6 2.5 10.5t13.5 4.5q5 0 9 6.5t4 17.5v317q0 11 -4 17.5t-9 6.5q-11 0 -13.5 4t-2.5 11q0 11 10.5 18.5t24.5 7.5h148q24 0 52 -3.5t52 -16.5t40 -38.5t16 -68.5q0 -23 -10 -43t-26 -36
t-36.5 -26t-42.5 -13l86 -118q12 -16 20.5 -24t15 -13t11 -9t6.5 -12zM763 358q0 72 -25 135t-71 110t-109.5 74t-140.5 27q-73 0 -136 -25.5t-109.5 -71t-73.5 -109.5t-27 -140q0 -77 27 -140.5t73.5 -109t109.5 -71t136 -25.5q77 0 140.5 25t109.5 70.5t71 109t25 141.5z
M805 358q0 -81 -27 -151.5t-77.5 -123t-122.5 -83t-161 -30.5q-85 0 -156 28t-122.5 79t-80 122.5t-28.5 158.5t29 158.5t81 122.5t122.5 79t154.5 28q88 0 159.5 -30t122.5 -82.5t78.5 -123t27.5 -152.5z" />
    <glyph glyph-name="degree" unicode="&#xb0;" horiz-adv-x="308" 
d="M230 540q0 29 -18.5 48.5t-48.5 19.5q-29 0 -48 -19.5t-19 -48.5q0 -30 19 -48.5t48 -18.5q30 0 48.5 18.5t18.5 48.5zM285 540q0 -25 -9.5 -47.5t-26 -39t-39 -26t-47.5 -9.5t-47 9.5t-38.5 26t-26 39t-9.5 47.5t9.5 47t26 38.5t38.5 26t47 9.5t47.5 -9.5t39 -26
t26 -38.5t9.5 -47z" />
    <glyph glyph-name="plusminus" unicode="&#xb1;" horiz-adv-x="540" 
d="M54 110v67h437v-67h-437zM307 342v-124h-68v124h-185v68h185v124h68v-124h184v-68h-184z" />
    <glyph glyph-name="acute" unicode="&#xb4;" horiz-adv-x="430" 
d="M334 622q0 -13 -4 -21.5t-12 -16.5l-98 -84h-35l47 114q9 22 20.5 36.5t34.5 14.5q19 0 33 -10.5t14 -32.5z" />
    <glyph glyph-name="mu" unicode="&#xb5;" horiz-adv-x="659" 
d="M638 182q0 -9 -4.5 -28t-13 -42t-22 -47t-31.5 -44t-40.5 -32.5t-49.5 -12.5q-20 0 -37.5 10t-30 25t-20.5 33t-9 35q-22 -45 -58.5 -74t-81.5 -29q-22 0 -42.5 6t-37.5 19.5t-30 36t-20 55.5q-13 -67 -20.5 -124.5t-16 -99.5t-20.5 -66t-34 -24q-25 0 -39.5 14.5
t-14.5 43.5q0 18 9 48.5t22 74.5t28.5 101t29.5 128l50 258q4 19 22 28.5t53 9.5q23 0 34.5 -2.5t15.5 -7.5t3 -12t-2 -16l-46 -244q-5 -23 -5 -39.5v-26.5q0 -29 16.5 -49.5t50.5 -20.5q46 0 70 30t35 84l53 266q8 38 73 38q34 0 46 -10t8 -28l-53 -273q-4 -20 -5.5 -35.5
t-1.5 -25.5q0 -17 7.5 -31.5t28.5 -14.5q22 0 37 14.5t24 35t14 41.5t8 35q2 7 6.5 12.5t16.5 5.5q19 0 22 -10t3 -19z" />
    <glyph glyph-name="mu" unicode="&#x3bc;" horiz-adv-x="659" 
d="M638 182q0 -9 -4.5 -28t-13 -42t-22 -47t-31.5 -44t-40.5 -32.5t-49.5 -12.5q-20 0 -37.5 10t-30 25t-20.5 33t-9 35q-22 -45 -58.5 -74t-81.5 -29q-22 0 -42.5 6t-37.5 19.5t-30 36t-20 55.5q-13 -67 -20.5 -124.5t-16 -99.5t-20.5 -66t-34 -24q-25 0 -39.5 14.5
t-14.5 43.5q0 18 9 48.5t22 74.5t28.5 101t29.5 128l50 258q4 19 22 28.5t53 9.5q23 0 34.5 -2.5t15.5 -7.5t3 -12t-2 -16l-46 -244q-5 -23 -5 -39.5v-26.5q0 -29 16.5 -49.5t50.5 -20.5q46 0 70 30t35 84l53 266q8 38 73 38q34 0 46 -10t8 -28l-53 -273q-4 -20 -5.5 -35.5
t-1.5 -25.5q0 -17 7.5 -31.5t28.5 -14.5q22 0 37 14.5t24 35t14 41.5t8 35q2 7 6.5 12.5t16.5 5.5q19 0 22 -10t3 -19z" />
    <glyph glyph-name="paragraph" unicode="&#xb6;" horiz-adv-x="529" 
d="M390 650v-832h-66v832h-81v-832h-66v606q-15 0 -38.5 5t-45 19.5t-37 42t-15.5 72.5q0 66 39 102.5t105 36.5h303v-52h-98z" />
    <glyph glyph-name="periodcentered" unicode="&#xb7;" horiz-adv-x="247" 
d="M187 361q-1 -26 -18.5 -44t-42.5 -18q-26 1 -43 19t-17 43q-1 26 16 44t43 19q26 0 44 -18.5t18 -44.5z" />
    <glyph glyph-name="periodcentered" unicode="&#x22c5;" horiz-adv-x="247" 
d="M187 361q-1 -26 -18.5 -44t-42.5 -18q-26 1 -43 19t-17 43q-1 26 16 44t43 19q26 0 44 -18.5t18 -44.5z" />
    <glyph glyph-name="periodcentered" unicode="&#x2219;" horiz-adv-x="247" 
d="M187 361q-1 -26 -18.5 -44t-42.5 -18q-26 1 -43 19t-17 43q-1 26 16 44t43 19q26 0 44 -18.5t18 -44.5z" />
    <glyph glyph-name="guillemotright" unicode="&#xbb;" horiz-adv-x="451" 
d="M137 246l-139 197l26 25l242 -222l-243 -213l-26 26zM322 246l-139 197l26 25l242 -222l-243 -213l-26 26z" />
    <glyph glyph-name="divide" unicode="&#xf7;" horiz-adv-x="549" 
d="M274 525q18 0 30.5 -12.5t12.5 -30.5q0 -17 -12.5 -29.5t-30.5 -12.5t-30.5 12.5t-12.5 29.5q0 18 12.5 30.5t30.5 12.5zM538 312h-527v41h527v-41zM274 222q18 0 30.5 -12.5t12.5 -30.5q0 -17 -12.5 -30t-30.5 -13q-17 0 -30 13t-13 30q0 18 12.5 30.5t30.5 12.5z" />
    <glyph glyph-name="dotlessi" unicode="&#x131;" horiz-adv-x="273" 
d="M238 34q0 -34 -48 -34h-108q-49 0 -49 34q0 9 4 15.5t21 6.5q16 0 16 31v303q0 16 -3 25.5t-11 9.5q-17 0 -21 6.5t-4 17.5q0 18 16 27t33 9h87q22 0 24.5 -18.5t2.5 -50.5v-329q0 -14 3.5 -22.5t10.5 -8.5q17 0 21.5 -6.5t4.5 -15.5z" />
    <glyph glyph-name="florin" unicode="&#x192;" horiz-adv-x="629" 
d="M227 424l12 39h37q18 0 28 4t17 14t13.5 26.5t16.5 41.5q13 31 31.5 60.5t43.5 52.5t55.5 37t66.5 14q44 0 62.5 -20t18.5 -44q0 -19 -13.5 -30t-31.5 -11q-12 0 -19.5 4t-12 9.5t-6 11.5t-1.5 9q0 11 7 20q2 3 4.5 6.5t2.5 7.5q0 2 -2.5 5t-12.5 3q-11 0 -26.5 -4.5
t-32 -19.5t-33 -43.5t-29.5 -76.5l-21 -77h82l-11 -39h-83l-90 -318q-12 -44 -31 -96t-46.5 -97t-64.5 -75t-85 -30q-27 0 -50 13.5t-23 42.5q0 20 11 36t34 16t31.5 -13.5t8.5 -24.5q0 -9 -3 -14t-6 -7q-2 -2 -5.5 -4.5t-3.5 -6.5q0 -2 2.5 -6t10.5 -4q25 0 44 23t34 57.5
t26.5 74.5t21.5 75l102 358h-81z" />
    <glyph glyph-name="circumflex" unicode="&#x2c6;" horiz-adv-x="496" 
d="M369 449l-133 182q-10 -13 -21 -28q-10 -13 -22 -29.5t-24 -33.5q-29 -40 -66 -91h-70l203 282l204 -282h-71z" />
    <glyph glyph-name="dotaccent" unicode="&#x2d9;" horiz-adv-x="288" 
d="M202 634q1 -29 -19 -49t-49 -21q-28 -2 -48.5 18t-21.5 49q-1 15 4 28t14 22.5t21.5 15.5t26.5 6q31 0 50.5 -20t21.5 -49z" />
    <glyph glyph-name="tilde" unicode="&#x2dc;" horiz-adv-x="502" 
d="M470 635q0 -9 -12 -24q-26 -33 -55.5 -58.5t-67.5 -25.5q-25 0 -45 7.5t-46 18.5q-21 9 -38 16.5t-39 7.5q-21 0 -39 -8.5t-36 -25.5q-5 -5 -8 -9.5t-14 -4.5q-6 0 -12.5 4.5t-6.5 13.5q0 8 12 23q26 35 55.5 59.5t67.5 24.5q25 0 45.5 -7t46.5 -18q22 -10 38.5 -17
t37.5 -7t39 8.5t36 25.5q5 5 8.5 9t14.5 4q5 0 11.5 -4t6.5 -13z" />
    <glyph glyph-name="uni0394" unicode="&#x394;" horiz-adv-x="612" 
d="M483 40l-194 472l-215 -472h409zM599 0h-586l306 677z" />
    <glyph glyph-name="uni0394" unicode="&#x2206;" horiz-adv-x="612" 
d="M483 40l-194 472l-215 -472h409zM599 0h-586l306 677z" />
    <glyph glyph-name="uni0401" unicode="&#x401;" horiz-adv-x="579" 
d="M563 156q0 -17 -6.5 -40.5t-15.5 -50.5q-7 -20 -12 -33t-11.5 -21t-16 -11.5t-24.5 -3.5q-16 0 -41.5 2t-68.5 2h-252q-17 0 -34.5 7.5t-17.5 25.5q0 11 5 18t22 7q7 0 13 10t6 27v516q0 23 -6 30.5t-13 7.5q-17 0 -22 7.5t-5 17.5q0 18 17.5 26t34.5 8h304q20 0 36.5 1
t31.5 1q47 0 47 -40v-31.5t-4 -46.5q-3 -24 -7.5 -38.5t-10 -22t-11 -10t-10.5 -2.5q-10 0 -16 9.5t-10.5 23t-9.5 29.5t-14 30q-8 13 -20.5 19t-28.5 8.5t-35 2.5h-40h-51q-17 0 -20.5 -9t-3.5 -21v-215l148 9q9 0 22 1.5t18 1.5q16 0 22.5 -6.5t6.5 -27.5t-13.5 -35
t-30.5 -14q-19 0 -45.5 3t-52.5 5q-11 1 -24 1.5t-24 1.5q-13 1 -27 1v-247q0 -15 10.5 -19t30.5 -4h69t49 5q16 4 28.5 10t25 16t25.5 25t29 39q11 16 17.5 20.5t14.5 4.5q10 0 14.5 -3t6 -8t1.5 -10.5v-9.5zM294 811q0 -25 -17 -42.5t-43 -17.5q-24 0 -40 18t-17 42
q0 26 16 44t41 18q26 1 43.5 -17.5t16.5 -44.5zM463 811q-1 -25 -17.5 -42.5t-41.5 -17.5t-42 18t-17 42q-1 26 16 44t43 18q25 1 42 -17.5t17 -44.5z" />
    <glyph glyph-name="uni0402" unicode="&#x402;" horiz-adv-x="780" 
d="M738 236q0 -76 -26.5 -124.5t-64 -76.5t-77.5 -38.5t-67 -10.5q-13 0 -26 2t-23.5 8t-17 17.5t-6.5 31.5q0 40 12 52.5t26 12.5q17 0 26.5 -9.5t17.5 -21t16.5 -21t23.5 -9.5q14 0 22.5 6.5t13 24t5.5 48.5t1 79q0 86 -33 128.5t-93 42.5q-26 0 -45.5 -7.5t-33 -19
t-20.5 -26t-7 -28.5v-202q0 -20 4 -28.5t9.5 -13t9.5 -8t4 -12.5q0 -18 -11 -25.5t-33 -7.5h-109q-17 0 -34.5 7.5t-17.5 25.5q0 11 4.5 18t21.5 7q8 0 13.5 8.5t5.5 28.5v546h-18q-28 0 -43 -0.5t-23.5 -3.5t-14 -10t-13.5 -20q-7 -11 -12 -26.5t-10 -29t-11 -23t-15 -9.5
q-23 0 -30.5 35t-7.5 100q0 20 3.5 31.5t9 17t12.5 7t14 1.5q15 0 32 -1.5t37 -1.5h379q21 0 38 1.5t32 1.5q7 0 14 -1.5t12.5 -7t9 -17t3.5 -31.5q0 -65 -12.5 -100t-34.5 -35q-10 0 -14.5 9.5t-7.5 23t-6.5 29t-10.5 26.5q-9 13 -14 20t-14 10t-24 3.5t-43 0.5h-84v-246
q15 15 38 26q20 10 50 18t74 8t83 -13t68 -39.5t46 -66t17 -92.5z" />
    <glyph glyph-name="uni0403" unicode="&#x403;" horiz-adv-x="509" 
d="M391 857q0 -13 -4 -21.5t-12 -16.5l-98 -84h-35l48 115q9 21 20 35.5t34 14.5q20 0 33.5 -10t13.5 -33zM514 670v-31t-4 -47q-3 -24 -7.5 -38.5t-10 -22t-11 -10t-10.5 -2.5q-10 0 -16 9.5t-10.5 23t-9 29.5t-13.5 30q-8 13 -21 19.5t-29 8.5t-34.5 2h-39.5h-32
q-16 0 -20 -7t-4 -23v-510q0 -15 5.5 -25.5t13.5 -10.5q17 0 22.5 -7.5t5.5 -17.5q0 -20 -16 -30t-38 -10h-120q-17 0 -34.5 10t-17.5 30q0 10 5 17.5t22 7.5q7 0 13 9.5t6 26.5v511q0 28 -6 32.5t-13 4.5q-17 0 -22 7.5t-5 17.5q0 20 17.5 27t34.5 7h284q20 0 37 1t32 1
q46 0 46 -40z" />
    <glyph glyph-name="uni0404" unicode="&#x404;" horiz-adv-x="634" 
d="M612 139q0 -12 -7.5 -26t-19 -28.5t-26 -28.5t-29.5 -24q-42 -30 -83.5 -41.5t-95.5 -11.5q-56 0 -109 19t-94.5 62.5t-66.5 114t-25 174.5q0 83 24.5 149.5t67.5 113.5t102 72.5t129 25.5q38 0 81.5 -8.5t79.5 -28.5q32 -17 48.5 -42t16.5 -61q0 -48 -17 -68t-32 -20
q-10 0 -17.5 6.5t-13.5 16t-12 22t-13 24.5q-17 30 -32.5 49t-32.5 29.5t-36 14.5t-43 4q-35 0 -64.5 -15t-51 -47.5t-34 -83t-13.5 -121.5q62 4 112 10t103 6q25 0 33 -9.5t8 -30.5q0 -20 -11 -29t-30 -9q-4 0 -26 1t-53 3.5t-67 5t-68 5.5q4 -82 23.5 -135t46.5 -83.5
t57.5 -42.5t56.5 -12q56 0 90 17t55 37.5t33.5 37.5t24.5 17q20 0 25.5 -8.5t5.5 -22.5z" />
    <glyph glyph-name="uni0405" unicode="&#x405;" horiz-adv-x="612" 
d="M572 195q0 -44 -20 -83.5t-57.5 -68.5t-90 -46t-116.5 -17q-59 0 -103.5 11t-74.5 29t-45 41.5t-15 48.5q0 49 15 77.5t44 28.5q11 0 18 -8t11.5 -19t7 -23t4.5 -19q15 -45 49.5 -74.5t94.5 -29.5q43 0 71.5 11t45.5 28.5t23.5 37.5t6.5 38q0 24 -6.5 40.5t-17 28.5
t-23.5 20l-26 16q-27 15 -75 40t-102 52q-27 14 -51 32t-42 40.5t-28.5 49.5t-10.5 58q0 56 22 93t57.5 59t80.5 31t91 9q28 0 70 -6t82 -20q38 -13 50.5 -36.5t12.5 -63.5q0 -41 -13.5 -63.5t-33.5 -22.5q-12 0 -20 11.5t-15.5 28t-17 36.5t-25.5 36.5t-40.5 28t-61.5 11.5
q-31 0 -51.5 -8.5t-33 -22t-18 -31.5t-5.5 -36q0 -8 0.5 -17.5t5 -20.5t13.5 -23.5t26 -24.5q26 -20 62.5 -38t75 -36t75 -38t63.5 -42q33 -28 47 -58.5t14 -75.5z" />
    <glyph glyph-name="uni0406" unicode="&#x406;" horiz-adv-x="327" 
d="M287 33q0 -18 -17.5 -25.5t-34.5 -7.5h-120q-17 0 -34.5 7.5t-17.5 25.5q0 11 5 18t22 7q7 0 13 10t6 27v516q0 23 -6 30.5t-13 7.5q-17 0 -22 7.5t-5 17.5q0 18 17.5 26t34.5 8h120q17 0 34.5 -8t17.5 -26q0 -10 -4.5 -17.5t-22.5 -7.5q-8 0 -13 -7.5t-5 -30.5v-516
q0 -21 5 -29t13 -8q18 0 22.5 -7t4.5 -18z" />
    <glyph glyph-name="uni0407" unicode="&#x407;" horiz-adv-x="334" 
d="M287 33q0 -18 -17.5 -25.5t-34.5 -7.5h-120q-17 0 -34.5 7.5t-17.5 25.5q0 11 5 18t22 7q7 0 13 10t6 27v516q0 23 -6 30.5t-13 7.5q-17 0 -22 7.5t-5 17.5q0 18 17.5 26t34.5 8h120q17 0 34.5 -8t17.5 -26q0 -10 -4.5 -17.5t-22.5 -7.5q-8 0 -13 -7.5t-5 -30.5v-516
q0 -21 5 -29t13 -8q18 0 22.5 -7t4.5 -18zM169 804q-1 -26 -17.5 -43t-42.5 -17q-25 0 -41 17.5t-17 42.5q0 25 16 43t42 19q26 0 43 -18.5t17 -43.5zM318 804q0 -26 -17 -43t-42 -17q-24 0 -41.5 17.5t-17.5 42.5t17 43t42 19q25 0 42.5 -18.5t16.5 -43.5z" />
    <glyph glyph-name="uni0408" unicode="&#x408;" horiz-adv-x="350" 
d="M307 674q0 -10 -4.5 -17.5t-21.5 -7.5q-8 0 -13.5 -7.5t-5.5 -30.5v-354q0 -40 -9 -86t-23.5 -91t-33.5 -86t-39 -69q-14 -20 -31.5 -39t-36.5 -33.5t-39 -23.5t-38 -9q-4 0 -12.5 1t-17.5 6t-16 16.5t-7 32.5q0 37 15.5 52.5t37.5 15.5q14 0 25 -2t29 -2q24 0 38 14.5
t22 37.5t10.5 50t2.5 53q0 57 -5 113t-5 104v299q0 23 -5.5 30.5t-13.5 7.5q-17 0 -21.5 7.5t-4.5 17.5q0 18 17 26t34 8h120q17 0 34.5 -8t17.5 -26z" />
    <glyph glyph-name="uni0409" unicode="&#x409;" horiz-adv-x="945" 
d="M793 218q0 41 -11 68.5t-30 44t-43.5 23.5t-51.5 7q-14 0 -29.5 -1.5t-29 -6.5t-22.5 -14.5t-9 -25.5v-222q0 -14 6.5 -18.5t17.5 -4.5h54q76 0 112 39t36 111zM309 641q-23 0 -33.5 -9t-11.5 -39q0 -9 -0.5 -39t-2 -70.5t-4 -86t-7.5 -84.5q-6 -47 -13 -83t-15.5 -64
t-18.5 -50.5t-22 -43.5q-17 -27 -33 -43t-30.5 -25t-26.5 -11.5t-20 -2.5q-62 0 -62 76q0 36 13 54t29 18q15 0 25.5 -3t23.5 -3q28 0 49 46.5t32 148.5q5 44 7.5 89t2.5 80q0 57 -4 87.5t-10.5 45t-14.5 16.5t-17 2q-17 0 -21.5 7.5t-4.5 17.5q0 19 16.5 27.5t36.5 8.5h389
q22 0 37.5 -11t15.5 -28q0 -12 -5 -19.5t-22 -7.5q-8 0 -14 -10t-6 -26v-198q25 8 55 13t80 5q40 0 82 -10t76 -33t55.5 -60.5t21.5 -92.5q0 -71 -30.5 -116t-74.5 -70.5t-92 -34.5t-83 -9h-215q-17 0 -34.5 7.5t-17.5 25.5q0 11 4 18t22 7q8 0 13 8t5 29v516q0 16 -4 23
t-20 7h-101z" />
    <glyph glyph-name="uni040A" unicode="&#x40a;" horiz-adv-x="1014" 
d="M862 218q0 41 -10.5 68.5t-29 44t-43.5 23.5t-53 7q-17 0 -33.5 -2.5t-29.5 -7.5t-20.5 -11.5t-7.5 -15.5v-233q0 -14 7 -18.5t18 -4.5h53q76 0 112.5 39t36.5 111zM635 408q13 4 26.5 7.5t29.5 5.5t35 3.5t44 1.5q40 0 82 -10t76.5 -33t56 -60.5t21.5 -92.5
q0 -48 -14.5 -83.5t-38 -61t-53 -42t-61 -26t-61 -13.5t-52.5 -4h-216q-17 0 -35 7.5t-18 25.5q0 11 4.5 18t22.5 7q7 0 12.5 8t5.5 29v245h-260v-245q0 -21 5 -29t13 -8q18 0 22.5 -7t4.5 -18q0 -18 -17.5 -25.5t-34.5 -7.5h-120q-17 0 -34.5 7.5t-17.5 25.5q0 11 5 18
t22 7q7 0 13 10t6 27v516q0 23 -6 30.5t-13 7.5q-17 0 -22 7.5t-5 17.5q0 18 17.5 26t34.5 8h120q17 0 34.5 -8t17.5 -26q0 -10 -4.5 -17.5t-22.5 -7.5q-8 0 -13 -7.5t-5 -30.5v-210h260v210q0 23 -5.5 30.5t-13.5 7.5q-17 0 -21.5 7.5t-4.5 17.5q0 18 17.5 26t34.5 8h120
q16 0 33.5 -8t17.5 -26q0 -10 -4.5 -17.5t-22.5 -7.5q-7 0 -12.5 -7.5t-5.5 -30.5v-203z" />
    <glyph glyph-name="uni040B" unicode="&#x40b;" horiz-adv-x="797" 
d="M766 33q0 -18 -17.5 -25.5t-34.5 -7.5h-120q-17 0 -34 7.5t-17 25.5q0 11 4.5 18t21.5 7q8 0 13.5 8t5.5 29v149q0 64 -23.5 98t-87.5 34q-23 0 -44 -7.5t-36.5 -20.5t-25 -30t-9.5 -36v-187q0 -21 4 -29t12 -8q11 0 16.5 -7t5.5 -18q0 -18 -14.5 -25.5t-31.5 -7.5h-118
q-17 0 -34.5 7.5t-17.5 25.5q0 11 4.5 18t21.5 7q8 0 13.5 8t5.5 29v546h-18q-28 0 -43 -0.5t-23.5 -3.5t-14 -10t-13.5 -20q-7 -11 -10.5 -26.5t-6.5 -29t-8 -23t-14 -9.5q-22 0 -34.5 35t-12.5 100q0 20 3.5 31.5t9 17t12.5 7t14 1.5q15 0 32 -1.5t37 -1.5h389
q20 0 37 1.5t32 1.5q7 0 14 -1.5t12.5 -7t9 -17t3.5 -31.5q0 -65 -12.5 -100t-33.5 -35q-10 0 -14.5 9.5t-7.5 23t-7 29t-11 26.5q-8 13 -13.5 20t-14 10t-24 3.5t-43.5 0.5h-93v-247q21 18 65 37t105 19q97 0 143 -45t46 -149v-161q0 -16 5.5 -26.5t12.5 -10.5
q18 0 22.5 -7t4.5 -18z" />
    <glyph glyph-name="uni040C" unicode="&#x40c;" horiz-adv-x="661" 
d="M448 847q0 -13 -4 -21.5t-12 -16.5l-98 -84h-35l48 115q9 21 20 35.5t34 14.5q20 0 33.5 -10t13.5 -33zM643 44q0 -24 -22.5 -38.5t-59.5 -14.5q-20 0 -34 4.5t-24.5 11t-17 14t-10.5 12.5q-11 15 -27.5 40t-35 53.5t-36.5 56t-31 47.5q-20 30 -34.5 50.5t-24.5 33
t-17 19.5t-13 10l-14 -5v-243q0 -21 5 -29t13 -8q18 0 22.5 -7t4.5 -18q0 -18 -17.5 -25.5t-34.5 -7.5h-120q-17 0 -34.5 7.5t-17.5 25.5q0 11 5 18t22 7q7 0 13 10t6 27v516q0 23 -6 30.5t-13 7.5q-17 0 -22 7.5t-5 17.5q0 18 17.5 26t34.5 8h120q17 0 34.5 -8t17.5 -26
q0 -10 -4.5 -17.5t-22.5 -7.5q-8 0 -13 -7.5t-5 -30.5v-223q18 11 54 36t72.5 57.5t64 70t27.5 72.5q0 14 -4 20t-8.5 9.5t-8 7t-3.5 13.5q0 18 17.5 26t35.5 8h72q22 0 36.5 -8t14.5 -26q0 -10 -5 -19t-13 -19t-19.5 -22.5t-24.5 -28.5q-36 -45 -77.5 -86.5t-102.5 -89.5
q15 -17 37 -48.5t51 -72.5q29 -43 62.5 -90.5t61.5 -82.5q12 -14 23 -23.5t19.5 -17t13.5 -14.5t5 -16z" />
    <glyph glyph-name="uni040E" unicode="&#x40e;" horiz-adv-x="608" 
d="M508 850q0 -30 -16 -50.5t-41.5 -34t-56.5 -19.5t-61 -6t-61 6.5t-56 20t-41 34t-16 49.5q0 23 13.5 36.5t37.5 13.5q30 0 47.5 -11.5t17.5 -49.5q0 -8 2.5 -16.5t8.5 -16t17.5 -12t29.5 -4.5q19 0 30.5 5t17.5 12t8 15.5t2 16.5q0 37 18 49t47 12q25 0 38.5 -13.5
t13.5 -36.5zM607 674q0 -8 -6 -16.5t-22 -8.5q-11 0 -19 -14.5t-16 -34.5l-185 -447q-24 -58 -45 -91t-40 -49.5t-36 -20.5t-33 -4q-25 0 -41 21t-16 51q0 38 13.5 52.5t30.5 14.5t26.5 -7t22.5 -7q17 0 31.5 9t21.5 38l-205 440q-11 21 -21.5 35t-22.5 14q-17 0 -22 7.5
t-5 17.5q0 18 17.5 26t34.5 8h144q17 0 34.5 -8t17.5 -26q0 -10 -4.5 -17.5t-21.5 -7.5q-7 0 -14 -4t-7 -16q0 -6 2.5 -14t5.5 -15l132 -300l107 308q4 11 4 18v12q0 11 -13 11q-14 0 -19.5 7t-5.5 18q0 21 17.5 27.5t33.5 6.5h70q23 0 38.5 -5.5t15.5 -28.5z" />
    <glyph glyph-name="uni040F" unicode="&#x40f;" horiz-adv-x="713" 
d="M679 33q0 -18 -17 -25.5t-34 -7.5h-172q-17 0 -26 -2t-13.5 -7.5t-5 -16.5t-0.5 -29q0 -6 1 -15t2.5 -19.5t3 -20t1.5 -15.5q0 -26 -14 -37.5t-31 -11.5t-32 10.5t-15 38.5q0 6 1 15.5t2.5 20t2.5 19.5t1 15q0 18 -0.5 29t-5 16.5t-13.5 7.5t-25 2h-174q-17 0 -34.5 7.5
t-17.5 25.5q0 11 4.5 18t21.5 7q8 0 13.5 8.5t5.5 28.5v516q0 23 -5.5 30.5t-13.5 7.5q-17 0 -21.5 7.5t-4.5 17.5q0 18 17.5 26t34.5 8h118q17 0 35 -8t18 -26q0 -10 -4.5 -17.5t-22.5 -7.5q-8 0 -13 -10.5t-5 -27.5v-516q0 -11 4 -19.5t20 -8.5h210q17 0 21 6.5t4 21.5
v516q0 23 -6 30.5t-13 7.5q-17 0 -21.5 7.5t-4.5 17.5q0 18 17.5 26t34.5 8h120q17 0 34 -8t17 -26q0 -10 -4.5 -17.5t-22.5 -7.5q-7 0 -12.5 -10.5t-5.5 -27.5v-516q0 -20 5.5 -28.5t12.5 -8.5q18 0 22.5 -7t4.5 -18z" />
    <glyph glyph-name="uni0410" unicode="&#x410;" horiz-adv-x="643" 
d="M318 597l-91 -275h165zM647 33q-2 -19 -17.5 -26t-36.5 -7h-133q-18 0 -34.5 7t-16.5 26q0 11 6 18t21 7q7 0 16 12.5t5 28.5l-48 161h-204l-54 -161q-3 -11 -3 -18q0 -15 6.5 -19t15.5 -4q14 0 20 -7t6 -18q0 -20 -16 -26.5t-37 -6.5h-89q-17 0 -32.5 7t-15.5 26
q0 11 4 18t21 7q11 0 22.5 14.5t19.5 34.5l192 505q0 16 -5.5 26t-12.5 10q-17 0 -22 7.5t-4 17.5q1 18 18 26.5t37 8.5h93q15 0 25.5 -5t18.5 -16t14.5 -28.5t14.5 -43.5l150 -510q5 -17 12.5 -32t15.5 -15q17 0 22 -7t5 -18z" />
    <glyph glyph-name="uni0411" unicode="&#x411;" horiz-adv-x="626" 
d="M468 214q0 77 -37.5 109.5t-99.5 32.5q-17 0 -33 -1.5t-28.5 -5t-20 -9.5t-7.5 -15v-234q0 -14 6.5 -18.5t17.5 -4.5h77q57 0 91 37.5t34 108.5zM611 226q0 -45 -12.5 -79t-33.5 -59t-48.5 -42t-56.5 -27t-58.5 -14.5t-54.5 -4.5h-232q-17 0 -34.5 10t-17.5 30
q0 10 5 17.5t22 7.5q7 0 13 9.5t6 26.5v511q0 17 -6 27t-13 10q-17 0 -22 7.5t-5 17.5q0 20 17.5 27t34.5 7h317q20 0 36.5 1t32.5 1q47 0 47 -40v-31t-4 -47q-3 -24 -8 -38.5t-10 -22t-11 -10t-10 -2.5q-11 0 -16.5 9.5t-10 23t-9.5 29.5t-14 30q-8 13 -20.5 19.5
t-28.5 8.5t-35 2h-40h-65q-16 0 -20 -7t-4 -23v-209q14 6 33 10q17 4 42 7.5t60 3.5q39 0 80.5 -10t75.5 -33.5t56 -61t22 -92.5z" />
    <glyph glyph-name="uni0412" unicode="&#x412;" horiz-adv-x="657" 
d="M477 205q0 38 -12 64t-33 41.5t-50 22t-63 6.5h-77v-248q0 -14 6.5 -18.5t17.5 -4.5h88q59 0 91 35.5t32 101.5zM453 530q0 41 -13 63.5t-32.5 33.5t-42.5 13t-42 2q-42 0 -55 -3q-8 -1 -17 -7.5t-9 -27.5v-204h85q37 0 61.5 10.5t38.5 28t20 41t6 50.5zM627 207
q0 -63 -26 -103t-64.5 -63.5t-81 -32t-75.5 -8.5h-265q-17 0 -34.5 7.5t-17.5 25.5q0 11 5 18t22 7q7 0 13 8t6 29v516q0 23 -6 30.5t-13 7.5q-17 0 -22 7.5t-5 17.5q0 18 17 26t35 8h106q17 0 50 1t79 1q42 0 85.5 -3.5t79 -19.5t58.5 -47.5t23 -86.5q0 -43 -17 -74.5
t-40.5 -52.5t-49 -33t-42.5 -16v-4q33 -3 65 -16t57.5 -34.5t41.5 -50.5t16 -65z" />
    <glyph glyph-name="uni0413" unicode="&#x413;" horiz-adv-x="509" 
d="M514 670v-31t-4 -47q-3 -24 -7.5 -38.5t-10 -22t-11 -10t-10.5 -2.5q-10 0 -16 9.5t-10.5 23t-9 29.5t-13.5 30q-8 13 -21 19.5t-29 8.5t-34.5 2h-39.5h-32q-16 0 -20 -7t-4 -23v-510q0 -15 5.5 -25.5t13.5 -10.5q17 0 22.5 -7.5t5.5 -17.5q0 -20 -16 -30t-38 -10h-120
q-17 0 -34.5 10t-17.5 30q0 10 5 17.5t22 7.5q7 0 13 9.5t6 26.5v511q0 28 -6 32.5t-13 4.5q-17 0 -22 7.5t-5 17.5q0 20 17.5 27t34.5 7h284q20 0 37 1t32 1q46 0 46 -40z" />
    <glyph glyph-name="uni0414" unicode="&#x414;" horiz-adv-x="690" 
d="M464 611q0 16 -4 23t-20 7h-123q-17 0 -21 -7t-4 -23t-1 -47.5t-3.5 -70t-6 -80.5t-9.5 -79q-15 -108 -41 -176t-47 -91h256q16 0 20 6.5t4 21.5v516zM669 41q0 -31 -3 -63t-9 -58.5t-16 -43t-25 -16.5q-12 0 -19 13t-11.5 31t-9 37t-10.5 31q-6 10 -12 16t-15 8.5
t-21.5 3t-30.5 0.5h-287q-24 0 -47 -3.5t-31 -24.5q-8 -20 -14 -39.5t-12 -36t-13.5 -26.5t-18.5 -10q-14 0 -21.5 16t-11.5 40.5t-4.5 53.5t-0.5 55q0 27 11 35t27 8q8 0 21.5 3.5t22.5 13.5q14 16 29 39.5t29 62.5t26.5 97t21.5 143q5 40 6 72.5t1 51.5q0 34 -6 53.5
t-13.5 29t-15.5 11.5t-12 2q-17 0 -21 7.5t-4 17.5q0 19 16.5 27.5t36.5 8.5h388q17 0 35 -7t18 -27q0 -10 -5 -17.5t-22 -7.5q-7 0 -13 -10t-6 -27v-510q0 -13 3.5 -20t8 -10t9.5 -3.5t9 -0.5q17 0 29.5 -2.5t12.5 -24.5z" />
    <glyph glyph-name="uni0415" unicode="&#x415;" horiz-adv-x="559" 
d="M563 156q0 -17 -6.5 -40.5t-15.5 -50.5q-7 -20 -12 -33t-11.5 -21t-16 -11.5t-24.5 -3.5q-16 0 -41.5 2t-68.5 2h-252q-17 0 -34.5 7.5t-17.5 25.5q0 11 5 18t22 7q7 0 13 10t6 27v516q0 23 -6 30.5t-13 7.5q-17 0 -22 7.5t-5 17.5q0 18 17.5 26t34.5 8h304q20 0 36.5 1
t31.5 1q47 0 47 -40v-31.5t-4 -46.5q-3 -24 -7.5 -38.5t-10 -22t-11 -10t-10.5 -2.5q-10 0 -16 9.5t-10.5 23t-9.5 29.5t-14 30q-8 13 -20.5 19t-28.5 8.5t-35 2.5h-40h-51q-17 0 -20.5 -9t-3.5 -21v-215l148 9q9 0 22 1.5t18 1.5q16 0 22.5 -6.5t6.5 -27.5t-13.5 -35
t-30.5 -14q-19 0 -45.5 3t-52.5 5q-11 1 -24 1.5t-24 1.5q-13 1 -27 1v-247q0 -15 10.5 -19t30.5 -4h69t49 5q16 4 28.5 10t25 16t25.5 25t29 39q11 16 17.5 20.5t14.5 4.5q10 0 14.5 -3t6 -8t1.5 -10.5v-9.5z" />
    <glyph glyph-name="uni0416" unicode="&#x416;" horiz-adv-x="945" 
d="M935 43q0 -25 -23.5 -38.5t-60.5 -13.5q-16 0 -28 4.5t-21 11t-16 14t-11 12.5q-14 18 -29.5 42t-32.5 52t-35.5 58t-36.5 59t-31.5 46.5t-23.5 28t-17 16t-13 8.5l-10 -5v-243q0 -21 5 -29t13 -8q18 0 22 -7t4 -18q0 -18 -17 -25.5t-34 -7.5h-110q-17 0 -34.5 7.5
t-17.5 25.5q0 11 4.5 18t22.5 7q7 0 12.5 8t5.5 29v243l-11 5q-6 -3 -13 -8.5t-17 -16t-23 -28t-31 -46.5q-19 -29 -37.5 -59t-35.5 -58t-33 -52t-29 -42q-4 -5 -10.5 -12.5t-15.5 -14t-21.5 -11t-28.5 -4.5q-36 0 -60 13.5t-24 38.5q0 8 6 16t15 16.5t19 18t19 21.5
q27 37 55.5 76t65.5 96l49 73.5t41 43.5q-32 23 -55.5 46t-42 45.5t-34.5 44.5t-34 45q-13 16 -24.5 28.5t-20 22.5t-13.5 19t-5 19q0 18 15 26t37 8h73q17 0 34.5 -8t17.5 -26q0 -10 -4 -13.5t-8.5 -7t-8 -9.5t-3.5 -20q0 -43 23 -82t54.5 -70.5t65 -53t53.5 -30.5v228
q0 18 -5.5 25.5t-12.5 7.5q-18 0 -22.5 7.5t-4.5 17.5q0 18 17.5 26t34.5 8h110q17 0 34 -8t17 -26q0 -10 -4 -17.5t-22 -7.5q-8 0 -13 -7.5t-5 -30.5v-223q20 9 53 30.5t64.5 53t54.5 70.5t23 82q0 14 -3.5 20t-8 9.5t-8 7t-3.5 13.5q0 18 17.5 26t34.5 8h73q21 0 36 -8
t15 -26q0 -10 -5 -19t-13.5 -19t-20 -22.5t-24.5 -28.5q-18 -23 -34 -45.5t-34.5 -45t-41.5 -45t-55 -45.5q19 -12 40 -43.5l49 -73.5q37 -57 65.5 -96t55.5 -76q9 -12 19 -21.5t19 -18t15 -16.5t6 -16z" />
    <glyph glyph-name="uni0417" unicode="&#x417;" horiz-adv-x="573" 
d="M537 194q0 -59 -22.5 -99.5t-59 -66t-84.5 -37t-99 -11.5q-46 0 -85 7t-68 21t-45.5 36.5t-16.5 54.5q0 18 3 35t8.5 30.5t14.5 21.5t21 8q19 0 27 -21.5t22 -51.5q19 -38 48 -58t64 -20q41 0 66 12.5t38 33.5t17 47.5t4 55.5q0 74 -31 108.5t-90 34.5q-19 0 -32 -1.5
t-22.5 -3t-18 -3t-18.5 -1.5q-28 0 -28 37q0 24 13 31.5t33 7.5q14 0 30 -1.5t34 -1.5q50 0 82.5 35t32.5 114q0 62 -25.5 88.5t-66.5 26.5q-33 0 -55 -9.5t-36.5 -23.5t-23.5 -30t-15 -30q-2 -4 -5 -14.5t-8 -21t-12.5 -18.5t-17.5 -8q-13 0 -20 9.5t-10 24.5t-3.5 32.5
t-0.5 32.5q0 41 15.5 59t38.5 28q13 6 31 11.5t38 10t41 7.5t39 3q39 0 81.5 -3t78 -19.5t58.5 -50.5t23 -96q0 -57 -41 -106.5t-116 -70.5v-5q81 -13 127.5 -60.5t46.5 -120.5z" />
    <glyph glyph-name="uni0418" unicode="&#x418;" horiz-adv-x="750" 
d="M710 33q0 -18 -17.5 -25.5t-34.5 -7.5h-120q-17 0 -34.5 7.5t-17.5 25.5q0 11 4.5 18t21.5 7q8 0 13.5 8t5.5 29v410l-289 -395v-15q0 -16 5 -26.5t13 -10.5q18 0 22.5 -7t4.5 -18q0 -18 -17.5 -25.5t-34.5 -7.5h-120q-17 0 -34.5 7.5t-17.5 25.5q0 11 5 18t22 7
q7 0 13 8t6 29v516q0 23 -6 30.5t-13 7.5q-17 0 -22 7.5t-5 17.5q0 18 17.5 26t34.5 8h120q17 0 34.5 -8t17.5 -26q0 -10 -4.5 -17.5t-22.5 -7.5q-8 0 -13 -10.5t-5 -27.5v-401l289 396v12q0 20 -5.5 25.5t-13.5 5.5q-17 0 -21.5 7.5t-4.5 17.5q0 18 17.5 26t34.5 8h120
q17 0 34.5 -8t17.5 -26q0 -10 -4.5 -17.5t-22.5 -7.5q-8 0 -13 -10t-5 -28v-516q0 -16 5 -26.5t13 -10.5q18 0 22.5 -7t4.5 -18z" />
    <glyph glyph-name="uni0419" unicode="&#x419;" horiz-adv-x="750" 
d="M710 33q0 -18 -17.5 -25.5t-34.5 -7.5h-120q-17 0 -34.5 7.5t-17.5 25.5q0 11 4.5 18t21.5 7q8 0 13.5 8t5.5 29v410l-289 -395v-15q0 -16 5 -26.5t13 -10.5q18 0 22.5 -7t4.5 -18q0 -18 -17.5 -25.5t-34.5 -7.5h-120q-17 0 -34.5 7.5t-17.5 25.5q0 11 5 18t22 7
q7 0 13 8t6 29v516q0 23 -6 30.5t-13 7.5q-17 0 -22 7.5t-5 17.5q0 18 17.5 26t34.5 8h120q17 0 34.5 -8t17.5 -26q0 -10 -4.5 -17.5t-22.5 -7.5q-8 0 -13 -10.5t-5 -27.5v-401l289 396v12q0 20 -5.5 25.5t-13.5 5.5q-17 0 -21.5 7.5t-4.5 17.5q0 18 17.5 26t34.5 8h120
q17 0 34.5 -8t17.5 -26q0 -10 -4.5 -17.5t-22.5 -7.5q-8 0 -13 -10t-5 -28v-516q0 -16 5 -26.5t13 -10.5q18 0 22.5 -7t4.5 -18zM562 850q0 -30 -16 -50.5t-41.5 -34t-56 -19.5t-60.5 -6t-61.5 6.5t-56.5 20t-41 34t-16 49.5q0 23 13.5 36.5t38.5 13.5q29 0 47 -11.5
t18 -49.5q0 -8 2 -16.5t8.5 -16t18 -12t29.5 -4.5q19 0 30.5 5t17.5 12t8 15.5t2 16.5q0 37 17.5 49t46.5 12q25 0 38.5 -13.5t13.5 -36.5z" />
    <glyph glyph-name="uni041A" unicode="&#x41a;" horiz-adv-x="661" 
d="M643 44q0 -24 -22.5 -38.5t-59.5 -14.5q-20 0 -34 4.5t-24.5 11t-17 14t-10.5 12.5q-11 15 -27.5 40t-35 53.5t-36.5 56t-31 47.5q-20 30 -34.5 50.5t-24.5 33t-17 19.5t-13 10l-14 -5v-243q0 -21 5 -29t13 -8q18 0 22.5 -7t4.5 -18q0 -18 -17.5 -25.5t-34.5 -7.5h-120
q-17 0 -34.5 7.5t-17.5 25.5q0 11 5 18t22 7q7 0 13 10t6 27v516q0 23 -6 30.5t-13 7.5q-17 0 -22 7.5t-5 17.5q0 18 17.5 26t34.5 8h120q17 0 34.5 -8t17.5 -26q0 -10 -4.5 -17.5t-22.5 -7.5q-8 0 -13 -7.5t-5 -30.5v-223q18 11 54 36t72.5 57.5t64 70t27.5 72.5
q0 14 -4 20t-8.5 9.5t-8 7t-3.5 13.5q0 18 17.5 26t35.5 8h72q22 0 36.5 -8t14.5 -26q0 -10 -5 -19t-13 -19t-19.5 -22.5t-24.5 -28.5q-36 -45 -77.5 -86.5t-102.5 -89.5q15 -17 37 -48.5t51 -72.5q29 -43 62.5 -90.5t61.5 -82.5q12 -14 23 -23.5t19.5 -17t13.5 -14.5t5 -16
z" />
    <glyph glyph-name="uni041B" unicode="&#x41b;" horiz-adv-x="655" 
d="M610 33q0 -18 -17 -25.5t-34 -7.5h-120q-17 0 -34 7.5t-17 25.5q0 11 4 18t22 7q8 0 13 8t5 29v516q0 16 -3.5 23t-19.5 7h-102q-23 0 -33.5 -9t-11.5 -39q0 -9 -0.5 -39t-1.5 -70.5t-4 -86t-8 -84.5q-7 -51 -15 -88t-16.5 -65t-18 -49.5t-19.5 -40.5q-15 -28 -31.5 -44
t-31.5 -24t-27.5 -10t-18.5 -2q-63 0 -63 76q0 36 13 51.5t30 15.5q14 0 23 -2.5t22 -2.5q26 0 49.5 48.5t34.5 150.5q5 44 8 89t3 80q0 57 -4 87.5t-11 45t-15 16.5t-17 2q-17 0 -21.5 7.5t-4.5 17.5q0 19 16.5 27.5t36.5 8.5h389q17 0 34 -7t17 -27q0 -10 -4 -17.5
t-21 -7.5q-8 0 -13.5 -10t-5.5 -27v-517q0 -16 5.5 -26.5t13.5 -10.5q17 0 21 -7t4 -18z" />
    <glyph glyph-name="uni041C" unicode="&#x41c;" horiz-adv-x="910" 
d="M890 33q0 -18 -17.5 -25.5t-34.5 -7.5h-120q-17 0 -34 7.5t-17 25.5q0 11 4 18t21 7q8 0 13.5 10t5.5 27v463l-218 -513q-3 -9 -7.5 -18.5t-10 -17.5t-12.5 -13.5t-16 -5.5q-20 -1 -29 13.5t-17 33.5l-228 522l6 -458q0 -25 7 -34t14 -9q18 0 21 -7t3 -18q0 -19 -17 -26
t-37 -7h-68q-17 0 -33 7t-16 26q0 11 6 18t24 7q16 0 16 43l6 509q0 21 -6 29t-13 8q-18 0 -22.5 7.5t-4.5 17.5q0 19 17.5 27.5t37.5 8.5h114q13 0 21.5 -3t13.5 -8.5t8 -13t6 -16.5l204 -492l210 500q1 3 4.5 9t9.5 11t16.5 9t25.5 4h87q21 0 38 -8.5t17 -26.5
q0 -10 -5.5 -17.5t-22.5 -7.5q-8 0 -12 -11t-4 -27v-515q0 -21 5 -29t13 -8q18 0 22.5 -7t4.5 -18z" />
    <glyph glyph-name="uni041D" unicode="&#x41d;" horiz-adv-x="725" 
d="M680 33q0 -18 -17.5 -25.5t-33.5 -7.5h-120q-17 0 -34.5 7.5t-17.5 25.5q0 11 4.5 18t21.5 7q8 0 13.5 8t5.5 29v245h-260v-245q0 -21 5 -29t13 -8q18 0 22.5 -7t4.5 -18q0 -18 -17.5 -25.5t-34.5 -7.5h-120q-17 0 -34.5 7.5t-17.5 25.5q0 11 5 18t22 7q7 0 13 10t6 27
v516q0 23 -6 30.5t-13 7.5q-17 0 -22 7.5t-5 17.5q0 18 17.5 26t34.5 8h120q17 0 34.5 -8t17.5 -26q0 -10 -4.5 -17.5t-22.5 -7.5q-8 0 -13 -7.5t-5 -30.5v-210h260v210q0 23 -5.5 30.5t-13.5 7.5q-17 0 -21.5 7.5t-4.5 17.5q0 18 17.5 26t34.5 8h120q16 0 33.5 -8t17.5 -26
q0 -10 -4.5 -17.5t-22.5 -7.5q-7 0 -12.5 -7.5t-5.5 -30.5v-516q0 -16 5.5 -26.5t12.5 -10.5q18 0 22.5 -7t4.5 -18z" />
    <glyph glyph-name="uni041E" unicode="&#x41e;" horiz-adv-x="709" 
d="M540 302q0 183 -41 271.5t-138 88.5q-42 0 -72.5 -19.5t-50 -53.5t-28.5 -80t-9 -100q0 -185 47 -273t130 -88q43 0 73.5 19t50 53t29 80.5t9.5 101.5zM681 370q0 -90 -23 -162t-65 -122t-101 -76.5t-131 -26.5q-62 0 -117 23.5t-96 69t-64.5 114t-23.5 158.5
q0 95 23.5 166t65.5 118.5t100.5 71t128.5 23.5q62 0 117 -20t96.5 -63t65.5 -110.5t24 -163.5z" />
    <glyph glyph-name="uni041F" unicode="&#x41f;" horiz-adv-x="718" 
d="M678 33q0 -18 -17 -25.5t-34 -7.5h-120q-17 0 -34.5 7.5t-17.5 25.5q0 11 4.5 18t21.5 7q8 0 13.5 8t5.5 29v516q0 16 -4 23t-21 7h-209q-16 0 -20 -9t-4 -21v-516q0 -16 5 -26.5t13 -10.5q18 0 22.5 -7t4.5 -18q0 -18 -17.5 -25.5t-34.5 -7.5h-120q-17 0 -34.5 7.5
t-17.5 25.5q0 11 5 18t22 7q7 0 13 8t6 29v516q0 23 -6 30.5t-13 7.5q-17 0 -22 7.5t-5 17.5q0 18 17.5 26t34.5 8h512q17 0 34 -8t17 -26q0 -10 -4.5 -17.5t-22.5 -7.5q-7 0 -12.5 -7.5t-5.5 -30.5v-516q0 -16 5.5 -26.5t12.5 -10.5q18 0 22.5 -7t4.5 -18z" />
    <glyph glyph-name="uni0420" unicode="&#x420;" horiz-adv-x="634" 
d="M467 507q0 33 -5.5 59t-22 44t-47 27.5t-81.5 9.5q-34 0 -51.5 -5t-17.5 -29v-233q0 -8 7.5 -13.5t20 -9.5t28 -5.5t30.5 -1.5q72 0 105.5 41.5t33.5 115.5zM608 516q0 -35 -13 -74.5t-43 -73.5t-80.5 -56t-125.5 -22q-25 0 -43.5 2.5t-32.5 6.5q-16 4 -28 9v-213
q0 -21 5 -29t13 -8q18 0 22.5 -7t4.5 -18q0 -18 -17.5 -25.5t-34.5 -7.5h-120q-17 0 -34.5 7.5t-17.5 25.5q0 11 5 18t22 7q7 0 13 10t6 27v516q0 23 -6 30.5t-13 7.5q-17 0 -22 7.5t-5 17.5q0 18 17.5 26t34.5 8h239q25 0 53.5 -1t57 -7t54 -17.5t45.5 -33t32 -54t12 -79.5
z" />
    <glyph glyph-name="uni0421" unicode="&#x421;" horiz-adv-x="635" 
d="M619 143q0 -20 -22.5 -49.5t-61.5 -58.5q-44 -32 -89 -42t-87 -10q-54 0 -108 18.5t-97 62t-70 115t-27 177.5q0 85 25 154t69 117t105 74t132 26q39 0 78.5 -9t76.5 -29q32 -18 49.5 -43.5t17.5 -61.5q0 -55 -16 -76.5t-35 -21.5q-12 0 -19.5 7.5t-13.5 19t-11.5 25.5
t-12.5 26q-17 30 -31.5 49.5t-30 30.5t-33.5 15t-42 4q-33 0 -63 -16t-53.5 -50.5t-37 -89t-13.5 -131.5q0 -79 13 -137.5t35 -95.5q15 -26 33 -41.5t36.5 -23.5t37 -10.5t34.5 -2.5q28 0 52 8t43.5 20t34.5 26.5t26 26.5q17 19 25 25.5t19 6.5q21 0 26.5 -12t5.5 -23z" />
    <glyph glyph-name="uni0422" unicode="&#x422;" horiz-adv-x="616" 
d="M587 654q0 -65 -11 -100t-33 -35q-10 0 -15.5 9t-9.5 22.5t-7.5 29t-9.5 27.5q-5 10 -12 16.5t-17.5 10.5t-26.5 5.5t-38 1.5h-28v-546q0 -21 5.5 -29t12.5 -8q18 0 22.5 -7t4.5 -18q0 -18 -17.5 -25.5t-34.5 -7.5h-120q-17 0 -34 7.5t-17 25.5q0 11 4.5 18t21.5 7
q8 0 13.5 10t5.5 27v546h-28q-45 0 -64.5 -7t-29.5 -27q-6 -12 -9.5 -27.5t-7.5 -29t-9.5 -22.5t-15.5 -9q-23 0 -33.5 35t-10.5 100q0 20 3.5 31.5t9 17t12.5 7t14 1.5q14 0 31.5 -1.5t38.5 -1.5h331q21 0 38.5 1.5t31.5 1.5q7 0 14 -1.5t12.5 -7t9 -17t3.5 -31.5z" />
    <glyph glyph-name="uni0423" unicode="&#x423;" horiz-adv-x="608" 
d="M607 674q0 -8 -6 -16.5t-22 -8.5q-11 0 -19 -14.5t-16 -34.5l-185 -447q-24 -58 -45 -91t-40 -49.5t-36 -20.5t-33 -4q-25 0 -41 21t-16 51q0 38 13.5 52.5t30.5 14.5t26.5 -7t22.5 -7q17 0 31.5 9t21.5 38l-205 440q-11 21 -21.5 35t-22.5 14q-17 0 -22 7.5t-5 17.5
q0 18 17.5 26t34.5 8h144q17 0 34.5 -8t17.5 -26q0 -10 -4.5 -17.5t-21.5 -7.5q-7 0 -14 -4t-7 -16q0 -6 2.5 -14t5.5 -15l132 -300l107 308q4 11 4 18v12q0 11 -13 11q-14 0 -19.5 7t-5.5 18q0 21 17.5 27.5t33.5 6.5h70q23 0 38.5 -5.5t15.5 -28.5z" />
    <glyph glyph-name="uni0424" unicode="&#x424;" horiz-adv-x="833" 
d="M362 564q-29 0 -61 -7t-58.5 -28.5t-44 -60.5t-17.5 -103q0 -71 17.5 -115t44.5 -68t58.5 -32t60.5 -8v422zM667 363q0 64 -17.5 103t-44 60.5t-58.5 28.5t-61 7v-422q27 0 58.5 8t59 32t45.5 68t18 115zM802 363q0 -69 -27.5 -121t-72 -86.5t-101 -51.5t-115.5 -17v-19
q0 -23 5.5 -30.5t13.5 -7.5q17 0 21.5 -7.5t4.5 -17.5q0 -18 -17.5 -26t-34.5 -8h-109q-17 0 -35 8t-18 26q0 10 5 17.5t22 7.5q7 0 12.5 7.5t5.5 30.5v21q-64 0 -121.5 15.5t-100.5 49t-68.5 86t-25.5 125.5q0 54 17 94t44.5 68t62.5 46t70 28t67 13.5t55 3.5v19
q0 23 -5.5 30.5t-12.5 7.5q-17 0 -22 7.5t-5 18.5q0 18 18 25t35 7h109q17 0 34.5 -7t17.5 -25q0 -11 -4.5 -18.5t-21.5 -7.5q-8 0 -13.5 -10.5t-5.5 -27.5v-21q26 0 59.5 -3.5t69 -13.5t69 -27.5t60 -45.5t42.5 -68t16 -95z" />
    <glyph glyph-name="uni0425" unicode="&#x425;" horiz-adv-x="627" 
d="M610 33q0 -18 -18 -25.5t-35 -7.5h-156q-16 0 -31.5 7.5t-15.5 25.5q0 11 4.5 18t21.5 7q5 0 8.5 3t3.5 13q0 12 -7 24l-93 182l-97 -167q-8 -13 -13 -21.5t-5 -17.5q0 -7 3.5 -13t9.5 -6q20 0 20 -22q0 -17 -15 -25t-36 -8h-86q-9 0 -18.5 1t-18 5t-14 10t-5.5 17t8 18
t22 7q9 0 21.5 13.5t27.5 35.5l160 234l-156 269q-11 20 -21 29.5t-22 9.5q-18 0 -22.5 7.5t-4.5 17.5q0 18 17.5 26t34.5 8h166q17 0 34 -8t17 -26q0 -10 -4.5 -17.5t-21.5 -7.5q-6 0 -13.5 -4t-7.5 -16q0 -6 1.5 -13t3.5 -11l80 -155l96 160q4 6 8 12.5t4 15.5
q0 11 -13 11q-17 0 -21 7t-4 18q0 18 16.5 26t33.5 8h86q22 0 37.5 -8t15.5 -26q0 -8 -5.5 -16.5t-21.5 -8.5q-11 0 -19.5 -10.5t-25.5 -33.5l-152 -215l157 -268q18 -32 29 -48t25 -16q17 0 22 -7t5 -18z" />
    <glyph glyph-name="uni0426" unicode="&#x426;" horiz-adv-x="743" 
d="M705 41q0 -31 -3 -63t-9 -58.5t-16 -43t-25 -16.5q-12 0 -18.5 13t-11.5 31t-9 37t-11 31q-11 21 -26.5 24.5t-52.5 3.5h-408q-17 0 -34.5 7.5t-17.5 25.5q0 11 5 18t22 7q7 0 13 8.5t6 28.5v516q0 23 -6 30.5t-13 7.5q-17 0 -22 7.5t-5 17.5q0 18 17.5 26t34.5 8h120
q17 0 34.5 -8t17.5 -26q0 -10 -4.5 -17.5t-22.5 -7.5q-8 0 -13 -10.5t-5 -27.5v-516q0 -11 4 -19.5t20 -8.5h209q17 0 21 6.5t4 21.5v516q0 23 -5.5 30.5t-13.5 7.5q-17 0 -21.5 7.5t-4.5 17.5q0 18 17.5 26t34.5 8h120q17 0 34 -8t17 -26q0 -10 -4.5 -17.5t-22.5 -7.5
q-7 0 -12.5 -10.5t-5.5 -27.5v-509q0 -13 3 -20t7.5 -10t10 -3.5t9.5 -0.5q17 0 29.5 -2.5t12.5 -24.5z" />
    <glyph glyph-name="uni0427" unicode="&#x427;" horiz-adv-x="695" 
d="M649 33q0 -18 -17.5 -25.5t-34.5 -7.5h-120q-17 0 -34 7.5t-17 25.5q0 11 4 18t21 7q8 0 13.5 8t5.5 29v242q-7 -6 -23.5 -17.5t-41 -23.5t-57.5 -21t-73 -9q-81 0 -130 41t-49 124v180q0 23 -5 30.5t-13 7.5q-18 0 -22.5 7.5t-4.5 17.5q0 18 17.5 26t34.5 8h120
q17 0 34 -8t17 -26q0 -10 -4 -17.5t-21 -7.5q-8 0 -13.5 -10.5t-5.5 -27.5v-146q0 -67 30 -93.5t81 -26.5q30 0 54 9t40.5 21.5t25.5 26.5t9 24v185q0 23 -6 30.5t-14 7.5q-17 0 -21 7.5t-4 17.5q0 18 17.5 26t34.5 8h120q17 0 34.5 -8t17.5 -26q0 -10 -4.5 -17.5
t-22.5 -7.5q-8 0 -13 -10.5t-5 -27.5v-516q0 -16 5 -26.5t13 -10.5q18 0 22.5 -7t4.5 -18z" />
    <glyph glyph-name="uni0428" unicode="&#x428;" horiz-adv-x="1044" 
d="M956 95q0 -16 5.5 -26.5t12.5 -10.5q18 0 22.5 -7t4.5 -18q0 -18 -17.5 -25.5t-33.5 -7.5h-834q-17 0 -34 6.5t-17 26.5q0 11 4 18t21 7q8 0 13.5 8t5.5 29v516q0 23 -6 30.5t-13 7.5q-17 0 -22 7.5t-5 17.5q0 18 17.5 26t34.5 8h120q17 0 34.5 -8t17.5 -26
q0 -10 -4.5 -17.5t-22.5 -7.5q-8 0 -13 -10.5t-5 -27.5v-516q0 -11 4 -19.5t20 -8.5h175q17 0 21 6.5t4 21.5v516q0 23 -5.5 30.5t-12.5 7.5q-18 0 -22.5 7.5t-4.5 17.5q0 18 17 26t34 8h120q17 0 34.5 -8t17.5 -26q0 -10 -4.5 -17.5t-21.5 -7.5q-8 0 -13.5 -8.5t-5.5 -29.5
v-515q0 -11 4 -19.5t21 -8.5h175q16 0 20 6.5t4 21.5v515q0 23 -5.5 30.5t-12.5 7.5q-18 0 -22.5 7.5t-4.5 17.5q0 18 17.5 26t34.5 8h119q17 0 34.5 -8t17.5 -26q0 -10 -4.5 -17.5t-22.5 -7.5q-7 0 -12.5 -8.5t-5.5 -29.5v-516z" />
    <glyph glyph-name="uni0429" unicode="&#x429;" horiz-adv-x="1064" 
d="M1027 41q0 -31 -2.5 -63t-8.5 -58.5t-15.5 -43t-24.5 -16.5q-12 0 -19 13t-12.5 31t-10 37t-10.5 31q-6 10 -11.5 16t-14 8.5t-21 3t-30.5 0.5h-731q-17 0 -34 6.5t-17 26.5q0 11 4 18t21 7q8 0 13.5 8t5.5 29v516q0 23 -6 30.5t-13 7.5q-17 0 -22 7.5t-5 17.5
q0 18 17.5 26t34.5 8h120q17 0 34.5 -8t17.5 -26q0 -10 -4.5 -17.5t-22.5 -7.5q-8 0 -13 -10.5t-5 -27.5v-516q0 -11 4 -19.5t20 -8.5h175q17 0 21 6.5t4 21.5v516q0 23 -5.5 30.5t-12.5 7.5q-18 0 -22.5 7.5t-4.5 17.5q0 18 17 26t34 8h120q17 0 34.5 -8t17.5 -26
q0 -10 -4.5 -17.5t-21.5 -7.5q-8 0 -13.5 -8.5t-5.5 -29.5v-515q0 -11 4 -19.5t21 -8.5h175q16 0 20 6.5t4 21.5v515q0 23 -5.5 30.5t-12.5 7.5q-18 0 -22.5 7.5t-4.5 17.5q0 18 17.5 26t34.5 8h119q17 0 34.5 -8t17.5 -26q0 -10 -4.5 -17.5t-22.5 -7.5q-7 0 -12.5 -8.5
t-5.5 -29.5v-509q0 -13 3 -20t7.5 -10t9.5 -3.5t9 -0.5q18 0 30 -2.5t12 -24.5z" />
    <glyph glyph-name="uni042A" unicode="&#x42a;" horiz-adv-x="756" 
d="M591 218q0 41 -10.5 68.5t-29 44t-43.5 23.5t-53 7q-17 0 -33 -2.5t-29 -7.5t-20.5 -11.5t-7.5 -15.5v-233q0 -14 7 -18.5t18 -4.5h53q76 0 112 39t36 111zM365 408q25 8 55 13t80 5q40 0 82 -10t76 -33t55.5 -60.5t21.5 -92.5q0 -71 -30.5 -116t-74.5 -70.5t-92 -34.5
t-83 -9h-216q-17 0 -34.5 7.5t-17.5 25.5q0 11 4.5 18t21.5 7q8 0 13 8t5 29v528q0 13 -1.5 16.5t-8.5 3.5h-12q-22 0 -36.5 -1t-25.5 -4.5t-19 -10.5t-17 -20q-7 -11 -12.5 -26.5t-11 -29.5t-12 -23.5t-16.5 -9.5q-22 0 -27.5 35.5t-5.5 100.5q0 20 3.5 31.5t9 17t12.5 7
t14 1.5q14 0 30 -1.5t38 -1.5h224q17 0 35 -8t18 -26q0 -10 -4.5 -17.5t-22.5 -7.5q-8 0 -13 -10.5t-5 -27.5v-203z" />
    <glyph glyph-name="uni042B" unicode="&#x42b;" horiz-adv-x="911" 
d="M469 218q0 41 -10.5 68.5t-29 44t-43.5 23.5t-54 7q-17 0 -33 -2.5t-29 -7.5t-20.5 -11.5t-7.5 -15.5v-233q0 -14 7 -18.5t18 -4.5h53q76 0 112.5 39t36.5 111zM612 230q0 -71 -30.5 -116t-74.5 -70.5t-92 -34.5t-83 -9h-216q-17 0 -34.5 7.5t-17.5 25.5q0 11 4.5 18
t21.5 7q8 0 13.5 8t5.5 29v516q0 23 -6 30.5t-13 7.5q-17 0 -22 7.5t-5 17.5q0 18 17.5 26t34.5 8h120q17 0 34.5 -8t17.5 -26q0 -10 -4.5 -17.5t-22.5 -7.5q-8 0 -13 -7.5t-5 -30.5v-203q25 8 55 13t80 5q40 0 82 -10t76 -33t55.5 -60.5t21.5 -92.5zM868 33
q0 -18 -17.5 -25.5t-34.5 -7.5h-120q-17 0 -34.5 7.5t-17.5 25.5q0 11 4.5 18t21.5 7q8 0 14 10t6 27v516q0 23 -6 30.5t-14 7.5q-17 0 -21.5 7.5t-4.5 17.5q0 18 17.5 26t34.5 8h120q17 0 34.5 -8t17.5 -26q0 -10 -4.5 -17.5t-22.5 -7.5q-8 0 -13 -7.5t-5 -30.5v-516
q0 -21 5 -29t13 -8q18 0 22.5 -7t4.5 -18z" />
    <glyph glyph-name="uni042C" unicode="&#x42c;" horiz-adv-x="616" 
d="M469 218q0 41 -10.5 68.5t-29 44t-43.5 23.5t-54 7q-17 0 -33 -2.5t-29 -7.5t-20.5 -11.5t-7.5 -15.5v-233q0 -14 7 -18.5t18 -4.5h53q76 0 112.5 39t36.5 111zM612 230q0 -71 -30.5 -116t-74.5 -70.5t-92 -34.5t-83 -9h-216q-17 0 -34.5 7.5t-17.5 25.5q0 11 4.5 18
t21.5 7q8 0 13.5 8t5.5 29v516q0 23 -6 30.5t-13 7.5q-17 0 -22 7.5t-5 17.5q0 18 17.5 26t34.5 8h120q17 0 34.5 -8t17.5 -26q0 -10 -4.5 -17.5t-22.5 -7.5q-8 0 -13 -7.5t-5 -30.5v-203q25 8 55 13t80 5q40 0 82 -10t76 -33t55.5 -60.5t21.5 -92.5z" />
    <glyph glyph-name="uni042D" unicode="&#x42d;" horiz-adv-x="627" 
d="M590 367q0 -74 -22.5 -143.5t-66 -123t-107 -85.5t-144.5 -32q-50 0 -89.5 10.5t-66.5 28t-41 41t-14 49.5q0 19 9 29t23 10q11 0 18 -3t12.5 -8t11 -12t13.5 -16q24 -25 55.5 -41t68.5 -16q91 0 144.5 73t55.5 211l-70 -9q-57 -7 -101.5 -12.5t-66.5 -5.5
q-11 0 -21.5 8.5t-10.5 25.5q0 24 10 35.5t24.5 15.5t29.5 3t26 -1l180 -5q0 38 -5 84.5t-23 87.5t-53 68.5t-96 27.5q-27 0 -47.5 -7.5t-36 -19t-27 -26.5t-18.5 -30q-12 -23 -19 -39.5t-13 -26.5t-13 -14.5t-18 -4.5t-18 9t-11 23.5t-5.5 33t-1.5 38.5q0 36 26 60.5t64 40
t80.5 22t75.5 6.5q67 0 122.5 -22t94.5 -66.5t60.5 -112t21.5 -159.5z" />
    <glyph glyph-name="uni042E" unicode="&#x42e;" horiz-adv-x="991" 
d="M820 302q0 87 -9 154t-29.5 113t-53.5 69.5t-82 23.5q-43 0 -72.5 -20.5t-48 -55.5t-27 -81t-8.5 -96q0 -84 10.5 -151t31.5 -113.5t53.5 -71.5t77.5 -25q43 0 72.5 21.5t48.5 57t27.5 81.5t8.5 94zM961 370q0 -90 -22 -162t-63.5 -122t-99.5 -76.5t-130 -26.5
q-62 0 -113.5 23.5t-90.5 69t-63 112t-29 152.5h-108v-245q0 -21 5 -29t13 -8q18 0 22.5 -7t4.5 -18q0 -18 -17.5 -25.5t-34.5 -7.5h-120q-17 0 -34.5 7.5t-17.5 25.5q0 11 5 18t22 7q7 0 13 10t6 27v516q0 23 -6 30.5t-13 7.5q-17 0 -22 7.5t-5 17.5q0 18 17.5 26t34.5 8
h120q17 0 34.5 -8t17.5 -26q0 -10 -4.5 -17.5t-22.5 -7.5q-8 0 -13 -7.5t-5 -30.5v-210h109q7 78 32 139t65.5 102.5t95 63t119.5 21.5q62 0 116.5 -23t95 -68.5t63.5 -112t23 -153.5z" />
    <glyph glyph-name="uni042F" unicode="&#x42f;" horiz-adv-x="656" 
d="M437 612q0 14 -7.5 21t-18.5 10t-24 3.5t-24 0.5q-83 0 -117 -34t-34 -111q0 -71 34 -109t106 -38h22t28 2.5t24.5 10t10.5 22.5v222zM615 33q0 -18 -17.5 -25.5t-34.5 -7.5h-120q-17 0 -34.5 7.5t-17.5 25.5q0 11 4.5 18t22.5 7q8 0 13 8.5t5 28.5v210l-38 -4
q-23 -9 -51 -46t-71 -100q-28 -41 -49 -72t-41 -53t-41.5 -33t-49.5 -11q-30 0 -54.5 9.5t-24.5 37.5q0 9 4.5 15t17 18t35 35.5t58.5 68.5l116 140q-24 6 -55 18.5t-58 35t-45.5 57.5t-18.5 86q0 69 29 109.5t71 60.5t88 25.5t80 5.5h223q22 0 38 -8t16 -26
q0 -10 -4.5 -17.5t-21.5 -7.5q-14 0 -16.5 -9.5t-2.5 -34.5v-510q0 -21 5.5 -29t13.5 -8q17 0 21.5 -7t4.5 -18z" />
    <glyph glyph-name="uni0430" unicode="&#x430;" horiz-adv-x="479" 
d="M285 251l-30 -14q-54 -25 -77 -49.5t-23 -66.5q0 -23 13.5 -39.5t36.5 -16.5q15 0 29.5 9t26 22.5t18 30t6.5 32.5v92zM450 32q0 -17 -17.5 -29t-46.5 -12q-10 0 -25 0.5t-30 7t-28 22t-18 44.5q-6 -9 -18 -22.5t-29.5 -26t-41 -21t-53.5 -8.5q-19 0 -39 5t-36.5 17.5
t-27 35t-10.5 57.5q0 28 7.5 49.5t24 39t42.5 32t63 28.5q17 7 37.5 15t38.5 17t30 19t12 22v45q0 39 -10.5 53.5t-28.5 14.5q-28 0 -51 -10q-20 -11 -34 -26.5t-26 -42.5q-10 -23 -16.5 -36t-22.5 -13q-12 0 -18.5 7t-10.5 19t-5 27t-1 30q0 26 7.5 42.5t26.5 26.5
q14 8 40 13t60 11q26 5 49 8t48 3q21 0 42 -4.5t37.5 -17.5t27 -35t10.5 -58v-291q0 -15 4 -26t11 -13q10 -2 18 -5.5t8 -13.5z" />
    <glyph glyph-name="uni0431" unicode="&#x431;" horiz-adv-x="540" 
d="M374 212q0 44 -3.5 86.5t-15 76t-32 54t-53.5 20.5q-27 0 -46 -14t-30 -38t-16 -56t-5 -68q0 -35 2.5 -75.5t12 -75.5t29 -58.5t53.5 -23.5q30 0 50 14t32 37.5t17 54.5t5 66zM504 250q0 -57 -19.5 -104.5t-52.5 -82.5t-76 -54.5t-90 -19.5q-66 0 -110 24.5t-70 65
t-37 93t-11 109.5q0 67 8 126.5t27 110t51 91.5t80 71q42 26 85.5 43t82.5 36q21 10 33 18t20 14t14.5 9t16.5 3q9 0 16 -7t7 -33q0 -15 -3.5 -32t-13.5 -34t-27.5 -33.5t-45.5 -29.5q-21 -10 -37.5 -16t-32 -12t-34 -13t-43.5 -18q-19 -8 -44.5 -23t-49 -38t-39.5 -56
t-16 -76h8q17 37 42 59.5t51 35t50.5 17t41.5 4.5q61 0 103 -20t67.5 -54.5t36.5 -79.5t11 -94z" />
    <glyph glyph-name="uni0432" unicode="&#x432;" horiz-adv-x="510" 
d="M345 142q0 13 -2.5 27.5t-12.5 27t-28.5 20.5t-50.5 8h-53v-129q0 -16 5.5 -28.5t17.5 -12.5h42q45 0 63.5 24.5t18.5 62.5zM332 355q0 11 -2 24t-8.5 24.5t-20.5 19t-38 7.5h-31q-17 0 -25.5 -3.5t-8.5 -20.5v-132h47q10 0 25 3t28.5 11.5t23.5 24.5t10 42zM475 138
q0 -46 -20 -73.5t-51.5 -41.5t-70 -18.5t-75.5 -4.5h-175q-17 0 -33.5 10t-16.5 28q0 9 4 16.5t21 7.5q8 0 12 4.5t4 29.5v293q0 20 -4 28t-12 8q-17 0 -21 6.5t-4 16.5q0 18 16.5 27.5t33.5 9.5h189q47 0 82.5 -4.5t59 -17t35.5 -34t12 -55.5q0 -30 -13 -51t-32 -35
t-40.5 -21t-38.5 -10v-4q18 -2 42 -7t45.5 -17.5t36 -34.5t14.5 -56z" />
    <glyph glyph-name="uni0433" unicode="&#x433;" horiz-adv-x="398" 
d="M382 423q0 -12 -2 -29t-6 -33t-11 -27.5t-17 -11.5q-14 0 -19 16.5t-10.5 36t-15 36t-31.5 16.5h-72v-331q0 -15 3.5 -24.5t10.5 -9.5q17 0 21.5 -7.5t4.5 -16.5q0 -18 -16.5 -28t-32.5 -10h-107q-49 0 -49 38q0 9 3.5 16.5t20.5 7.5t17 34v294q0 23 -4 29t-12 6
q-17 0 -21 6.5t-4 16.5q0 19 16.5 28t32.5 9h214q10 0 15.5 1t10 1.5t11 1.5t20.5 1t21.5 -16t7.5 -51z" />
    <glyph glyph-name="uni0434" unicode="&#x434;" horiz-adv-x="536" 
d="M328 406q0 21 -18 21h-68q-23 0 -27.5 -11t-4.5 -27v-65q0 -24 -3.5 -58t-11.5 -71t-21 -73.5t-32 -63.5h186v348zM516 27v-35t-3 -46.5t-11 -40.5t-24 -17q-10 0 -15.5 10.5t-9.5 25.5t-8.5 31t-13.5 28q-10 13 -21.5 15t-34.5 2h-242q-18 0 -28 -3.5t-15.5 -11.5
t-9 -20.5t-7.5 -30.5q-2 -6 -3.5 -14t-4.5 -15t-8 -12t-14 -5q-8 0 -15 10t-10 25q-7 34 -8 59t-1 48q0 16 5 24.5t23 8.5q20 0 49 29q12 13 23.5 40t19.5 60.5t13 71t5 72.5q0 36 -6.5 51.5t-21.5 26.5q-8 6 -15 8t-12.5 4.5t-9 7.5t-3.5 17q0 20 19.5 27t44.5 7h299
q26 0 37.5 -9.5t11.5 -24.5q0 -9 -4.5 -15.5t-20.5 -6.5q-15 0 -15 -31v-322q0 -10 4.5 -14t10.5 -5t13 0t12 1q16 0 20.5 -9.5t4.5 -21.5z" />
    <glyph glyph-name="uni0435" unicode="&#x435;" horiz-adv-x="477" 
d="M328 330q0 22 -4.5 42t-14 35t-24 24t-35.5 9q-30 0 -47.5 -15.5t-26 -36.5t-11 -43.5t-2.5 -36.5q0 -8 3 -9.5t7 -1.5h124q11 0 21 6.5t10 26.5zM452 298q0 -27 -10.5 -40.5t-43.5 -13.5h-235q0 -91 29 -141.5t86 -50.5q29 0 54.5 13.5t42.5 39.5q7 11 16 20t23 9
q15 0 22 -9t7 -20q0 -23 -25.5 -50.5t-73.5 -48.5q-21 -10 -43 -13.5t-55 -3.5q-57 0 -97.5 20.5t-66 55t-37 79.5t-11.5 94q0 76 20 126t52 80t71.5 42t77.5 12q41 0 77 -11.5t62.5 -35.5t42 -62t15.5 -91z" />
    <glyph glyph-name="uni0436" unicode="&#x436;" horiz-adv-x="730" 
d="M721 46q0 -25 -19.5 -39.5t-53.5 -14.5q-43 0 -74 43l-130 190h-19v-138q0 -14 3 -22.5t11 -8.5q17 0 21.5 -6.5t4.5 -15.5q0 -34 -49 -34h-97q-49 0 -49 34q0 9 3.5 15.5t20.5 6.5q16 0 16 31v138h-19l-129 -190q-30 -43 -74 -43q-35 0 -54.5 14.5t-19.5 39.5q0 9 5 15
t15 14.5t24.5 22t32.5 36.5q32 40 62 79.5t50 60.5q-8 7 -19 17.5t-23 23t-24.5 25t-22.5 23.5q-12 12 -24.5 25.5t-23 26t-17.5 23.5t-7 19q0 14 11.5 21t28.5 7h63q20 0 34 -7t14 -27q0 -8 -3.5 -10.5t-7.5 -5.5t-7.5 -9t-3.5 -20q0 -16 13 -37t32.5 -40.5t42 -35
t41.5 -19.5h10v124q0 31 -16 31q-17 0 -20.5 6.5t-3.5 15.5q0 15 13 24.5t36 9.5h97q26 0 37.5 -9.5t11.5 -24.5q0 -9 -4.5 -15.5t-21.5 -6.5q-14 0 -14 -31v-124h10q19 4 41.5 19.5t42 35t32.5 40.5t13 37q0 14 -3.5 20t-7 9t-7 5.5t-3.5 10.5q0 20 13.5 27t33.5 7h63
q17 0 28.5 -7t11.5 -21q0 -8 -7 -19t-17.5 -24t-23 -26t-23.5 -25q-10 -11 -22.5 -23.5l-25 -25t-23.5 -23t-18 -17.5q20 -21 49.5 -60.5t61.5 -79.5q18 -23 32.5 -36.5t24.5 -22t15 -14.5t5 -15z" />
    <glyph glyph-name="uni0437" unicode="&#x437;" horiz-adv-x="447" 
d="M417 131q0 -39 -19 -66.5t-48.5 -44t-66 -24t-70.5 -7.5q-58 0 -94 10.5t-52 22.5q-17 13 -26 28.5t-9 39.5q0 36 11 52t26 16t22 -7.5t11.5 -19t9.5 -26t17 -27.5q23 -27 43 -32.5t37 -5.5q19 0 33 8t23 21t13.5 29.5t4.5 32.5q0 20 -3.5 37t-14.5 29t-31 19t-52 7
q-9 0 -20 -2.5t-21 -2.5q-11 0 -15.5 6t-4.5 22q0 15 3.5 22t9.5 9.5t13.5 2t15.5 -0.5q14 0 25 -2t30 2q34 8 46 28.5t12 65.5q0 27 -8 42t-19 22t-22.5 8.5t-17.5 1.5q-35 0 -50.5 -15t-24.5 -32q-7 -14 -12.5 -26.5t-11 -22.5t-12.5 -15.5t-18 -5.5t-17.5 9.5t-9.5 23
t-4 27.5t-1 22q0 27 18 44t45 26.5t57.5 12.5t54.5 3q31 0 63 -5t57.5 -18t41.5 -35t16 -57q0 -33 -13.5 -56t-33.5 -38t-43.5 -24t-42.5 -13v-3q22 -1 48.5 -7.5t48.5 -20.5t37 -36t15 -54z" />
    <glyph glyph-name="uni0438" unicode="&#x438;" horiz-adv-x="567" 
d="M535 34q0 -34 -49 -34h-107q-49 0 -49 34q0 9 3.5 15.5t20.5 6.5t17 31v229l-173 -230v-9q0 -21 14 -21q17 0 21.5 -6.5t4.5 -15.5q0 -34 -49 -34h-107q-49 0 -49 34q0 9 3.5 15.5t20.5 6.5t17 31v305q0 35 -17 35t-20.5 7t-3.5 17q0 34 49 34h107q49 0 49 -34
q0 -10 -4.5 -17t-21.5 -7q-7 0 -10.5 -7t-3.5 -27v-223l173 231v9q0 19 -17 19t-20.5 6.5t-3.5 15.5q0 15 13 24.5t36 9.5h107q25 0 37 -9.5t12 -24.5q0 -9 -4.5 -15.5t-20.5 -6.5q-15 0 -15 -31v-311q0 -14 3.5 -22.5t11.5 -8.5q16 0 20.5 -6.5t4.5 -15.5z" />
    <glyph glyph-name="uni0439" unicode="&#x439;" horiz-adv-x="569" 
d="M535 34q0 -34 -49 -34h-107q-49 0 -49 34q0 9 3.5 15.5t20.5 6.5t17 31v229l-173 -230v-9q0 -21 14 -21q17 0 21.5 -6.5t4.5 -15.5q0 -34 -49 -34h-107q-49 0 -49 34q0 9 3.5 15.5t20.5 6.5t17 31v305q0 35 -17 35t-20.5 7t-3.5 17q0 34 49 34h107q49 0 49 -34
q0 -10 -4.5 -17t-21.5 -7q-7 0 -10.5 -7t-3.5 -27v-223l173 231v9q0 19 -17 19t-20.5 6.5t-3.5 15.5q0 15 13 24.5t36 9.5h107q25 0 37 -9.5t12 -24.5q0 -9 -4.5 -15.5t-20.5 -6.5q-15 0 -15 -31v-311q0 -14 3.5 -22.5t11.5 -8.5q16 0 20.5 -6.5t4.5 -15.5zM442 641
q0 -27 -16.5 -45.5t-41 -30t-52.5 -16.5t-51 -5q-24 0 -52 5t-52.5 16.5t-41 30t-16.5 45.5q0 45 53 45q18 0 28.5 -5t16.5 -13t8.5 -18t4.5 -20q2 -8 4.5 -15t7.5 -12.5t14 -8.5t25 -3t25.5 3.5t14 8.5t6 12t3.5 15q3 10 6 20.5t9 18t16.5 12.5t27.5 5q53 0 53 -45z" />
    <glyph glyph-name="uni043A" unicode="&#x43a;" horiz-adv-x="507" 
d="M498 46q0 -25 -19.5 -39.5t-53.5 -14.5q-23 0 -41 11t-34 32l-138 190h-14v-138q0 -31 14 -31q17 0 21.5 -6.5t4.5 -15.5q0 -34 -49 -34h-107q-49 0 -49 34q0 9 3.5 15.5t20.5 6.5t17 31v311q0 31 -17 31t-20.5 6.5t-3.5 15.5q0 15 12.5 24.5t36.5 9.5h107q25 0 37 -9.5
t12 -24.5q0 -9 -4.5 -15.5t-21.5 -6.5q-14 0 -14 -31v-124h14q19 4 42 18.5t42.5 33t32.5 40t13 40.5q0 14 -3 21t-6 11t-6 7.5t-3 11.5q0 21 13.5 24.5t33.5 3.5h63q17 0 28.5 -7t11.5 -21q0 -8 -7 -19t-17.5 -23.5t-23 -26t-24.5 -25.5q-10 -11 -22 -23.5l-24 -25
t-23.5 -23t-18.5 -17.5q20 -21 50.5 -59t60.5 -80q19 -26 32.5 -39t22.5 -21t13.5 -13.5t4.5 -15.5z" />
    <glyph glyph-name="uni043B" unicode="&#x43b;" horiz-adv-x="534" 
d="M498 34q0 -34 -48 -34h-108q-49 0 -49 34q0 9 3.5 15.5t20.5 6.5t17 31v319q0 6 -4 13.5t-13 7.5h-68q-23 0 -28 -11t-5 -27v-85q0 -24 -3 -56.5t-10 -67.5t-18 -69.5t-27.5 -61.5t-39 -44t-51.5 -17t-45 15.5t-16 52.5q0 32 10 43t28 11q6 0 9.5 -1.5t7 -4t9 -4
t16.5 -1.5q13 0 25.5 11.5t22 37t15.5 67t5 101.5q0 37 -6.5 62t-21.5 36q-8 6 -15 8t-12.5 4.5t-9 7.5t-3.5 17q0 20 19.5 27t44.5 7h300q26 0 37 -9.5t11 -24.5q0 -9 -4.5 -15.5t-21.5 -6.5q-14 0 -14 -31v-311q0 -14 3.5 -22.5t10.5 -8.5q17 0 21.5 -6.5t4.5 -15.5z" />
    <glyph glyph-name="uni043C" unicode="&#x43c;" horiz-adv-x="699" 
d="M665 34q0 -34 -50 -34h-105q-49 0 -49 34q0 9 3.5 15.5t20.5 6.5t17 31v276l-132 -310q-10 -23 -20.5 -42t-29.5 -19q-9 0 -15.5 6t-12 15t-9.5 19t-7 18l-136 313v-267q0 -36 14 -39q16 -3 21.5 -9.5t5.5 -17.5q0 -17 -14 -23.5t-30 -6.5h-63q-17 0 -29.5 8t-12.5 26
q0 17 25 23q13 3 15 12t2 27l9 294q1 20 -4 29.5t-12 9.5q-13 0 -18.5 6.5t-5.5 15.5q0 20 16 27t31 7h97q11 0 19 0.5t15 -15.5l130 -317l138 316q4 8 13.5 12t16.5 4h96q26 0 38 -9.5t12 -24.5q0 -9 -5 -15.5t-21 -6.5q-14 0 -14 -31v-311q0 -14 3.5 -22.5t10.5 -8.5
q16 0 21 -6.5t5 -15.5z" />
    <glyph glyph-name="uni043D" unicode="&#x43d;" horiz-adv-x="548" 
d="M515 34q0 -16 -12.5 -25t-26.5 -9h-126q-18 0 -29 9t-11 25q0 9 3.5 15.5t20.5 6.5t17 31v142h-153v-142q0 -14 3.5 -22.5t10.5 -8.5q17 0 21.5 -6.5t4.5 -15.5q0 -16 -12.5 -25t-26.5 -9h-127q-17 0 -28 9t-11 25q0 9 3.5 15.5t20.5 6.5t17 31v312q0 17 -3.5 23.5
t-13.5 6.5q-17 0 -20.5 6.5t-3.5 14.5q0 16 11 25.5t28 9.5h127q14 0 26.5 -9.5t12.5 -25.5q0 -8 -4.5 -14.5t-21.5 -6.5q-7 0 -10.5 -8.5t-3.5 -22.5v-116h153v116q0 31 -17 31t-20.5 6.5t-3.5 14.5q0 16 11 25.5t29 9.5h126q14 0 26.5 -9.5t12.5 -25.5q0 -8 -4.5 -14.5
t-20.5 -6.5t-16 -30l1 -312q0 -31 15 -31q16 0 20.5 -6.5t4.5 -15.5z" />
    <glyph glyph-name="uni043E" unicode="&#x43e;" horiz-adv-x="511" 
d="M353 212q0 46 -4.5 88.5t-16 74.5t-30 51.5t-46.5 20.5q-32 0 -51 -14t-29 -38.5t-13 -56t-3 -65.5q0 -46 4.5 -88t16 -74.5t30 -51.5t45.5 -19q30 0 49 14.5t29.5 38.5t14.5 55t4 64zM486 250q0 -61 -18 -109.5t-48.5 -82t-72 -51.5t-88.5 -18q-68 0 -112.5 22.5
t-70.5 58t-37 79.5t-11 88q0 61 16.5 109.5t46.5 82.5t71.5 51.5t91.5 17.5q64 0 108.5 -21.5t72 -56t39.5 -79.5t12 -91z" />
    <glyph glyph-name="uni043F" unicode="&#x43f;" horiz-adv-x="548" 
d="M515 34q0 -16 -12 -25t-27 -9h-126q-17 0 -28.5 9t-11.5 25q0 9 4 15.5t21 6.5q16 0 16 31v319q0 13 -2.5 17t-13.5 4h-121q-10 0 -13 -5t-3 -16v-319q0 -14 3.5 -22.5t10.5 -8.5q17 0 21.5 -6.5t4.5 -15.5q0 -16 -12.5 -25t-26.5 -9h-127q-17 0 -28 9t-11 25
q0 9 3.5 15.5t20.5 6.5t17 31v311q0 31 -15 31q-16 0 -20.5 6.5t-4.5 15.5q0 15 12 24.5t37 9.5h384q25 0 36.5 -9.5t11.5 -24.5q0 -9 -4.5 -15.5t-20.5 -6.5q-15 0 -15 -31v-311q0 -31 15 -31q16 0 20.5 -6.5t4.5 -15.5z" />
    <glyph glyph-name="uni0440" unicode="&#x440;" horiz-adv-x="555" 
d="M395 238q0 37 -5 71t-17 60.5t-32.5 42t-52.5 15.5q-38 0 -64 -29t-26 -93v-135q0 -32 8 -55t21 -38t29 -22t32 -7q61 0 84 49.5t23 140.5zM527 257q0 -59 -16 -108.5t-44 -85t-67 -55t-85 -19.5q-35 0 -66 9.5t-51 33.5v-207q0 -31 14 -31q17 0 21.5 -6.5t4.5 -15.5
q0 -34 -49 -34h-107q-49 0 -49 34q0 9 3.5 15.5t20.5 6.5t17 31v565q0 15 -3.5 24.5t-11.5 9.5q-16 0 -21 7t-5 18q0 17 17 26.5t33 9.5h77q17 0 25 -11t8 -46q23 34 57.5 52t82.5 18q44 0 79.5 -17.5t61 -49t39.5 -76t14 -98.5z" />
    <glyph glyph-name="uni0441" unicode="&#x441;" horiz-adv-x="464" 
d="M444 105q0 -17 -12.5 -37t-37 -37.5t-60 -29.5t-81.5 -12q-54 0 -94.5 18.5t-67.5 52t-41 80t-14 103.5q0 70 21.5 119t55.5 79t75.5 43.5t80.5 13.5q28 0 63.5 -4t63.5 -18q20 -9 27 -20.5t7 -30.5q0 -11 -3 -26t-9 -28.5t-15.5 -23.5t-21.5 -10q-15 0 -23 17t-18 38
t-26 38t-47 17q-48 0 -73.5 -51t-25.5 -148q0 -41 7 -77t21 -62.5t36.5 -41.5t53.5 -15q26 0 49.5 14.5t40.5 38.5q7 11 15.5 19t22.5 8q13 0 21.5 -8t8.5 -19z" />
    <glyph glyph-name="uni0442" unicode="&#x442;" horiz-adv-x="479" 
d="M457 423q0 -12 -1.5 -29t-6 -33t-11.5 -27.5t-17 -11.5q-13 0 -18.5 16.5t-10.5 36t-15 36t-32 16.5h-43v-340q0 -14 3.5 -22.5t10.5 -8.5q17 0 21.5 -6.5t4.5 -15.5q0 -16 -12 -25t-27 -9h-127q-17 0 -28 9t-11 25q0 9 4 15.5t21 6.5q16 0 16 31v340h-43
q-22 0 -31.5 -16.5t-15 -36t-11 -36t-18.5 -16.5q-10 0 -17 11.5t-11 27.5t-5.5 33t-1.5 29q0 35 6.5 51t20.5 16q20 0 31 -2.5t28 -2.5h261q16 0 27 2.5t31 2.5q14 0 21 -16t7 -51z" />
    <glyph glyph-name="uni0443" unicode="&#x443;" horiz-adv-x="505" 
d="M505 451q0 -9 -5 -15.5t-22 -6.5q-12 0 -28 -43l-129 -376q-22 -65 -41.5 -115t-40 -84.5t-43.5 -52.5t-52 -18q-18 0 -30 6.5t-19.5 16.5t-10.5 23t-3 26q0 29 12.5 39.5t24.5 10.5t23 -3.5t30 -3.5q29 0 42 23.5t13 63.5q0 8 -4 23t-9 30.5t-10.5 30t-8.5 21.5
l-127 317q-11 27 -19.5 46t-18.5 19q-15 0 -19.5 6.5t-4.5 15.5q0 20 15.5 27t32.5 7h118q21 0 36 -6t15 -28q0 -15 -9.5 -18.5t-17.5 -3.5q-9 0 -9 -18q0 -22 17 -65l92 -255l82 301q2 5 3 11.5t1 14.5q0 11 -8 11q-16 0 -21 6.5t-5 15.5q0 23 14.5 28.5t34.5 5.5h59
q15 0 32.5 -7.5t17.5 -26.5z" />
    <glyph glyph-name="uni0444" unicode="&#x444;" horiz-adv-x="710" 
d="M297 440q-79 0 -109 -47t-30 -141q0 -49 6.5 -87.5t22 -65.5t42.5 -41.5t68 -14.5v397zM554 252q0 94 -29.5 141t-108.5 47v-397q41 0 67.5 14.5t42.5 41.5t22 65.5t6 87.5zM680 252q0 -60 -19 -108.5t-53.5 -83t-83.5 -53t-108 -18.5v-151q0 -14 3 -22t11 -8
q17 0 21.5 -7t4.5 -15q0 -16 -12 -25.5t-36 -9.5h-103q-24 0 -36.5 9.5t-12.5 25.5q0 8 4 15t21 7q16 0 16 30v151q-60 0 -108.5 18.5t-83 53t-53.5 83t-19 108.5q0 76 28 124t68.5 75t86.5 37t81 10v124q0 22 -8.5 25.5t-18.5 3.5q-16 0 -19.5 7.5t-3.5 15.5q0 15 10.5 25
t47.5 10h64q23 0 33 -6t13 -17.5t2 -27.5t-1 -36v-124q35 0 81 -10t86.5 -37t68.5 -75t28 -124z" />
    <glyph glyph-name="uni0445" unicode="&#x445;" horiz-adv-x="486" 
d="M474 31q0 -17 -12 -24t-32 -7h-121q-8 0 -17.5 1t-17.5 4.5t-13.5 10t-5.5 18.5q0 8 4.5 12t10.5 7t10.5 6t4.5 11q0 11 -1.5 16.5t-11.5 21.5l-48 82l-61 -86q-8 -11 -10.5 -18.5t-2.5 -15.5q0 -5 4.5 -8.5t10 -6.5t10 -8t4.5 -13q0 -19 -12.5 -26.5t-29.5 -7.5h-83
q-22 0 -33 7t-11 24q0 13 10.5 20l22.5 15q8 5 25.5 19t36.5 37l88 112l-99 152q-13 20 -21 27t-25 12q-25 6 -25 26t16 27t31 7h122q10 0 19 -1t16.5 -4t11.5 -10t4 -19q0 -7 -4 -11t-9 -6t-9.5 -4t-5.5 -5q-3 -11 3.5 -24.5t13.5 -27.5l33 -61l54 79q9 13 9 27q0 5 -4 8.5
t-9 6.5t-9 8t-4 13q0 18 14 24.5t34 6.5h75q13 0 28 -6t15 -28q-1 -9 -7 -15t-24 -11q-27 -9 -50 -40l-93 -119l109 -166q13 -19 22.5 -29.5t23.5 -14.5t19.5 -9.5t5.5 -15.5z" />
    <glyph glyph-name="uni0446" unicode="&#x446;" horiz-adv-x="559" 
d="M541 30v-35.5t-3 -47t-11 -41.5t-24 -18q-12 0 -17.5 10.5t-9 25.5t-7.5 31.5t-13 27.5q-11 13 -22.5 15t-34.5 2h-316q-17 0 -33.5 8.5t-16.5 25.5q0 8 4 15t21 7q16 0 16 31v312q0 30 -17 30t-20.5 6.5t-3.5 15.5q0 15 12.5 24.5t36.5 9.5h107q25 0 37 -9.5t12 -24.5
q0 -9 -4.5 -15.5t-21.5 -6.5q-14 0 -14 -31v-318q0 -11 3 -16.5t13 -5.5h121q11 0 13.5 4t2.5 18v318q0 31 -16 31q-17 0 -21 6.5t-4 15.5q0 15 13 24.5t36 9.5h108q25 0 36.5 -9.5t11.5 -24.5q0 -9 -4.5 -15.5t-20.5 -6.5q-15 0 -15 -31v-325q0 -8 5 -11.5t11.5 -4.5
t13.5 0t10 1q17 0 21.5 -9t4.5 -19z" />
    <glyph glyph-name="uni0447" unicode="&#x447;" horiz-adv-x="537" 
d="M501 34q0 -16 -12.5 -25t-26.5 -9h-127q-18 0 -28.5 9t-10.5 25q0 9 4 15.5t21 6.5q16 0 16 31v139q-9 -8 -23.5 -16.5t-32.5 -16.5t-38.5 -13t-41.5 -5q-69 0 -102 29t-33 94v100q0 31 -17 31t-20.5 6.5t-3.5 15.5q0 15 12.5 24.5t35.5 9.5h107q25 0 37 -9.5t12 -24.5
q0 -9 -4.5 -15.5t-20.5 -6.5q-15 0 -15 -31v-71q0 -43 10.5 -63t45.5 -20q20 0 37 6.5t29 16.5t19 23t7 25v83q0 31 -16 31q-17 0 -21 6.5t-4 15.5q0 15 12.5 24.5t36.5 9.5h107q25 0 37 -9.5t12 -24.5q0 -9 -4.5 -15.5t-21.5 -6.5q-14 0 -14 -31v-311q0 -14 3.5 -22.5
t10.5 -8.5q17 0 21.5 -6.5t4.5 -15.5z" />
    <glyph glyph-name="uni0448" unicode="&#x448;" horiz-adv-x="798" 
d="M767 34q0 -34 -49 -34h-636q-49 0 -49 34q0 9 3.5 15.5t20.5 6.5t17 31v311q0 24 -3.5 27.5t-13.5 3.5q-17 0 -20.5 6.5t-3.5 15.5q0 15 12.5 24.5t36.5 9.5h107q25 0 37 -9.5t12 -24.5q0 -9 -5 -15.5t-21 -6.5q-14 0 -14 -31v-318q0 -11 3 -16.5t13 -5.5h108
q11 0 13.5 4t2.5 18v318q0 24 -4 27.5t-12 3.5q-17 0 -21 6.5t-4 15.5q0 15 12.5 24.5t36.5 9.5h107q25 0 37 -9.5t12 -24.5q0 -9 -4.5 -15.5t-21.5 -6.5q-14 0 -14 -31v-318q0 -11 3 -16.5t13 -5.5h108q11 0 13.5 4t2.5 18v318q0 24 -4 27.5t-12 3.5q-17 0 -21 6.5t-4 15.5
q0 15 13 24.5t36 9.5h107q26 0 37.5 -9.5t11.5 -24.5q0 -9 -4.5 -15.5t-21.5 -6.5q-14 0 -14 -31v-311q0 -31 16 -31q17 0 21 -6.5t4 -15.5z" />
    <glyph glyph-name="uni0449" unicode="&#x449;" horiz-adv-x="818" 
d="M792 30v-35.5t-3 -47t-11 -41.5t-24 -18q-12 0 -17 10.5t-9 25.5t-7.5 31.5t-12.5 27.5q-11 13 -22.5 15t-34.5 2h-569q-49 0 -49 34q0 9 3.5 15.5t20.5 6.5t17 31v311q0 24 -3.5 27.5t-13.5 3.5q-17 0 -20.5 6.5t-3.5 15.5q0 15 12.5 24.5t36.5 9.5h107q25 0 37 -9.5
t12 -24.5q0 -9 -5 -15.5t-21 -6.5q-14 0 -14 -31v-318q0 -11 3 -16.5t13 -5.5h108q11 0 13.5 4t2.5 18v318q0 24 -4 27.5t-12 3.5q-17 0 -21 6.5t-4 15.5q0 15 12.5 24.5t36.5 9.5h107q25 0 37 -9.5t12 -24.5q0 -9 -4.5 -15.5t-21.5 -6.5q-14 0 -14 -31v-318q0 -11 3 -16.5
t13 -5.5h108q11 0 13.5 4t2.5 18v318q0 24 -4 27.5t-12 3.5q-17 0 -21 6.5t-4 15.5q0 15 13 24.5t36 9.5h107q26 0 37.5 -9.5t11.5 -24.5q0 -9 -4.5 -15.5t-21.5 -6.5q-14 0 -14 -31v-325q0 -8 5 -11.5t11.5 -4.5t13.5 0t11 1q17 0 21 -9t4 -19z" />
    <glyph glyph-name="uni044A" unicode="&#x44a;" horiz-adv-x="605" 
d="M444 159q0 50 -20 74t-58 24q-16 0 -28 -1.5t-20 -3.5q-10 -3 -16 -5v-152q0 -28 5 -34t18 -6h32q87 0 87 104zM574 174q0 -39 -12 -71t-37.5 -55t-65 -35.5t-95.5 -12.5h-178q-49 0 -49 34q0 9 4 15.5t21 6.5q16 0 16 31v310q0 17 -2.5 23t-12.5 6h-33q-22 0 -34 -16.5
t-20.5 -36t-17 -35.5t-23.5 -16q-10 0 -15 12.5t-5 29.5q0 23 1 45.5t5.5 40.5t13 29t22.5 11q15 0 29.5 -2.5t28.5 -2.5h174q25 0 37.5 -9.5t12.5 -24.5q0 -9 -4.5 -15.5t-21.5 -6.5q-8 0 -9.5 -9t-1.5 -24v-96q12 4 29 8q14 3 34.5 5.5t46.5 2.5q13 0 40 -5t54 -20
t47.5 -43t20.5 -74z" />
    <glyph glyph-name="uni044B" unicode="&#x44b;" horiz-adv-x="728" 
d="M340 159q0 50 -20.5 74t-58.5 24q-16 0 -27.5 -1.5t-19.5 -3.5q-10 -3 -16 -5v-152q0 -28 5 -34t17 -6h33q87 0 87 104zM470 174q0 -39 -11.5 -71t-37 -55t-65.5 -35.5t-97 -12.5h-177q-49 0 -49 34q0 9 3.5 15.5t20.5 6.5t17 31v312q0 30 -17 30t-20.5 6.5t-3.5 15.5
q0 15 12.5 24.5t36.5 9.5h107q25 0 37 -9.5t12 -24.5q0 -9 -4.5 -15.5t-21.5 -6.5q-14 0 -14 -31v-98q12 4 29 8q14 3 34.5 5.5t46.5 2.5q13 0 40 -5t54 -20t47.5 -43t20.5 -74zM696 34q0 -34 -48 -34h-108q-49 0 -49 34q0 9 3.5 15.5t20.5 6.5t17 31v311q0 31 -17 31
t-20.5 6.5t-3.5 15.5q0 15 13 24.5t36 9.5h108q25 0 36.5 -9.5t11.5 -24.5q0 -9 -4.5 -15.5t-20.5 -6.5q-15 0 -15 -31v-311q0 -14 4 -22.5t11 -8.5q16 0 20.5 -6.5t4.5 -15.5z" />
    <glyph glyph-name="uni044C" unicode="&#x44c;" horiz-adv-x="493" 
d="M340 159q0 50 -20.5 74t-58.5 24q-16 0 -27.5 -1.5t-19.5 -3.5q-10 -3 -16 -5v-152q0 -28 5 -34t17 -6h33q87 0 87 104zM470 174q0 -39 -11.5 -71t-37 -55t-65.5 -35.5t-97 -12.5h-177q-49 0 -49 34q0 9 3.5 15.5t20.5 6.5t17 31v312q0 30 -17 30t-20.5 6.5t-3.5 15.5
q0 15 12.5 24.5t36.5 9.5h107q25 0 37 -9.5t12 -24.5q0 -9 -4.5 -15.5t-21.5 -6.5q-14 0 -14 -31v-98q12 4 29 8q14 3 34.5 5.5t46.5 2.5q13 0 40 -5t54 -20t47.5 -43t20.5 -74z" />
    <glyph glyph-name="uni044D" unicode="&#x44d;" horiz-adv-x="481" 
d="M452 263q0 -66 -20 -117.5t-53.5 -86t-79 -52.5t-96.5 -18q-41 0 -71.5 10t-51 24.5t-31 30.5t-10.5 29q0 15 7 24.5t24 9.5q11 0 19.5 -10.5t21.5 -23.5t32.5 -23.5t51.5 -10.5q63 0 94 49t31 130q-35 -6 -65 -10q-26 -4 -50.5 -6.5t-34.5 -2.5q-20 0 -24 9.5t-4 20.5
q0 25 14 33t55 6l109 -7q0 17 -3 47t-13.5 59t-30.5 50.5t-55 21.5q-24 0 -40.5 -8.5t-28 -21t-19 -26.5t-13.5 -25q-9 -19 -18 -29t-21 -10q-18 0 -25 20.5t-7 52.5q0 18 6 30.5t16 21.5t22 14.5t24 9.5q29 9 53.5 14.5t58.5 5.5q60 0 103 -19.5t70 -51.5t40 -75t13 -89z
" />
    <glyph glyph-name="uni044E" unicode="&#x44e;" horiz-adv-x="757" 
d="M597 212q0 46 -5 88.5t-16 74.5t-29.5 51.5t-46.5 20.5q-32 0 -51 -14t-29 -38.5t-13 -56t-3 -65.5q0 -46 4.5 -88t16 -74.5t30 -51.5t45.5 -19q30 0 49 14.5t29.5 38.5t14.5 55t4 64zM731 250q0 -59 -18 -107.5t-48.5 -82.5t-72 -52.5t-88.5 -18.5q-61 0 -105 20t-72 53
t-41.5 76.5t-14.5 90.5h-73v-142q0 -14 3 -22.5t11 -8.5q17 0 21.5 -6.5t4.5 -15.5q0 -34 -49 -34h-107q-49 0 -49 34q0 9 3.5 15.5t20.5 6.5t17 31v311q0 31 -17 31t-20.5 6.5t-3.5 15.5q0 15 12.5 24.5t36.5 9.5h107q25 0 37 -9.5t12 -24.5q0 -9 -4.5 -15.5t-21.5 -6.5
q-14 0 -14 -31v-117h75q7 55 27.5 96t50 68t67.5 40t81 13q66 0 110.5 -20t71.5 -54.5t38.5 -79.5t11.5 -94z" />
    <glyph glyph-name="uni044F" unicode="&#x44f;" horiz-adv-x="510" 
d="M315 399q0 20 -11 27t-23 7q-23 0 -41.5 -3.5t-31.5 -14t-19.5 -29.5t-6.5 -51q0 -29 6 -48t18.5 -29.5t31 -14.5t43.5 -4q17 0 25.5 2t8.5 14v144zM479 34q0 -34 -49 -34h-106q-50 0 -50 34q0 9 4 15.5t21 6.5q16 0 16 31v107l-27 -3l-121 -165q-16 -22 -36 -29.5
t-46 -7.5q-28 0 -50 9t-22 32q0 10 6.5 17.5t18.5 17t27.5 22t33.5 33.5l75 87q-14 2 -35 9.5t-40.5 22.5t-33.5 40.5t-14 63.5q0 42 17.5 69.5t45 43.5t62 22.5t69.5 6.5h185q26 0 37.5 -9.5t11.5 -24.5q0 -9 -4.5 -15.5t-20.5 -6.5q-15 0 -15 -31v-311q0 -14 3.5 -22.5
t11.5 -8.5q16 0 20.5 -6.5t4.5 -15.5z" />
    <glyph glyph-name="uni0451" unicode="&#x451;" horiz-adv-x="477" 
d="M328 330q0 22 -4.5 42t-14 35t-24 24t-35.5 9q-30 0 -47.5 -15.5t-26 -36.5t-11 -43.5t-2.5 -36.5q0 -8 3 -9.5t7 -1.5h124q11 0 21 6.5t10 26.5zM452 298q0 -27 -10.5 -40.5t-43.5 -13.5h-235q0 -91 29 -141.5t86 -50.5q29 0 54.5 13.5t42.5 39.5q7 11 16 20t23 9
q15 0 22 -9t7 -20q0 -23 -25.5 -50.5t-73.5 -48.5q-21 -10 -43 -13.5t-55 -3.5q-57 0 -97.5 20.5t-66 55t-37 79.5t-11.5 94q0 76 20 126t52 80t71.5 42t77.5 12q41 0 77 -11.5t62.5 -35.5t42 -62t15.5 -91zM230 620q-1 -25 -17.5 -43t-42.5 -18q-25 0 -42 18t-18 43
q0 25 17 43t43 19q26 0 43 -18t17 -44zM391 620q-1 -25 -17.5 -43t-42.5 -18q-24 0 -41 18t-18 43q0 25 16.5 43t42.5 19q26 0 43.5 -18t16.5 -44z" />
    <glyph glyph-name="uni0452" unicode="&#x452;" horiz-adv-x="510" 
d="M472 247q0 -35 -7.5 -80t-22.5 -93t-38.5 -96t-54.5 -88q-35 -44 -67 -69t-63 -25q-8 0 -16.5 2.5t-16 9t-12 18.5t-4.5 32q0 24 11 44.5t38 20.5q14 0 26.5 -4.5t26.5 -4.5q27 0 42.5 22.5t23 58.5t9.5 80t2 87v104v40t-5.5 49t-18.5 42t-39 18q-35 0 -61.5 -31.5
t-26.5 -88.5v-208q0 -14 3.5 -22.5t10.5 -8.5q17 0 21.5 -6.5t4.5 -15.5q0 -34 -49 -34h-107q-49 0 -49 34q0 9 3.5 15.5t20.5 6.5q10 0 13.5 6t3.5 25v448h-40q-4 0 -12 2t-8 13q0 20 10.5 35t40.5 15h9v22q0 34 -15 34q-17 0 -21.5 7.5t-4.5 16.5q0 20 17 29t33 9h87
q17 0 22.5 -17.5t5.5 -41.5v-59h79q20 0 23 -7t3 -18q0 -14 -11.5 -27t-40.5 -13h-53v-113q30 39 66.5 57t65.5 18q40 0 67.5 -14.5t44 -41.5t23.5 -64t7 -82v-48z" />
    <glyph glyph-name="uni0453" unicode="&#x453;" horiz-adv-x="430" 
d="M334 622q0 -13 -4 -21.5t-12 -16.5l-98 -84h-35l47 114q9 22 20.5 36.5t34.5 14.5q19 0 33 -10.5t14 -32.5zM382 423q0 -12 -2 -29t-6 -33t-11 -27.5t-17 -11.5q-14 0 -19 16.5t-10.5 36t-15 36t-31.5 16.5h-72v-331q0 -15 3.5 -24.5t10.5 -9.5q17 0 21.5 -7.5t4.5 -16.5
q0 -18 -16.5 -28t-32.5 -10h-107q-49 0 -49 38q0 9 3.5 16.5t20.5 7.5t17 34v294q0 23 -4 29t-12 6q-17 0 -21 6.5t-4 16.5q0 19 16.5 28t32.5 9h214q10 0 15.5 1t10 1.5t11 1.5t20.5 1t21.5 -16t7.5 -51z" />
    <glyph glyph-name="uni0454" unicode="&#x454;" horiz-adv-x="464" 
d="M444 105q0 -17 -13.5 -37t-38 -37.5t-60 -29.5t-79.5 -12q-54 0 -95 18.5t-68 52t-40.5 80t-13.5 103.5q0 70 21.5 119t55.5 79t75.5 43.5t80.5 13.5q34 0 64.5 -3.5t62.5 -18.5q21 -10 27.5 -18.5t6.5 -27.5q0 -9 -2.5 -23.5t-7.5 -27.5t-14 -22.5t-21 -9.5
q-15 0 -23.5 15.5t-19 34.5t-27.5 34.5t-48 15.5q-45 0 -71 -44.5t-28 -130.5l101 8q22 2 36 2t21 -4t9.5 -11.5t2.5 -20.5q0 -11 -7 -22t-27 -11q-19 0 -44 4t-51 7l-42 5q1 -38 9 -70t22.5 -56t36.5 -37.5t51 -13.5q30 0 51.5 14.5t38.5 38.5q7 11 15.5 19t22.5 8
q13 0 21.5 -8t8.5 -19z" />
    <glyph glyph-name="uni0455" unicode="&#x455;" horiz-adv-x="450" 
d="M423 143q0 -43 -19 -72.5t-48.5 -47.5t-64.5 -26t-67 -8q-44 0 -91 6.5t-81 32.5q-18 14 -20 36.5t-2 43.5q0 8 1.5 17t5 17t10.5 13t18 5t19 -8t15 -20t15 -26t19 -26q24 -26 46 -33t55 -7q23 0 38 7.5t23.5 19t12 23.5t3.5 21q0 18 -9.5 30.5t-25.5 22.5t-35.5 17
t-40.5 15q-41 15 -72 29.5t-51.5 33t-31 42.5t-10.5 58q0 35 14 61t38 43.5t56.5 26t69.5 8.5q29 0 61 -2.5t59 -10t44.5 -21.5t17.5 -38q0 -89 -37 -89q-11 0 -19 9t-15.5 21.5t-15.5 26t-18 22.5q-14 14 -31.5 23.5t-46.5 9.5q-26 0 -48.5 -14t-22.5 -47q0 -21 12 -34.5
t30.5 -23.5t39.5 -16.5t39 -12.5q86 -29 123.5 -66t37.5 -92z" />
    <glyph glyph-name="uni0456" unicode="&#x456;" horiz-adv-x="288" 
d="M238 34q0 -34 -48 -34h-108q-49 0 -49 34q0 9 4 15.5t21 6.5q16 0 16 31v303q0 16 -3 25.5t-11 9.5q-17 0 -21 6.5t-4 17.5q0 18 16 27t33 9h87q22 0 24.5 -18.5t2.5 -50.5v-329q0 -14 3.5 -22.5t10.5 -8.5q17 0 21.5 -6.5t4.5 -15.5zM202 634q1 -29 -19 -49t-49 -21
q-28 -2 -48.5 18t-21.5 49q-1 15 4 28t14 22.5t21.5 15.5t26.5 6q31 0 50.5 -20t21.5 -49z" />
    <glyph glyph-name="uni0457" unicode="&#x457;" horiz-adv-x="294" 
d="M253 34q0 -34 -48 -34h-108q-23 0 -35.5 9t-12.5 25q0 9 3.5 15.5t20.5 6.5t17 31v303q0 16 -3.5 25.5t-11.5 9.5q-17 0 -21 6.5t-4 17.5q0 18 16 27t33 9h88q21 0 23.5 -18.5t2.5 -50.5v-329q0 -14 3.5 -22.5t11.5 -8.5q17 0 21 -6.5t4 -15.5zM131 634
q0 -26 -17.5 -44.5t-43.5 -18.5q-25 0 -42.5 18.5t-17.5 44.5q-1 26 16.5 44.5t43.5 18.5q26 1 44 -17.5t17 -45.5zM274 634q-1 -26 -17.5 -44.5t-43.5 -18.5q-25 0 -42 18.5t-18 44.5q0 26 17 44.5t43 18.5q27 1 45 -17.5t16 -45.5z" />
    <glyph glyph-name="uni0458" unicode="&#x458;" horiz-adv-x="278" 
d="M208 169q0 -116 -22.5 -198.5t-71.5 -151.5q-35 -51 -67.5 -76t-55.5 -25q-7 0 -14 1.5t-13 6.5t-10 15t-4 27q0 22 10 42t34 20q15 0 22.5 -2t19.5 -2q10 0 20 3.5t18 17t13 40.5t5 73q0 29 -1.5 51t-3 42t-2.5 41t-1 48v244q0 25 -4 32t-10 7q-18 0 -22 6.5t-4 17.5
q0 18 16 27t32 9h87q21 0 25 -19t4 -51v-246zM209 634q1 -29 -19 -49t-49 -21q-28 -2 -48.5 18t-22.5 49q0 15 5 28t14 22.5t21.5 15.5t26.5 6q31 0 50.5 -20t21.5 -49z" />
    <glyph glyph-name="uni0459" unicode="&#x459;" horiz-adv-x="753" 
d="M600 159q0 50 -20.5 74t-58.5 24q-16 0 -27.5 -1.5t-19.5 -3.5q-10 -3 -16 -5v-152q0 -28 5 -34t17 -6h33q87 0 87 104zM730 174q0 -39 -11.5 -71t-37 -55t-65.5 -35.5t-97 -12.5h-177q-49 0 -49 34q0 9 3.5 15.5t20.5 6.5t17 31v319q0 6 -4 13.5t-13 7.5h-68
q-23 0 -28 -11t-5 -27v-85q0 -24 -3 -56.5t-10 -67.5t-18 -69.5t-27.5 -61.5t-39 -44t-51.5 -17t-45 15.5t-16 52.5q0 32 10 43t28 11q6 0 9.5 -1.5t7 -4t9 -4t16.5 -1.5q13 0 25.5 11.5t22 37t15.5 67t5 101.5q0 37 -6.5 62t-21.5 36q-8 6 -15 8t-12.5 4.5t-9 7.5t-3.5 17
q0 20 19.5 27t44.5 7h300q24 0 36 -9.5t12 -24.5q0 -9 -4.5 -15.5t-21.5 -6.5q-14 0 -14 -31v-98q12 4 29 8q14 3 34.5 5.5t46.5 2.5q13 0 40 -5t54 -20t47.5 -43t20.5 -74z" />
    <glyph glyph-name="uni045A" unicode="&#x45a;" horiz-adv-x="778" 
d="M618 159q0 98 -79 98q-16 0 -28 -1.5t-20 -3.5q-10 -3 -16 -5v-152q0 -28 5 -34t18 -6h33q87 0 87 104zM748 174q0 -39 -12 -71t-37.5 -55t-65.5 -35.5t-96 -12.5h-187q-17 0 -28.5 9t-11.5 25q0 9 4 15.5t21 6.5q16 0 16 31v144h-153v-144q0 -14 3.5 -22.5t10.5 -8.5
q17 0 21.5 -6.5t4.5 -15.5q0 -16 -12.5 -25t-26.5 -9h-127q-17 0 -28 9t-11 25q0 9 3.5 15.5t20.5 6.5t17 31v311q0 31 -17 31t-20.5 6.5t-3.5 15.5q0 15 12.5 24.5t36.5 9.5h107q25 0 37 -9.5t12 -24.5q0 -9 -4.5 -15.5t-21.5 -6.5q-14 0 -14 -31v-113h153v113q0 31 -16 31
q-17 0 -21 6.5t-4 15.5q0 15 13 24.5t36 9.5h108q25 0 36.5 -9.5t11.5 -24.5q0 -9 -4.5 -15.5t-20.5 -6.5q-15 0 -15 -31v-98q13 4 30 8q14 3 34.5 5.5t46.5 2.5q13 0 40 -5t54 -20t47.5 -43t20.5 -74z" />
    <glyph glyph-name="uni045B" unicode="&#x45b;" horiz-adv-x="544" 
d="M512 34q0 -34 -48 -34h-108q-23 0 -35.5 9t-12.5 25q0 9 3.5 15.5t20.5 6.5t17 31v206v50.5t-5.5 38.5t-18.5 24.5t-39 8.5q-35 0 -61.5 -31.5t-26.5 -88.5v-208q0 -14 3.5 -22.5t10.5 -8.5q17 0 21.5 -6.5t4.5 -15.5q0 -34 -49 -34h-107q-49 0 -49 34q0 9 3.5 15.5
t20.5 6.5q10 0 13.5 6t3.5 25v448h-40q-4 0 -12 2t-8 13q0 20 10.5 35t40.5 15h9v22q0 34 -15 34q-17 0 -21.5 7.5t-4.5 16.5q0 20 17 29t33 9h87q17 0 22.5 -17.5t5.5 -41.5v-59h79q20 0 23 -4t3 -14q0 -14 -11.5 -30.5t-40.5 -16.5h-53v-113q30 39 66.5 57t65.5 18
q80 0 111 -40.5t31 -122.5v-247q0 -14 3.5 -22.5t11.5 -8.5q17 0 21 -6.5t4 -15.5z" />
    <glyph glyph-name="uni045C" unicode="&#x45c;" horiz-adv-x="507" 
d="M391 622q0 -13 -4 -21.5t-12 -16.5l-98 -84h-35l47 114q9 22 20.5 36.5t34.5 14.5q19 0 33 -10.5t14 -32.5zM498 46q0 -25 -19.5 -39.5t-53.5 -14.5q-23 0 -41 11t-34 32l-138 190h-14v-138q0 -31 14 -31q17 0 21.5 -6.5t4.5 -15.5q0 -34 -49 -34h-107q-49 0 -49 34
q0 9 3.5 15.5t20.5 6.5t17 31v311q0 31 -17 31t-20.5 6.5t-3.5 15.5q0 15 12.5 24.5t36.5 9.5h107q25 0 37 -9.5t12 -24.5q0 -9 -4.5 -15.5t-21.5 -6.5q-14 0 -14 -31v-124h14q19 4 42 18.5t42.5 33t32.5 40t13 40.5q0 14 -3 21t-6 11t-6 7.5t-3 11.5q0 21 13.5 24.5
t33.5 3.5h63q17 0 28.5 -7t11.5 -21q0 -8 -7 -19t-17.5 -23.5t-23 -26t-24.5 -25.5q-10 -11 -22 -23.5l-24 -25t-23.5 -23t-18.5 -17.5q20 -21 50.5 -59t60.5 -80q19 -26 32.5 -39t22.5 -21t13.5 -13.5t4.5 -15.5z" />
    <glyph glyph-name="uni045E" unicode="&#x45e;" horiz-adv-x="505" 
d="M432 627q0 -26 -16 -44.5t-40 -30t-51.5 -16.5t-50.5 -5t-50.5 5t-51.5 16.5t-40 30t-16 44.5q0 43 53 43q18 0 28 -5t15.5 -12.5t8 -17t5.5 -19.5q2 -8 4 -14.5t6.5 -12t13 -8.5t24.5 -3t25 3t13.5 8.5t6.5 12t4 14.5q3 10 5.5 20t8.5 17.5t16 12t27 4.5q52 0 52 -43z
M505 451q0 -9 -5 -15.5t-22 -6.5q-12 0 -28 -43l-129 -376q-22 -65 -41.5 -115t-40 -84.5t-43.5 -52.5t-52 -18q-18 0 -30 6.5t-19.5 16.5t-10.5 23t-3 26q0 29 12.5 39.5t24.5 10.5t23 -3.5t30 -3.5q29 0 42 23.5t13 63.5q0 8 -4 23t-9 30.5t-10.5 30t-8.5 21.5l-127 317
q-11 27 -19.5 46t-18.5 19q-15 0 -19.5 6.5t-4.5 15.5q0 20 15.5 27t32.5 7h118q21 0 36 -6t15 -28q0 -15 -9.5 -18.5t-17.5 -3.5q-9 0 -9 -18q0 -22 17 -65l92 -255l82 301q2 5 3 11.5t1 14.5q0 11 -8 11q-16 0 -21 6.5t-5 15.5q0 23 14.5 28.5t34.5 5.5h59q15 0 32.5 -7.5
t17.5 -26.5z" />
    <glyph glyph-name="uni045F" unicode="&#x45f;" horiz-adv-x="542" 
d="M516 34q0 -17 -16 -25.5t-33 -8.5h-125q-27 0 -33.5 -7t-6.5 -33q0 -7 2 -17.5t5 -21.5t5 -21t2 -16q0 -15 -7 -29t-33 -14t-34 13.5t-8 29.5q0 6 2.5 16.5t5 21.5t5 21.5t2.5 16.5q0 27 -6.5 33.5t-33.5 6.5h-126q-17 0 -33.5 8.5t-16.5 25.5q0 8 4 15t21 7q16 0 16 31
v312q0 30 -17 30t-20.5 6.5t-3.5 15.5q0 15 12.5 24.5t36.5 9.5h107q25 0 37 -9.5t12 -24.5q0 -9 -4.5 -15.5t-21.5 -6.5q-14 0 -14 -31v-318q0 -11 3 -16.5t13 -5.5h121q11 0 13.5 4t2.5 18v318q0 31 -16 31q-17 0 -21 6.5t-4 15.5q0 15 13 24.5t36 9.5h108q25 0 36.5 -9.5
t11.5 -24.5q0 -9 -4.5 -15.5t-20.5 -6.5q-15 0 -15 -31v-311q0 -31 16 -31q17 0 21 -7t4 -15z" />
    <glyph glyph-name="uni0490" unicode="&#x490;" horiz-adv-x="473" 
d="M473 713q0 -11 -2.5 -24t-8.5 -24.5t-14.5 -19t-20.5 -7.5q-15 0 -32 1.5t-37 1.5h-92q-16 0 -20 -7t-4 -23v-510q0 -15 5.5 -25.5t13.5 -10.5q17 0 22.5 -7.5t5.5 -17.5q0 -20 -16 -30t-38 -10h-120q-17 0 -34.5 10t-17.5 30q0 10 5 17.5t22 7.5q7 0 13 9.5t6 26.5v511
q0 28 -6 32.5t-13 4.5q-17 0 -22 7.5t-5 17.5q0 20 17.5 27t34.5 7h205q20 0 41 6t34 34q7 14 12 28t10.5 25t12.5 17.5t16 6.5q10 0 15.5 -10t8 -26.5t3 -36.5t0.5 -39z" />
    <glyph glyph-name="uni0491" unicode="&#x491;" horiz-adv-x="377" 
d="M366 499q0 -35 -7.5 -56t-30.5 -21q-18 0 -32.5 2.5t-35.5 2.5h-62v-331q0 -15 3.5 -24.5t10.5 -9.5q17 0 21.5 -7.5t4.5 -16.5q0 -18 -14 -28t-35 -10h-105q-50 0 -50 38q0 9 4.5 16.5t21.5 7.5q8 0 11 9.5t3 24.5v294q0 23 -4 29t-12 6q-17 0 -21 6.5t-4 16.5
q0 19 16.5 28t32.5 9h171q22 0 33 16t18 34.5t14 34.5t20 16q9 0 14.5 -9.5t8.5 -23.5t4 -29t1 -25z" />
    <glyph glyph-name="endash" unicode="&#x2013;" horiz-adv-x="650" 
d="M57 210v79h556v-79h-556z" />
    <glyph glyph-name="emdash" unicode="&#x2014;" horiz-adv-x="893" 
d="M67 210v79h767v-79h-767z" />
    <glyph glyph-name="quoteleft" unicode="&#x2018;" horiz-adv-x="192" 
d="M20 575q0 37 18 72t42.5 62t50 43.5t40.5 16.5q12 0 15.5 -5t3.5 -13t-2.5 -11.5t-7.5 -7.5q-10 -7 -21.5 -14.5t-21.5 -17.5t-16.5 -23t-6.5 -31q0 -17 9 -27t20 -20t19.5 -22t8.5 -33q0 -25 -16 -46t-54 -21q-33 0 -57 23.5t-24 74.5z" />
    <glyph glyph-name="quoteright" unicode="&#x2019;" horiz-adv-x="196" 
d="M178 668q0 -38 -18 -73t-42.5 -62t-50 -43t-40.5 -16q-12 0 -15.5 5t-3.5 12q0 8 2.5 12t7.5 7q10 7 22 15t21.5 18t16 23t6.5 31q0 17 -9 27t-20 20t-19.5 22t-8.5 33q0 24 16 45.5t54 21.5q33 0 57 -23.5t24 -74.5z" />
    <glyph glyph-name="quotesinglbase" unicode="&#x201a;" horiz-adv-x="194" 
d="M179 14q0 -38 -18 -72.5t-42.5 -61.5t-50 -43t-40.5 -16q-12 0 -15.5 5t-3.5 12q0 8 2.5 12t7.5 7q10 7 22 14.5t21.5 17.5t16 23.5t6.5 31.5q0 17 -9 27t-20 20t-19.5 22t-8.5 33q0 24 16 45t54 21q33 0 57 -23t24 -75z" />
    <glyph glyph-name="quotedblleft" unicode="&#x201c;" horiz-adv-x="384" 
d="M28 561q0 37 18 72t42.5 62t50 43t40.5 16q11 0 15 -4.5t4 -12.5t-2.5 -11.5t-7.5 -7.5q-11 -7 -22.5 -14.5t-21 -17.5t-16 -23.5t-6.5 -31.5q0 -17 9 -26.5t20 -19.5t19.5 -22t8.5 -33q0 -25 -16 -46t-54 -21q-33 0 -57 23t-24 75zM199 561q0 37 18 72t42.5 62t50 43
t40.5 16q12 0 16 -4.5t4 -12.5t-3 -11.5t-8 -7.5q-10 -7 -21.5 -14.5t-21.5 -17.5t-16.5 -23.5t-6.5 -31.5q0 -17 9 -26.5t20 -19.5t19.5 -22t8.5 -33q0 -25 -16 -46t-54 -21q-33 0 -57 23t-24 75z" />
    <glyph glyph-name="quotedblright" unicode="&#x201d;" horiz-adv-x="384" 
d="M188 655q0 -38 -18 -72.5t-42.5 -61.5t-50.5 -43t-41 -16q-11 0 -15 5t-4 12q0 8 3 12t8 7q10 7 21.5 14.5t21 17.5t16 23.5t6.5 31.5q0 17 -9 27t-19.5 19.5t-19.5 22t-9 33.5q1 24 17 45t54 21q32 0 56.5 -23t24.5 -75zM359 655q0 -38 -18 -72.5t-42.5 -61.5t-50 -43
t-40.5 -16q-12 0 -15.5 5t-3.5 12q0 8 2.5 12t7.5 7q10 7 22 14.5t21.5 17.5t16 23.5t6.5 31.5q0 17 -9 27t-20 19.5t-19.5 22t-8.5 33.5q0 24 16 45t54 21q33 0 57 -23t24 -75z" />
    <glyph glyph-name="quotedblbase" unicode="&#x201e;" horiz-adv-x="415" 
d="M211 14q0 -38 -18 -72.5t-42.5 -61.5t-50 -43t-40.5 -16q-11 0 -15 5t-4 12q0 8 2.5 12t7.5 7q10 7 22 14.5t21.5 17.5t16 23.5t6.5 31.5q0 17 -9 27t-20 20t-19.5 22t-8.5 33q0 24 16 45t54 21q33 0 57 -23t24 -75zM383 14q0 -38 -18 -72.5t-42.5 -61.5t-50.5 -43
t-41 -16q-11 0 -15 5t-4 12q0 8 3 12t8 7q10 7 21.5 14.5t21.5 17.5t16.5 23.5t6.5 31.5q0 17 -9 27t-20 20t-20 22t-9 33q1 24 17 45t54 21q33 0 57 -23t24 -75z" />
    <glyph glyph-name="dagger" unicode="&#x2020;" horiz-adv-x="507" 
d="M463 460q0 -23 -16 -39t-36 -16q-16 0 -28.5 5.5t-25 12.5t-26.5 12.5t-33 5.5h-22q2 -32 11 -56t31 -47q-14 -28 -28 -78t-14 -127v-314h-44v313q0 78 -13.5 127.5t-28.5 78.5q23 21 31.5 46t10.5 57h-22q-19 0 -32.5 -5.5t-26 -12.5t-25.5 -12.5t-29 -5.5
q-23 0 -37.5 16t-14.5 39q-1 23 14.5 41.5t38.5 18.5q18 0 32.5 -5.5t28 -11.5t26 -11.5t25.5 -5.5h22v39q0 17 -5 32.5t-10.5 30t-10.5 28t-5 26.5q0 63 53 63t53 -63q0 -12 -5 -25.5t-10.5 -28.5t-10.5 -30.5t-5 -32.5v-39h22q13 0 26.5 5.5t27.5 11.5t28.5 11.5t29.5 5.5
q26 0 39.5 -17.5t13.5 -42.5z" />
    <glyph glyph-name="daggerdbl" unicode="&#x2021;" horiz-adv-x="490" 
d="M454 -35q0 -24 -15 -41t-38 -17q-15 0 -29 5t-28 11t-27.5 11t-26.5 5h-23v-39q0 -17 5 -32.5t11.5 -30t11.5 -28.5t5 -27q0 -30 -15.5 -46t-39.5 -16q-26 0 -40 16t-14 46q0 13 5 26.5t11 28.5t11 30.5t5 32.5v39h-22q-12 0 -26.5 -5t-29 -11.5t-29 -11.5t-27.5 -5
q-23 0 -38.5 17.5t-15.5 41.5q1 23 16 39.5t37 16.5q16 0 29 -6t25.5 -12.5t26.5 -12.5t33 -6h21q-2 32 -11.5 57t-33.5 51q12 8 22 25q8 14 15.5 37.5t7.5 59.5t-7.5 59.5t-15.5 37.5q-10 17 -22 26q24 25 33.5 50.5t11.5 58.5h-21q-19 0 -33.5 -6t-27 -12.5t-25 -12.5
t-28.5 -6q-23 0 -37.5 16t-15.5 40q0 24 15.5 42t38.5 18q13 0 28 -5.5t29.5 -12t28.5 -12t26 -5.5h22v40q0 17 -5 32.5t-11 30t-11 28.5t-5 27q0 31 15 46.5t40 15.5q24 -1 39 -15.5t15 -46.5q0 -13 -5 -26.5t-11.5 -28.5t-11.5 -30.5t-5 -32.5v-40h23q13 0 27.5 5.5
t29.5 12t29 12t25 5.5q23 0 38 -17.5t15 -42.5q0 -24 -14.5 -39.5t-37.5 -15.5q-16 0 -28.5 5.5t-25 12.5t-26.5 12.5t-33 5.5h-22q1 -62 45 -108q-13 -8 -23 -25q-8 -14 -15 -38t-7 -59q0 -37 7 -60.5t15 -37.5q10 -17 23 -25q-23 -25 -33.5 -50.5t-11.5 -57.5h22
q19 0 33 6t26.5 12.5t25 12.5t28.5 6q23 0 37.5 -17t14.5 -40z" />
    <glyph glyph-name="bullet" unicode="&#x2022;" horiz-adv-x="289" 
d="M266 265q0 -25 -9.5 -47.5t-25.5 -39t-38 -26.5t-47 -10t-47 10t-38 26.5t-25 39t-9 47.5t9 47.5t25 40t38 27.5t47 10t47 -10t38 -27.5t25.5 -40t9.5 -47.5z" />
    <glyph glyph-name="ellipsis" unicode="&#x2026;" horiz-adv-x="794" 
d="M199 50q0 -28 -18 -46.5t-45 -18.5q-26 0 -46 17.5t-20 45.5t18.5 46.5t44.5 18.5q28 0 47 -18t19 -45zM463 50q0 -28 -18 -46.5t-45 -18.5q-31 0 -48.5 17t-17.5 46q0 26 18 45.5t45 19.5t46.5 -18t19.5 -45zM727 50q0 -27 -18.5 -45.5t-44.5 -19.5t-46 17t-20 46
q0 27 18 46t45 19q26 0 46 -18t20 -45z" />
    <glyph glyph-name="perthousand" unicode="&#x2030;" horiz-adv-x="1057" 
d="M585 128q0 29 -3 56t-9.5 47.5t-18 33t-29.5 12.5q-20 0 -31.5 -9t-17.5 -24t-7.5 -35t-1.5 -41q0 -30 2.5 -57t9 -47.5t17.5 -33t29 -12.5t30 9t18.5 24.5t9 35.5t2.5 41zM246 531q0 29 -3 56t-10 47.5t-18.5 33t-29.5 12.5q-20 0 -31.5 -9t-17.5 -24t-7.5 -35t-1.5 -42
q0 -29 2.5 -56t9 -47.5t18 -32.5t28.5 -12q19 0 30.5 9t18.5 24.5t9.5 35t2.5 40.5zM682 152q0 -41 -12.5 -74.5t-33.5 -56.5t-49.5 -35.5t-59.5 -12.5q-46 0 -76.5 15.5t-48.5 40t-25.5 55t-7.5 59.5q0 85 42.5 131.5t111.5 46.5q43 0 73.5 -14.5t49.5 -38t27.5 -54
t8.5 -62.5zM562 703q0 -10 -2.5 -16t-5.5 -11l-349 -683q-3 -4 -11 -15t-26 -11q-11 0 -17 8.5t-6 15.5q0 8 2.5 14.5t4.5 11.5l351 683q2 5 9.5 15.5t27.5 10.5q9 0 15.5 -8t6.5 -15zM342 555q0 -41 -12.5 -73.5t-33.5 -55.5t-49 -35.5t-60 -12.5q-46 0 -76.5 15.5
t-48.5 39.5t-25.5 54t-7.5 60q0 85 42.5 131.5t111.5 46.5q44 0 74.5 -14.5t49 -38.5t27 -54.5t8.5 -62.5zM937 128q0 29 -2.5 56t-9.5 47.5t-18.5 33t-29.5 12.5q-20 0 -31.5 -9t-17.5 -24t-7.5 -35t-1.5 -41q0 -30 2.5 -57t9 -47.5t17.5 -33t29 -12.5q19 0 30.5 9t18 24.5
t9 35.5t2.5 41zM1034 152q0 -41 -12.5 -74.5t-33.5 -56.5t-49 -35.5t-60 -12.5q-46 0 -76.5 15.5t-48.5 40t-25.5 55t-7.5 59.5q0 85 43 131.5t111 46.5q43 0 73.5 -14.5t49.5 -38t27.5 -54t8.5 -62.5z" />
    <glyph glyph-name="guilsinglleft" unicode="&#x2039;" horiz-adv-x="327" 
d="M261 32l-237 208l236 217l26 -24l-136 -193l137 -182z" />
    <glyph glyph-name="guilsinglright" unicode="&#x203a;" horiz-adv-x="327" 
d="M33 58l137 182l-136 193l26 24l236 -217l-237 -208z" />
    <glyph glyph-name="Euro" unicode="&#x20ac;" 
d="M569 597q0 -54 -15.5 -76t-33.5 -22q-11 0 -18.5 7.5t-13.5 19t-11.5 25.5t-11.5 26q-9 17 -18.5 32.5t-22 27.5t-29.5 19t-40 7q-52 0 -92.5 -49.5t-53.5 -161.5h238q0 -7 -2 -14q-2 -6 -4 -13t-6 -14q-11 -19 -24.5 -21.5t-31.5 -2.5h-174q0 -14 -0.5 -26t1.5 -26h190
q0 -6 -2 -13q-2 -6 -4 -13.5t-6 -14.5q-11 -18 -25 -21t-31 -3h-116q5 -65 20.5 -105t36.5 -62.5t44 -30t42 -7.5q28 0 48.5 8.5t35 20.5t24.5 25.5t16 23.5q10 16 20 25.5t20 9.5q21 0 27.5 -12t6.5 -23q0 -18 -14 -45.5t-42 -53t-70 -43.5t-98 -18q-47 0 -89.5 14t-77 47
t-58 88t-31.5 138h-60q-1 8 1 15q2 13 11 27q8 14 18.5 18t24.5 5l1 52h-56q-1 7 1 15q2 14 11 28t22 18t30 4q13 64 39 115t62.5 86.5t83.5 54.5t101 19q53 0 90.5 -10.5t56.5 -20.5q32 -17 45.5 -39.5t13.5 -59.5z" />
    <glyph glyph-name="uni2116" unicode="&#x2116;" horiz-adv-x="1083" 
d="M950 315q0 30 -2.5 58t-9.5 49.5t-18.5 34.5t-29.5 13q-21 0 -33 -9.5t-18 -25.5t-7.5 -36t-1.5 -42q0 -30 2.5 -58t9.5 -49t18.5 -33.5t29.5 -12.5q19 0 31 9.5t18.5 25t8.5 35.5t2 41zM779 652q0 -36 -12 -53.5t-33 -17.5q-14 0 -19 4.5t-19 4.5q-12 0 -18.5 -8
t-9.5 -30t-4.5 -61t-2.5 -101l-10 -357q0 -19 -5 -33.5t-22 -14.5q-16 0 -26.5 13.5t-22.5 30.5l-375 523v-329q0 -63 -8.5 -105.5t-22 -69t-30 -40t-31 -19t-26 -6t-15.5 -0.5q-25 0 -41 21t-16 51q0 37 12 55t32 18q14 0 19.5 -4.5t18.5 -4.5t20 8t10 30t4 61t3 101l5 291
q1 17 -5 27.5t-14 10.5q-18 0 -22 7.5t-4 17.5q0 18 17 26.5t37 8.5h87q11 0 19 -4t13.5 -9t8.5 -10t5 -6l315 -445l-1 251q-1 63 8 105t22 69t29.5 40.5t31.5 19.5t26.5 6.5t15.5 0.5q29 0 42.5 -22t13.5 -52zM746 55v58h282v-58h-282zM1051 341q0 -42 -12.5 -76t-34.5 -58
t-51 -36.5t-62 -12.5q-47 0 -78.5 15.5t-50 40.5t-26 56t-7.5 62q0 88 44 135.5t115 47.5q45 0 76 -15t50.5 -39t28 -55.5t8.5 -64.5z" />
    <glyph glyph-name="trademark" unicode="&#x2122;" horiz-adv-x="914" 
d="M360 680q0 -41 -8 -62.5t-22 -21.5q-6 0 -10 5.5t-7 14t-5.5 17.5t-6.5 17q-7 11 -17 14.5t-34 3.5h-12v-316q0 -17 7 -17q13 0 16.5 -5.5t3.5 -14.5q0 -13 -11.5 -18.5t-23.5 -5.5h-71q-11 0 -22.5 5.5t-11.5 18.5q0 9 3 14.5t17 5.5q3 0 4 5t1 12v316h-11
q-24 0 -34.5 -3.5t-16.5 -14.5q-4 -8 -6.5 -17t-5.5 -17.5t-7 -14t-10 -5.5q-14 0 -22 21.5t-8 62.5q0 26 9 32t18 6t19 -1.5t22 -1.5h195q12 0 22 1.5t18 1.5q11 0 19.5 -6t8.5 -32zM882 315q0 -13 -11.5 -18.5t-23.5 -5.5h-71q-12 0 -23.5 5.5t-11.5 18.5q0 9 3.5 14.5
t17.5 5.5q3 0 4.5 5t1.5 12v247l-118 -279q-5 -11 -13 -22.5t-20 -11.5q-13 -1 -19.5 8.5t-11.5 21.5l-124 283l3 -244q0 -20 7 -20q14 0 16.5 -5.5t2.5 -14.5q0 -13 -11.5 -18.5t-25.5 -5.5h-39q-12 0 -22.5 5.5t-10.5 18.5q0 9 4.5 14.5t17.5 5.5q4 0 4 5.5t1 14.5l3 298
q1 17 -6 17q-14 0 -17 6t-3 14q0 14 11 19.5t25 5.5h67q18 0 23 -7.5t10 -18.5l117 -277l120 282q2 5 9 13t28 8h49q14 0 25 -5.5t11 -19.5q0 -7 -4 -13t-17 -6q-5 0 -5 -18v-301q0 -17 7 -17q13 0 16.5 -5.5t3.5 -14.5z" />
    <glyph glyph-name="minus" unicode="&#x2212;" horiz-adv-x="343" 
d="M31 193v88h265v-88h-265z" />
    <glyph glyph-name="radical" unicode="&#x221a;" horiz-adv-x="549" 
d="M512 913h36l-152 -951l-242 498l-97 -44l-16 31l146 74l198 -402z" />
    <glyph glyph-name="infinity" unicode="&#x221e;" horiz-adv-x="713" 
d="M305 288q-24 54 -55 79.5t-76 25.5q-26 0 -48 -9.5t-38 -27t-25.5 -42.5t-9.5 -55q0 -66 34 -104q34 -39 78 -39q46 0 82 42q24 29 58 130zM366 227q18 -39 35.5 -64t36 -39.5t38.5 -20t42 -5.5q30 0 56 11.5t44.5 32t29.5 50t11 65.5q0 73 -43 119q-42 47 -95 47
q-34 0 -59 -17t-45 -55q-13 -24 -51 -124zM319 326q33 76 72 105q40 30 109 30q77 0 133 -57q54 -56 54 -147q0 -88 -53 -147q-52 -58 -118 -58q-48 0 -90 36q-27 23 -74 104q-32 -61 -69 -87.5t-90 -26.5q-70 0 -118 50q-49 50 -49 130t45 130q45 49 105 49q43 0 74 -22
q31 -21 69 -89z" />
    <glyph glyph-name="approxequal" unicode="&#x2248;" horiz-adv-x="549" 
d="M535 507q-2 -63 -36 -98t-82 -35q-25 0 -49 7q-26 8 -134 52q-75 31 -108 31q-34 0 -57.5 -21.5t-32.5 -67.5h-21q0 31 9.5 55.5t25.5 41.5t36.5 26t41.5 10q22 0 43 -7q26 -7 61 -20t81 -33q50 -22 77 -29q13 -3 32 -3q37 0 62 23t30 68h21zM535 267q-2 -63 -36 -98.5
t-82 -35.5q-23 0 -74 15l-109 45q-75 31 -108 31q-34 0 -57.5 -21t-32.5 -69h-21q0 32 9 57t25 41.5t36.5 25.5t41.5 10q21 0 44 -6q49 -15 142 -54q24 -11 43.5 -17.5t33.5 -10.5q12 -4 32 -4q37 0 62 23t30 68h21z" />
    <glyph glyph-name="notequal" unicode="&#x2260;" horiz-adv-x="549" 
d="M12 439h294l103 261h39l-101 -261h190v-45h-208l-70 -181h278v-46h-296l-103 -258h-39l102 258h-189v46h207l71 181h-278v45z" />
    <glyph glyph-name="lessequal" unicode="&#x2264;" horiz-adv-x="549" 
d="M536 120l-524 223v40l524 222v-50l-464 -192l464 -193v-50zM12 -34h525v-45h-525v45z" />
    <glyph glyph-name="greaterequal" unicode="&#x2265;" horiz-adv-x="549" 
d="M12 605l524 -223v-40l-524 -222v50l464 192l-464 193v50zM12 -34h525v-45h-525v45z" />
    <glyph glyph-name="uniF460" unicode="&#xf460;" horiz-adv-x="643" 
d="M458 857q0 -13 -4 -21.5t-12 -16.5l-98 -84h-35l48 115q9 21 20 35.5t34 14.5q20 0 33.5 -10t13.5 -33zM318 597l-91 -275h165zM647 33q-2 -19 -17.5 -26t-36.5 -7h-133q-18 0 -34.5 7t-16.5 26q0 11 6 18t21 7q7 0 16 12.5t5 28.5l-48 161h-204l-54 -161q-3 -11 -3 -18
q0 -15 6.5 -19t15.5 -4q14 0 20 -7t6 -18q0 -20 -16 -26.5t-37 -6.5h-89q-17 0 -32.5 7t-15.5 26q0 11 4 18t21 7q11 0 22.5 14.5t19.5 34.5l192 505q0 16 -5.5 26t-12.5 10q-17 0 -22 7.5t-4 17.5q1 18 18 26.5t37 8.5h93q15 0 25.5 -5t18.5 -16t14.5 -28.5t14.5 -43.5
l150 -510q5 -17 12.5 -32t15.5 -15q17 0 22 -7t5 -18z" />
    <glyph glyph-name="uniF461" unicode="&#xf461;" horiz-adv-x="559" 
d="M416 857q0 -13 -4 -21.5t-12 -16.5l-98 -84h-35l48 115q9 21 20 35.5t34 14.5q20 0 33.5 -10t13.5 -33zM563 156q0 -17 -6.5 -40.5t-15.5 -50.5q-7 -20 -12 -33t-11.5 -21t-16 -11.5t-24.5 -3.5q-16 0 -41.5 2t-68.5 2h-252q-17 0 -34.5 7.5t-17.5 25.5q0 11 5 18t22 7
q7 0 13 10t6 27v516q0 23 -6 30.5t-13 7.5q-17 0 -22 7.5t-5 17.5q0 18 17.5 26t34.5 8h304q20 0 36.5 1t31.5 1q47 0 47 -40v-31.5t-4 -46.5q-3 -24 -7.5 -38.5t-10 -22t-11 -10t-10.5 -2.5q-10 0 -16 9.5t-10.5 23t-9.5 29.5t-14 30q-8 13 -20.5 19t-28.5 8.5t-35 2.5h-40
h-51q-17 0 -20.5 -9t-3.5 -21v-215l148 9q9 0 22 1.5t18 1.5q16 0 22.5 -6.5t6.5 -27.5t-13.5 -35t-30.5 -14q-19 0 -45.5 3t-52.5 5q-11 1 -24 1.5t-24 1.5q-13 1 -27 1v-247q0 -15 10.5 -19t30.5 -4h69t49 5q16 4 28.5 10t25 16t25.5 25t29 39q11 16 17.5 20.5t14.5 4.5
q10 0 14.5 -3t6 -8t1.5 -10.5v-9.5z" />
    <glyph glyph-name="uniF462" unicode="&#xf462;" horiz-adv-x="750" 
d="M511 857q0 -13 -4 -21.5t-12 -16.5l-98 -84h-35l48 115q9 21 20 35.5t34 14.5q20 0 33.5 -10t13.5 -33zM710 33q0 -18 -17.5 -25.5t-34.5 -7.5h-120q-17 0 -34.5 7.5t-17.5 25.5q0 11 4.5 18t21.5 7q8 0 13.5 8t5.5 29v410l-289 -395v-15q0 -16 5 -26.5t13 -10.5
q18 0 22.5 -7t4.5 -18q0 -18 -17.5 -25.5t-34.5 -7.5h-120q-17 0 -34.5 7.5t-17.5 25.5q0 11 5 18t22 7q7 0 13 8t6 29v516q0 23 -6 30.5t-13 7.5q-17 0 -22 7.5t-5 17.5q0 18 17.5 26t34.5 8h120q17 0 34.5 -8t17.5 -26q0 -10 -4.5 -17.5t-22.5 -7.5q-8 0 -13 -10.5
t-5 -27.5v-401l289 396v12q0 20 -5.5 25.5t-13.5 5.5q-17 0 -21.5 7.5t-4.5 17.5q0 18 17.5 26t34.5 8h120q17 0 34.5 -8t17.5 -26q0 -10 -4.5 -17.5t-22.5 -7.5q-8 0 -13 -10t-5 -28v-516q0 -16 5 -26.5t13 -10.5q18 0 22.5 -7t4.5 -18z" />
    <glyph glyph-name="uniF463" unicode="&#xf463;" horiz-adv-x="709" 
d="M491 857q0 -13 -4 -21.5t-12 -16.5l-98 -84h-35l48 115q9 21 20 35.5t34 14.5q20 0 33.5 -10t13.5 -33zM540 302q0 183 -41 271.5t-138 88.5q-42 0 -72.5 -19.5t-50 -53.5t-28.5 -80t-9 -100q0 -185 47 -273t130 -88q43 0 73.5 19t50 53t29 80.5t9.5 101.5zM681 370
q0 -90 -23 -162t-65 -122t-101 -76.5t-131 -26.5q-62 0 -117 23.5t-96 69t-64.5 114t-23.5 158.5q0 95 23.5 166t65.5 118.5t100.5 71t128.5 23.5q62 0 117 -20t96.5 -63t65.5 -110.5t24 -163.5z" />
    <glyph glyph-name="uniF464" unicode="&#xf464;" horiz-adv-x="608" 
d="M440 857q0 -13 -4 -21.5t-12 -16.5l-98 -84h-35l48 115q9 21 20 35.5t34 14.5q20 0 33.5 -10t13.5 -33zM607 674q0 -8 -6 -16.5t-22 -8.5q-11 0 -19 -14.5t-16 -34.5l-185 -447q-24 -58 -45 -91t-40 -49.5t-36 -20.5t-33 -4q-25 0 -41 21t-16 51q0 38 13.5 52.5
t30.5 14.5t26.5 -7t22.5 -7q17 0 31.5 9t21.5 38l-205 440q-11 21 -21.5 35t-22.5 14q-17 0 -22 7.5t-5 17.5q0 18 17.5 26t34.5 8h144q17 0 34.5 -8t17.5 -26q0 -10 -4.5 -17.5t-21.5 -7.5q-7 0 -14 -4t-7 -16q0 -6 2.5 -14t5.5 -15l132 -300l107 308q4 11 4 18v12
q0 11 -13 11q-14 0 -19.5 7t-5.5 18q0 21 17.5 27.5t33.5 6.5h70q23 0 38.5 -5.5t15.5 -28.5z" />
    <glyph glyph-name="uniF465" unicode="&#xf465;" horiz-adv-x="911" 
d="M592 857q0 -13 -4 -21.5t-12 -16.5l-98 -84h-35l48 115q9 21 20 35.5t34 14.5q20 0 33.5 -10t13.5 -33zM469 218q0 41 -10.5 68.5t-29 44t-43.5 23.5t-54 7q-17 0 -33 -2.5t-29 -7.5t-20.5 -11.5t-7.5 -15.5v-233q0 -14 7 -18.5t18 -4.5h53q76 0 112.5 39t36.5 111z
M612 230q0 -71 -30.5 -116t-74.5 -70.5t-92 -34.5t-83 -9h-216q-17 0 -34.5 7.5t-17.5 25.5q0 11 4.5 18t21.5 7q8 0 13.5 8t5.5 29v516q0 23 -6 30.5t-13 7.5q-17 0 -22 7.5t-5 17.5q0 18 17.5 26t34.5 8h120q17 0 34.5 -8t17.5 -26q0 -10 -4.5 -17.5t-22.5 -7.5
q-8 0 -13 -7.5t-5 -30.5v-203q25 8 55 13t80 5q40 0 82 -10t76 -33t55.5 -60.5t21.5 -92.5zM868 33q0 -18 -17.5 -25.5t-34.5 -7.5h-120q-17 0 -34.5 7.5t-17.5 25.5q0 11 4.5 18t21.5 7q8 0 14 10t6 27v516q0 23 -6 30.5t-14 7.5q-17 0 -21.5 7.5t-4.5 17.5q0 18 17.5 26
t34.5 8h120q17 0 34.5 -8t17.5 -26q0 -10 -4.5 -17.5t-22.5 -7.5q-8 0 -13 -7.5t-5 -30.5v-516q0 -21 5 -29t13 -8q18 0 22.5 -7t4.5 -18z" />
    <glyph glyph-name="uniF466" unicode="&#xf466;" horiz-adv-x="627" 
d="M450 857q0 -13 -4 -21.5t-12 -16.5l-98 -84h-35l48 115q9 21 20 35.5t34 14.5q20 0 33.5 -10t13.5 -33zM590 367q0 -74 -22.5 -143.5t-66 -123t-107 -85.5t-144.5 -32q-50 0 -89.5 10.5t-66.5 28t-41 41t-14 49.5q0 19 9 29t23 10q11 0 18 -3t12.5 -8t11 -12t13.5 -16
q24 -25 55.5 -41t68.5 -16q91 0 144.5 73t55.5 211l-70 -9q-57 -7 -101.5 -12.5t-66.5 -5.5q-11 0 -21.5 8.5t-10.5 25.5q0 24 10 35.5t24.5 15.5t29.5 3t26 -1l180 -5q0 38 -5 84.5t-23 87.5t-53 68.5t-96 27.5q-27 0 -47.5 -7.5t-36 -19t-27 -26.5t-18.5 -30
q-12 -23 -19 -39.5t-13 -26.5t-13 -14.5t-18 -4.5t-18 9t-11 23.5t-5.5 33t-1.5 38.5q0 36 26 60.5t64 40t80.5 22t75.5 6.5q67 0 122.5 -22t94.5 -66.5t60.5 -112t21.5 -159.5z" />
    <glyph glyph-name="uniF467" unicode="&#xf467;" horiz-adv-x="991" 
d="M632 857q0 -13 -4 -21.5t-12 -16.5l-98 -84h-35l48 115q9 21 20 35.5t34 14.5q20 0 33.5 -10t13.5 -33zM820 302q0 87 -9 154t-29.5 113t-53.5 69.5t-82 23.5q-43 0 -72.5 -20.5t-48 -55.5t-27 -81t-8.5 -96q0 -84 10.5 -151t31.5 -113.5t53.5 -71.5t77.5 -25
q43 0 72.5 21.5t48.5 57t27.5 81.5t8.5 94zM961 370q0 -90 -22 -162t-63.5 -122t-99.5 -76.5t-130 -26.5q-62 0 -113.5 23.5t-90.5 69t-63 112t-29 152.5h-108v-245q0 -21 5 -29t13 -8q18 0 22.5 -7t4.5 -18q0 -18 -17.5 -25.5t-34.5 -7.5h-120q-17 0 -34.5 7.5t-17.5 25.5
q0 11 5 18t22 7q7 0 13 10t6 27v516q0 23 -6 30.5t-13 7.5q-17 0 -22 7.5t-5 17.5q0 18 17.5 26t34.5 8h120q17 0 34.5 -8t17.5 -26q0 -10 -4.5 -17.5t-22.5 -7.5q-8 0 -13 -7.5t-5 -30.5v-210h109q7 78 32 139t65.5 102.5t95 63t119.5 21.5q62 0 116.5 -23t95 -68.5
t63.5 -112t23 -153.5z" />
    <glyph glyph-name="uniF468" unicode="&#xf468;" horiz-adv-x="656" 
d="M464 857q0 -13 -4 -21.5t-12 -16.5l-98 -84h-35l48 115q9 21 20 35.5t34 14.5q20 0 33.5 -10t13.5 -33zM437 612q0 14 -7.5 21t-18.5 10t-24 3.5t-24 0.5q-83 0 -117 -34t-34 -111q0 -71 34 -109t106 -38h22t28 2.5t24.5 10t10.5 22.5v222zM615 33q0 -18 -17.5 -25.5
t-34.5 -7.5h-120q-17 0 -34.5 7.5t-17.5 25.5q0 11 4.5 18t22.5 7q8 0 13 8.5t5 28.5v210l-38 -4q-23 -9 -51 -46t-71 -100q-28 -41 -49 -72t-41 -53t-41.5 -33t-49.5 -11q-30 0 -54.5 9.5t-24.5 37.5q0 9 4.5 15t17 18t35 35.5t58.5 68.5l116 140q-24 6 -55 18.5t-58 35
t-45.5 57.5t-18.5 86q0 69 29 109.5t71 60.5t88 25.5t80 5.5h223q22 0 38 -8t16 -26q0 -10 -4.5 -17.5t-21.5 -7.5q-14 0 -16.5 -9.5t-2.5 -34.5v-510q0 -21 5.5 -29t13.5 -8q17 0 21.5 -7t4.5 -18z" />
    <glyph glyph-name="uniF46A" unicode="&#xf46a;" horiz-adv-x="479" 
d="M358 622q0 -13 -4 -21.5t-12 -16.5l-98 -84h-35l47 114q9 22 20.5 36.5t34.5 14.5q19 0 33 -10.5t14 -32.5zM285 251l-30 -14q-54 -25 -77 -49.5t-23 -66.5q0 -23 13.5 -39.5t36.5 -16.5q15 0 29.5 9t26 22.5t18 30t6.5 32.5v92zM450 32q0 -17 -17.5 -29t-46.5 -12
q-10 0 -25 0.5t-30 7t-28 22t-18 44.5q-6 -9 -18 -22.5t-29.5 -26t-41 -21t-53.5 -8.5q-19 0 -39 5t-36.5 17.5t-27 35t-10.5 57.5q0 28 7.5 49.5t24 39t42.5 32t63 28.5q17 7 37.5 15t38.5 17t30 19t12 22v45q0 39 -10.5 53.5t-28.5 14.5q-28 0 -51 -10q-20 -11 -34 -26.5
t-26 -42.5q-10 -23 -16.5 -36t-22.5 -13q-12 0 -18.5 7t-10.5 19t-5 27t-1 30q0 26 7.5 42.5t26.5 26.5q14 8 40 13t60 11q26 5 49 8t48 3q21 0 42 -4.5t37.5 -17.5t27 -35t10.5 -58v-291q0 -15 4 -26t11 -13q10 -2 18 -5.5t8 -13.5z" />
    <glyph glyph-name="uniF46B" unicode="&#xf46b;" horiz-adv-x="477" 
d="M357 622q0 -13 -4 -21.5t-12 -16.5l-98 -84h-35l47 114q9 22 20.5 36.5t34.5 14.5q19 0 33 -10.5t14 -32.5zM328 330q0 22 -4.5 42t-14 35t-24 24t-35.5 9q-30 0 -47.5 -15.5t-26 -36.5t-11 -43.5t-2.5 -36.5q0 -8 3 -9.5t7 -1.5h124q11 0 21 6.5t10 26.5zM452 298
q0 -27 -10.5 -40.5t-43.5 -13.5h-235q0 -91 29 -141.5t86 -50.5q29 0 54.5 13.5t42.5 39.5q7 11 16 20t23 9q15 0 22 -9t7 -20q0 -23 -25.5 -50.5t-73.5 -48.5q-21 -10 -43 -13.5t-55 -3.5q-57 0 -97.5 20.5t-66 55t-37 79.5t-11.5 94q0 76 20 126t52 80t71.5 42t77.5 12
q41 0 77 -11.5t62.5 -35.5t42 -62t15.5 -91z" />
    <glyph glyph-name="uniF46C" unicode="&#xf46c;" horiz-adv-x="567" 
d="M402 622q0 -13 -4 -21.5t-12 -16.5l-98 -84h-35l47 114q9 22 20.5 36.5t34.5 14.5q19 0 33 -10.5t14 -32.5zM535 34q0 -34 -49 -34h-107q-49 0 -49 34q0 9 3.5 15.5t20.5 6.5t17 31v229l-173 -230v-9q0 -21 14 -21q17 0 21.5 -6.5t4.5 -15.5q0 -34 -49 -34h-107
q-49 0 -49 34q0 9 3.5 15.5t20.5 6.5t17 31v305q0 35 -17 35t-20.5 7t-3.5 17q0 34 49 34h107q49 0 49 -34q0 -10 -4.5 -17t-21.5 -7q-7 0 -10.5 -7t-3.5 -27v-223l173 231v9q0 19 -17 19t-20.5 6.5t-3.5 15.5q0 15 13 24.5t36 9.5h107q25 0 37 -9.5t12 -24.5
q0 -9 -4.5 -15.5t-20.5 -6.5q-15 0 -15 -31v-311q0 -14 3.5 -22.5t11.5 -8.5q16 0 20.5 -6.5t4.5 -15.5z" />
    <glyph glyph-name="uniF46D" unicode="&#xf46d;" horiz-adv-x="511" 
d="M374 622q0 -13 -4 -21.5t-12 -16.5l-98 -84h-35l47 114q9 22 20.5 36.5t34.5 14.5q19 0 33 -10.5t14 -32.5zM353 212q0 46 -4.5 88.5t-16 74.5t-30 51.5t-46.5 20.5q-32 0 -51 -14t-29 -38.5t-13 -56t-3 -65.5q0 -46 4.5 -88t16 -74.5t30 -51.5t45.5 -19q30 0 49 14.5
t29.5 38.5t14.5 55t4 64zM486 250q0 -61 -18 -109.5t-48.5 -82t-72 -51.5t-88.5 -18q-68 0 -112.5 22.5t-70.5 58t-37 79.5t-11 88q0 61 16.5 109.5t46.5 82.5t71.5 51.5t91.5 17.5q64 0 108.5 -21.5t72 -56t39.5 -79.5t12 -91z" />
    <glyph glyph-name="uniF46E" unicode="&#xf46e;" horiz-adv-x="505" 
d="M371 622q0 -13 -4 -21.5t-12 -16.5l-98 -84h-35l47 114q9 22 20.5 36.5t34.5 14.5q19 0 33 -10.5t14 -32.5zM505 451q0 -9 -5 -15.5t-22 -6.5q-12 0 -28 -43l-129 -376q-22 -65 -41.5 -115t-40 -84.5t-43.5 -52.5t-52 -18q-18 0 -30 6.5t-19.5 16.5t-10.5 23t-3 26
q0 29 12.5 39.5t24.5 10.5t23 -3.5t30 -3.5q29 0 42 23.5t13 63.5q0 8 -4 23t-9 30.5t-10.5 30t-8.5 21.5l-127 317q-11 27 -19.5 46t-18.5 19q-15 0 -19.5 6.5t-4.5 15.5q0 20 15.5 27t32.5 7h118q21 0 36 -6t15 -28q0 -15 -9.5 -18.5t-17.5 -3.5q-9 0 -9 -18q0 -22 17 -65
l92 -255l82 301q2 5 3 11.5t1 14.5q0 11 -8 11q-16 0 -21 6.5t-5 15.5q0 23 14.5 28.5t34.5 5.5h59q15 0 32.5 -7.5t17.5 -26.5z" />
    <glyph glyph-name="uniF46F" unicode="&#xf46f;" horiz-adv-x="728" 
d="M483 622q0 -13 -4 -21.5t-12 -16.5l-98 -84h-35l47 114q9 22 20.5 36.5t34.5 14.5q19 0 33 -10.5t14 -32.5zM340 159q0 50 -20.5 74t-58.5 24q-16 0 -27.5 -1.5t-19.5 -3.5q-10 -3 -16 -5v-152q0 -28 5 -34t17 -6h33q87 0 87 104zM470 174q0 -39 -11.5 -71t-37 -55
t-65.5 -35.5t-97 -12.5h-177q-49 0 -49 34q0 9 3.5 15.5t20.5 6.5t17 31v312q0 30 -17 30t-20.5 6.5t-3.5 15.5q0 15 12.5 24.5t36.5 9.5h107q25 0 37 -9.5t12 -24.5q0 -9 -4.5 -15.5t-21.5 -6.5q-14 0 -14 -31v-98q12 4 29 8q14 3 34.5 5.5t46.5 2.5q13 0 40 -5t54 -20
t47.5 -43t20.5 -74zM696 34q0 -34 -48 -34h-108q-49 0 -49 34q0 9 3.5 15.5t20.5 6.5t17 31v311q0 31 -17 31t-20.5 6.5t-3.5 15.5q0 15 13 24.5t36 9.5h108q25 0 36.5 -9.5t11.5 -24.5q0 -9 -4.5 -15.5t-20.5 -6.5q-15 0 -15 -31v-311q0 -14 4 -22.5t11 -8.5
q16 0 20.5 -6.5t4.5 -15.5z" />
    <glyph glyph-name="uniF470" unicode="&#xf470;" horiz-adv-x="481" 
d="M359 622q0 -13 -4 -21.5t-12 -16.5l-98 -84h-35l47 114q9 22 20.5 36.5t34.5 14.5q19 0 33 -10.5t14 -32.5zM452 263q0 -66 -20 -117.5t-53.5 -86t-79 -52.5t-96.5 -18q-41 0 -71.5 10t-51 24.5t-31 30.5t-10.5 29q0 15 7 24.5t24 9.5q11 0 19.5 -10.5t21.5 -23.5
t32.5 -23.5t51.5 -10.5q63 0 94 49t31 130q-35 -6 -65 -10q-26 -4 -50.5 -6.5t-34.5 -2.5q-20 0 -24 9.5t-4 20.5q0 25 14 33t55 6l109 -7q0 17 -3 47t-13.5 59t-30.5 50.5t-55 21.5q-24 0 -40.5 -8.5t-28 -21t-19 -26.5t-13.5 -25q-9 -19 -18 -29t-21 -10q-18 0 -25 20.5
t-7 52.5q0 18 6 30.5t16 21.5t22 14.5t24 9.5q29 9 53.5 14.5t58.5 5.5q60 0 103 -19.5t70 -51.5t40 -75t13 -89z" />
    <glyph glyph-name="uniF471" unicode="&#xf471;" horiz-adv-x="757" 
d="M497 622q0 -13 -4 -21.5t-12 -16.5l-98 -84h-35l47 114q9 22 20.5 36.5t34.5 14.5q19 0 33 -10.5t14 -32.5zM597 212q0 46 -5 88.5t-16 74.5t-29.5 51.5t-46.5 20.5q-32 0 -51 -14t-29 -38.5t-13 -56t-3 -65.5q0 -46 4.5 -88t16 -74.5t30 -51.5t45.5 -19q30 0 49 14.5
t29.5 38.5t14.5 55t4 64zM731 250q0 -59 -18 -107.5t-48.5 -82.5t-72 -52.5t-88.5 -18.5q-61 0 -105 20t-72 53t-41.5 76.5t-14.5 90.5h-73v-142q0 -14 3 -22.5t11 -8.5q17 0 21.5 -6.5t4.5 -15.5q0 -34 -49 -34h-107q-49 0 -49 34q0 9 3.5 15.5t20.5 6.5t17 31v311
q0 31 -17 31t-20.5 6.5t-3.5 15.5q0 15 12.5 24.5t36.5 9.5h107q25 0 37 -9.5t12 -24.5q0 -9 -4.5 -15.5t-21.5 -6.5q-14 0 -14 -31v-117h75q7 55 27.5 96t50 68t67.5 40t81 13q66 0 110.5 -20t71.5 -54.5t38.5 -79.5t11.5 -94z" />
    <glyph glyph-name="uniF472" unicode="&#xf472;" horiz-adv-x="510" 
d="M374 622q0 -13 -4 -21.5t-12 -16.5l-98 -84h-35l47 114q9 22 20.5 36.5t34.5 14.5q19 0 33 -10.5t14 -32.5zM315 399q0 20 -11 27t-23 7q-23 0 -41.5 -3.5t-31.5 -14t-19.5 -29.5t-6.5 -51q0 -29 6 -48t18.5 -29.5t31 -14.5t43.5 -4q17 0 25.5 2t8.5 14v144zM479 34
q0 -34 -49 -34h-106q-50 0 -50 34q0 9 4 15.5t21 6.5q16 0 16 31v107l-27 -3l-121 -165q-16 -22 -36 -29.5t-46 -7.5q-28 0 -50 9t-22 32q0 10 6.5 17.5t18.5 17t27.5 22t33.5 33.5l75 87q-14 2 -35 9.5t-40.5 22.5t-33.5 40.5t-14 63.5q0 42 17.5 69.5t45 43.5t62 22.5
t69.5 6.5h185q26 0 37.5 -9.5t11.5 -24.5q0 -9 -4.5 -15.5t-20.5 -6.5q-15 0 -15 -31v-311q0 -14 3.5 -22.5t11.5 -8.5q16 0 20.5 -6.5t4.5 -15.5z" />
    <glyph glyph-name="uniF639" unicode="&#xf639;" horiz-adv-x="549" 
d="M384 356q0 97 -7.5 158.5t-21.5 96t-34.5 47.5t-46.5 13t-46.5 -13t-34.5 -47.5t-21.5 -96t-7.5 -158.5t8.5 -159.5t23 -98.5t34.5 -50t44 -14q25 0 45.5 14.5t34.5 51t22 99t8 157.5zM518 356q0 -101 -24.5 -172.5t-61 -117t-79.5 -67t-79 -21.5q-47 0 -90.5 19.5
t-77.5 64t-54.5 116.5t-20.5 178q0 99 20.5 169.5t54.5 115t77.5 65.5t90.5 21t91 -16.5t78 -58.5t54.5 -114t20.5 -182z" />
    <glyph glyph-name="uniF63A" unicode="&#xf63a;" horiz-adv-x="493" 
d="M458 545q0 -33 -10 -61.5t-25 -52.5t-33.5 -44.5t-36.5 -36.5q-33 -30 -64 -56.5t-58.5 -50t-49.5 -45t-35 -42.5q-14 -20 -15.5 -30t-1.5 -15t6.5 -7t15 -2t18 0.5t15.5 0.5h113q40 0 61.5 9.5t41.5 29.5q14 14 21 17.5t14 3.5q12 0 14.5 -9t2.5 -18q0 -6 -3.5 -21.5
t-8.5 -42.5q-5 -25 -10.5 -39.5t-15 -21.5t-24 -9t-37.5 -2h-246q-30 0 -51.5 10t-21.5 39q0 35 27.5 80.5t67.5 93.5q25 30 44 48.5t37 36.5t37 42t46 65q13 20 19.5 52t6.5 61q0 75 -26.5 105t-68.5 30q-11 0 -26.5 -4.5t-29.5 -15.5t-24 -29t-10 -45q0 -22 6 -33t6 -26
q0 -14 -12 -30t-37 -16q-27 0 -45 18t-18 63q0 36 16 69t45 58t69 40t89 15q42 0 79 -10.5t65 -33t44.5 -56.5t16.5 -82z" />
    <glyph glyph-name="uniF63B" unicode="&#xf63b;" horiz-adv-x="527" 
d="M497 194q0 -42 -17.5 -80.5t-50 -68.5t-80 -47.5t-107.5 -17.5q-48 0 -87 11t-66.5 30.5t-42.5 47t-15 60.5q0 38 13.5 56.5t45.5 18.5q16 0 26 -5.5t15 -13t7 -16t2 -14.5q3 -63 27 -88.5t75 -25.5q117 0 117 153q0 26 -6.5 51.5t-21.5 45.5t-38 32.5t-56 12.5
q-27 0 -40 -3.5t-29 -3.5q-11 0 -17 5t-6 23q0 19 6.5 27.5t16 11.5t21.5 2t24 -1h24q62 0 84 39.5t22 110.5q0 60 -27 89t-72 29q-32 0 -51 -9t-29 -22t-13 -26.5t-3 -23.5q0 -8 1 -13.5t2.5 -10.5t2.5 -10.5t1 -14.5q0 -19 -11.5 -31t-40.5 -12q-9 0 -18.5 3t-18 11.5
t-14 22.5t-5.5 37q0 31 15 60.5t43 51.5t66.5 35.5t86.5 13.5q33 0 71.5 -6.5t71.5 -25t55 -52t22 -87.5q0 -45 -16.5 -77.5t-40.5 -54.5t-51 -34t-48 -18v-4q43 -3 75.5 -19t54.5 -40t33.5 -54t11.5 -61z" />
    <glyph glyph-name="uniF63C" unicode="&#xf63c;" horiz-adv-x="529" 
d="M282 515q0 12 0.5 23.5t0.5 21.5t-2.5 16t-8.5 6t-14.5 -6t-17 -14.5t-15.5 -17t-11 -14.5q-5 -6 -13.5 -18t-20 -28t-23.5 -36t-22 -41q-20 -39 -29.5 -67.5t-9.5 -42.5q0 -9 11 -9h19h156v227zM505 265q0 -26 -15 -42t-30 -16h-45v-112q2 -16 6 -26.5t12 -10.5
q18 0 22.5 -7t4.5 -18q0 -18 -17.5 -25.5t-34.5 -7.5h-120q-17 0 -34 7.5t-17 25.5q0 11 4 18t21 7q8 0 14 8t6 29v112h-230q-24 0 -33.5 11t-9.5 28q0 16 6 37.5t16 45t23 49t27 51.5q28 51 61 97.5t61 78.5q45 52 90.5 87t87.5 35q13 0 20 -4t10 -11t3.5 -17t0.5 -21v-385
h52q14 0 26 -1.5t12 -22.5z" />
    <glyph glyph-name="uniF63D" unicode="&#xf63d;" horiz-adv-x="511" 
d="M480 222q0 -48 -18.5 -91.5t-52 -77t-79.5 -53.5t-101 -20q-54 0 -92 11.5t-62.5 31.5t-35.5 46t-11 56q0 29 15 52t44 23q16 0 26.5 -5t16 -12t7.5 -15.5t2 -14.5q0 -15 -0.5 -34t6.5 -36t24.5 -28.5t52.5 -11.5q59 0 89.5 45.5t30.5 123.5q0 46 -9.5 75.5t-25.5 47
t-38 24t-46 6.5q-18 0 -42 -7t-44 -17q-8 -5 -18.5 -10t-21.5 -5q-12 0 -21 7t-9 23q0 17 0.5 25t2.5 24l42 275q7 24 19.5 26t28.5 2h263q15 0 23 -2.5t11.5 -7t3.5 -9.5v-11q0 -11 -3.5 -25.5t-12 -28.5t-22 -23.5t-34.5 -9.5h-220l-30 -184q20 8 54 16.5t71 8.5
q48 0 87.5 -12t68 -37.5t44.5 -65t16 -95.5z" />
    <glyph glyph-name="uniF63E" unicode="&#xf63e;" horiz-adv-x="519" 
d="M366 203q0 14 -2 45t-12 62t-31 54.5t-58 23.5q-29 0 -49 -9.5t-33 -23.5t-20 -29t-10 -26q-2 -74 9 -123.5t29 -79t40.5 -42t42.5 -12.5q25 0 43 16t29 40t16.5 52t5.5 52zM495 241q0 -69 -23 -118t-57.5 -81t-75 -47t-75.5 -15q-69 0 -114.5 26.5t-72.5 68.5
t-38.5 93.5t-11.5 101.5q0 82 16.5 148.5t44.5 117t64 87t75 60t78.5 34.5t72.5 11q43 0 43 -26q0 -15 -11.5 -23t-41.5 -13q-49 -9 -88 -36t-66 -64.5t-41.5 -81.5t-14.5 -87q12 13 25.5 24t30.5 19t38.5 13t51.5 5q39 0 74 -13.5t61 -40.5t41 -68t15 -95z" />
    <glyph glyph-name="uniF63F" unicode="&#xf63f;" horiz-adv-x="458" 
d="M448 687q0 -30 -10 -59t-23 -60l-217 -528q-6 -14 -17 -27t-26 -13h-49q-9 0 -21 1.5t-12 15.5q0 9 3 16.5t6 14.5l249 499q13 23 13 36q0 8 -11 8h-34h-118q-30 0 -50.5 -3.5t-35.5 -14.5q-18 -12 -27 -21.5t-21 -9.5q-14 0 -16 10.5t-2 20.5q0 6 2.5 20t6 29.5t8.5 31
t11 25.5q12 21 27 25t41 4h245q9 0 22.5 0.5t26 -0.5t21 -6t8.5 -15z" />
    <glyph glyph-name="uniF640" unicode="&#xf640;" horiz-adv-x="561" 
d="M388 204q0 25 -5 49.5t-17 43t-32.5 30t-51.5 11.5q-32 0 -53 -11t-33 -30t-17 -43t-5 -50q0 -28 3 -57.5t14.5 -53.5t33 -39t57.5 -15q37 0 58 15t31.5 39t13.5 53.5t3 57.5zM375 542q0 65 -21.5 97t-72.5 32q-46 0 -70.5 -34t-24.5 -95q0 -30 5.5 -56t17 -44.5
t29.5 -29.5t43 -11q50 0 72 39t22 102zM530 189q0 -48 -19.5 -86.5t-53 -64.5t-79 -40t-96.5 -14q-53 0 -98.5 12.5t-79.5 38t-53.5 64t-19.5 90.5q0 62 37.5 114t117.5 75q-21 9 -44.5 21.5t-44 32t-33.5 47.5t-13 68q0 44 18.5 78t50 56.5t73 34t88.5 11.5
q50 0 92.5 -11.5t73 -34t47.5 -56.5t17 -78q0 -39 -14.5 -68t-35.5 -49t-44.5 -33t-41.5 -19q44 -12 73.5 -32t47.5 -45.5t26 -54t8 -57.5z" />
    <glyph glyph-name="uniF641" unicode="&#xf641;" horiz-adv-x="518" 
d="M367 407q0 71 -6.5 120t-20 79.5t-34.5 44t-50 13.5q-31 0 -51 -16t-32 -40t-16.5 -52t-4.5 -52q0 -14 2 -45t12.5 -62t31 -54.5t58.5 -23.5q29 0 49 9.5t33 23.5t19.5 29t9.5 26zM491 435q0 -82 -17 -147.5t-45 -116.5t-64 -87.5t-75 -60t-77.5 -34.5t-71.5 -11
q-20 0 -31.5 6.5t-11.5 20.5q0 18 11 24.5t41 11.5q49 8 87 37.5t64.5 68.5t41.5 82.5t18 79.5q-23 -23 -57.5 -41.5t-88.5 -18.5q-40 0 -74.5 15t-60.5 43.5t-41 70.5t-15 97q0 61 20 108t54 79t77 48.5t90 16.5q67 0 111 -27t69.5 -69.5t35.5 -94.5t10 -101z" />
    <glyph glyph-name="uniF6C9" unicode="&#xf6c9;" horiz-adv-x="509" 
d="M391 857q0 -13 -4 -21.5t-12 -16.5l-98 -84h-35l48 115q9 21 20 35.5t34 14.5q20 0 33.5 -10t13.5 -33z" />
    <glyph glyph-name="uniF6CB" unicode="&#xf6cb;" horiz-adv-x="579" 
d="M294 811q0 -25 -17 -42.5t-43 -17.5q-24 0 -40 18t-17 42q0 26 16 44t41 18q26 1 43.5 -17.5t16.5 -44.5zM463 811q-1 -25 -17.5 -42.5t-41.5 -17.5t-42 18t-17 42q-1 26 16 44t43 18q25 1 42 -17.5t17 -44.5z" />
    <glyph glyph-name="uniF6D1" unicode="&#xf6d1;" horiz-adv-x="608" 
d="M508 850q0 -30 -16 -50.5t-41.5 -34t-56.5 -19.5t-61 -6t-61 6.5t-56 20t-41 34t-16 49.5q0 23 13.5 36.5t37.5 13.5q30 0 47.5 -11.5t17.5 -49.5q0 -8 2.5 -16.5t8.5 -16t17.5 -12t29.5 -4.5q19 0 30.5 5t17.5 12t8 15.5t2 16.5q0 37 18 49t47 12q25 0 38.5 -13.5
t13.5 -36.5z" />
    <glyph glyph-name="uniF6D4" unicode="&#xf6d4;" horiz-adv-x="505" 
d="M432 627q0 -26 -16 -44.5t-40 -30t-51.5 -16.5t-50.5 -5t-50.5 5t-51.5 16.5t-40 30t-16 44.5q0 43 53 43q18 0 28 -5t15.5 -12.5t8 -17t5.5 -19.5q2 -8 4 -14.5t6.5 -12t13 -8.5t24.5 -3t25 3t13.5 8.5t6.5 12t4 14.5q3 10 5.5 20t8.5 17.5t16 12t27 4.5q52 0 52 -43z
" />
    <glyph glyph-name="uniF6DC" unicode="&#xf6dc;" horiz-adv-x="338" 
d="M313 33q0 -18 -17 -25.5t-34 -7.5h-139q-17 0 -34.5 7.5t-17.5 25.5q0 11 4.5 18t21.5 7t23 8t6 29v432q0 19 -12 28q-8 7 -28 4.5t-44 -11.5q-11 -5 -17 -3.5t-9 5t-3.5 9t-0.5 10.5q0 8 13 21.5t33.5 29.5t44.5 32t47 29q15 8 40 17.5t42 9.5t22 -15.5t5 -36.5v-561
q0 -16 6.5 -26.5t22.5 -10.5q17 0 21 -7t4 -18z" />
    <glyph glyph-name="glyph269" horiz-adv-x="233" 
 />
    <glyph glyph-name="glyph270" horiz-adv-x="421" 
d="M54 210v79h293v-79h-293z" />
    <glyph glyph-name="glyph271" horiz-adv-x="552" 
d="M406 154q0 31 -10.5 52.5t-25.5 36.5t-33 24.5t-33 16.5v-238q49 3 75.5 34.5t26.5 73.5zM238 464v203q-42 -10 -58 -38t-16 -59q0 -8 0.5 -17.5t4 -21t12.5 -24t26 -24.5q7 -5 14.5 -9.5t16.5 -9.5zM530 192q0 -86 -57.5 -142.5t-168.5 -67.5v-66h-66v65q-54 2 -94 13.5
t-66.5 29t-40 40t-13.5 46.5q0 18 3.5 37t11 34.5t18 25t25.5 9.5q18 0 22.5 -12.5t12.5 -37.5q17 -60 46.5 -90.5t74.5 -30.5v271q-15 9 -33 18t-41 21q-26 13 -49.5 30.5t-41.5 40t-29 50t-11 59.5q0 46 16.5 80t44 57t65 36t79.5 18v65h66v-64q27 -1 60.5 -6t65.5 -16
q39 -14 52.5 -38.5t10.5 -61.5q-2 -25 -6.5 -41t-10.5 -25t-13.5 -12.5t-14.5 -3.5q-15 0 -25.5 19.5t-24.5 44.5t-35.5 48.5t-58.5 31.5v-238q54 -28 96 -51t71 -49.5t44 -58.5t15 -78z" />
    <glyph glyph-name="glyph272" horiz-adv-x="609" 
d="M577 597q0 -54 -15.5 -76t-33.5 -22q-11 0 -18.5 7.5t-13.5 19t-11.5 25.5t-11.5 26q-9 17 -18.5 32.5t-22 27.5t-29.5 19t-40 7q-52 0 -92.5 -49.5t-53.5 -161.5h238q0 -7 -2 -14q-2 -6 -4 -13t-6 -14q-11 -19 -24.5 -21.5t-31.5 -2.5h-174q0 -14 -0.5 -26t1.5 -26h190
q0 -6 -2 -13q-2 -6 -4 -13.5t-6 -14.5q-11 -18 -25 -21t-31 -3h-116q5 -65 20.5 -105t36.5 -62.5t44 -30t42 -7.5q28 0 48.5 8.5t35 20.5t24.5 25.5t16 23.5q10 16 20 25.5t20 9.5q21 0 27.5 -12t6.5 -23q0 -18 -14 -45.5t-42 -53t-70 -43.5t-98 -18q-47 0 -89.5 14t-77 47
t-58 88t-31.5 138h-60q-1 8 1 15q2 13 11 27q8 14 18.5 18t24.5 5l1 52h-56q-1 7 1 15q2 14 11 28t22 18t30 4q13 64 39 115t62.5 86.5t83.5 54.5t101 19q53 0 90.5 -10.5t56.5 -20.5q32 -17 45.5 -39.5t13.5 -59.5z" />
    <glyph glyph-name="glyph276" horiz-adv-x="0" 
 />
    </font>
</defs>
</svg>
